<svg
  width="820"
  height="360"
  viewBox="0 0 820 360"
  fill="none"
  xmlns="http://www.w3.org/2000/svg"
>
<rect width="820" height="360" fill="#1D3557" />
<path
    d="M322.472 227.254V217.732L323.678 217.161H323.742V221.63H327.487V217.732L328.693 217.161H328.756V226.683L327.55 227.254H327.487V222.785H323.742V226.683L322.536 227.254H322.472ZM332.882 227C331.613 227 330.978 226.365 330.978 225.096V221.922C330.978 220.652 331.613 220.018 332.882 220.018H334.342C335.612 220.018 336.247 220.652 336.247 221.922V222.258L332.267 225.337C332.326 225.684 332.531 225.857 332.882 225.857H334.342C334.765 225.857 334.977 225.604 334.977 225.096V224.759L336.183 224.188H336.247V225.096C336.247 226.365 335.612 227 334.342 227H332.882ZM332.248 224.01L334.971 221.814C334.945 221.378 334.736 221.16 334.342 221.16H332.882C332.459 221.16 332.248 221.414 332.248 221.922V224.01ZM338.151 227.254V221.922C338.151 220.652 338.786 220.018 340.055 220.018H341.642V220.081L341.134 221.16H340.055C339.632 221.16 339.42 221.414 339.42 221.922V226.683L338.214 227.254H338.151ZM342.721 227.254V221.922C342.721 220.652 343.356 220.018 344.625 220.018H346.085C346.669 220.018 347.093 220.174 347.355 220.487C347.634 220.174 348.057 220.018 348.625 220.018H350.084C351.354 220.018 351.989 220.652 351.989 221.922V226.683L350.783 227.254H350.719V221.922C350.719 221.414 350.508 221.16 350.084 221.16H348.625C348.201 221.16 347.99 221.414 347.99 221.922V226.683L346.784 227.254H346.72V221.922C346.72 221.414 346.509 221.16 346.085 221.16H344.625C344.202 221.16 343.991 221.414 343.991 221.922V226.683L342.785 227.254H342.721ZM355.48 225.857H356.813C357.236 225.857 357.448 225.604 357.448 225.096V224.226C357.448 223.718 357.236 223.464 356.813 223.464H355.48C355.057 223.464 354.845 223.718 354.845 224.226V225.096C354.845 225.604 355.057 225.857 355.48 225.857ZM355.48 227C354.21 227 353.576 226.365 353.576 225.096V224.226C353.576 222.957 354.21 222.322 355.48 222.322H356.813C357.033 222.322 357.245 222.385 357.448 222.512V221.922C357.448 221.414 357.236 221.16 356.813 221.16H354.541V221.097L355.048 220.018H356.813C358.083 220.018 358.717 220.652 358.717 221.922V226.683L357.511 227.254H357.448V226.81C357.287 226.937 357.075 227 356.813 227H355.48ZM360.622 227.254V221.922C360.622 220.652 361.256 220.018 362.526 220.018H363.986C365.255 220.018 365.89 220.652 365.89 221.922V226.683L364.684 227.254H364.621V221.922C364.621 221.414 364.409 221.16 363.986 221.16H362.526C362.103 221.16 361.891 221.414 361.891 221.922V226.683L360.685 227.254H360.622ZM367.794 227.254V221.922C367.794 220.652 368.429 220.018 369.699 220.018H371.159C372.428 220.018 373.063 220.652 373.063 221.922V226.683L371.857 227.254H371.793V221.922C371.793 221.414 371.582 221.16 371.159 221.16H369.699C369.276 221.16 369.064 221.414 369.064 221.922V226.683L367.858 227.254H367.794ZM380.363 227.254V217.732L381.569 217.161H381.632V221.63H385.377V217.732L386.583 217.161H386.647V226.683L385.441 227.254H385.377V222.785H381.632V226.683L380.426 227.254H380.363ZM390.773 227C389.503 227 388.869 226.365 388.869 225.096V221.922C388.869 220.652 389.503 220.018 390.773 220.018H392.233C393.502 220.018 394.137 220.652 394.137 221.922V222.258L390.157 225.337C390.216 225.684 390.422 225.857 390.773 225.857H392.233C392.656 225.857 392.868 225.604 392.868 225.096V224.759L394.074 224.188H394.137V225.096C394.137 226.365 393.502 227 392.233 227H390.773ZM390.138 224.01L392.861 221.814C392.836 221.378 392.626 221.16 392.233 221.16H390.773C390.35 221.16 390.138 221.414 390.138 221.922V224.01ZM397.755 227C396.486 227 395.851 226.365 395.851 225.096V224.867L397.057 224.296H397.121V225.096C397.121 225.604 397.332 225.857 397.755 225.857H399.215C399.639 225.857 399.85 225.604 399.85 225.096V224.594C399.85 224.086 399.639 223.833 399.215 223.833H398.022C396.752 223.833 396.118 223.196 396.118 221.922C396.118 220.652 396.752 220.018 398.022 220.018H398.765C400.034 220.018 400.669 220.53 400.669 221.554L399.463 222.125H399.399V221.922C399.399 221.414 399.188 221.16 398.765 221.16H398.022C397.599 221.16 397.387 221.414 397.387 221.922C397.387 222.434 397.599 222.69 398.022 222.69H399.215C400.485 222.69 401.12 223.325 401.12 224.594V225.096C401.12 226.365 400.485 227 399.215 227H397.755ZM404.547 227C403.278 227 402.643 226.365 402.643 225.096V224.867L403.849 224.296H403.913V225.096C403.913 225.604 404.124 225.857 404.547 225.857H406.007C406.431 225.857 406.642 225.604 406.642 225.096V224.594C406.642 224.086 406.431 223.833 406.007 223.833H404.814C403.544 223.833 402.91 223.196 402.91 221.922C402.91 220.652 403.544 220.018 404.814 220.018H405.557C406.826 220.018 407.461 220.53 407.461 221.554L406.255 222.125H406.191V221.922C406.191 221.414 405.98 221.16 405.557 221.16H404.814C404.391 221.16 404.179 221.414 404.179 221.922C404.179 222.434 404.391 222.69 404.814 222.69H406.007C407.277 222.69 407.912 223.325 407.912 224.594V225.096C407.912 226.365 407.277 227 406.007 227H404.547ZM411.53 227C410.26 227 409.625 226.365 409.625 225.096V221.922C409.625 220.652 410.26 220.018 411.53 220.018H412.99C414.259 220.018 414.894 220.652 414.894 221.922V222.258L410.914 225.337C410.973 225.684 411.179 225.857 411.53 225.857H412.99C413.413 225.857 413.625 225.604 413.625 225.096V224.759L414.831 224.188H414.894V225.096C414.894 226.365 414.259 227 412.99 227H411.53ZM410.895 224.01L413.618 221.814C413.593 221.378 413.383 221.16 412.99 221.16H411.53C411.107 221.16 410.895 221.414 410.895 221.922V224.01ZM421.876 222.785V222.722L422.391 221.63H427.678V221.693L427.164 222.785H421.876ZM436.946 227C435.465 227 434.724 226.259 434.724 224.778V224.08L435.93 223.509H435.994V224.778C435.994 225.498 436.311 225.857 436.946 225.857H438.914C439.548 225.857 439.866 225.498 439.866 224.778V223.445C439.866 222.726 439.548 222.366 438.914 222.366H437.2C435.93 222.366 435.295 221.731 435.295 220.462V219.319C435.295 218.05 435.93 217.415 437.2 217.415H438.66C439.929 217.415 440.564 218.05 440.564 219.319V219.656L439.358 220.227H439.294V219.319C439.294 218.812 439.083 218.558 438.66 218.558H437.2C436.777 218.558 436.565 218.812 436.565 219.319V220.462C436.565 220.97 436.777 221.224 437.2 221.224H438.914C440.395 221.224 441.135 221.964 441.135 223.445V224.778C441.135 226.259 440.395 227 438.914 227H436.946ZM443.516 218.615C443.368 218.462 443.293 218.28 443.293 218.069C443.293 217.853 443.368 217.669 443.516 217.517C443.664 217.364 443.844 217.288 444.055 217.288C444.267 217.288 444.447 217.364 444.595 217.517C444.743 217.669 444.817 217.853 444.817 218.069C444.817 218.28 444.743 218.462 444.595 218.615C444.447 218.767 444.267 218.843 444.055 218.843C443.844 218.843 443.664 218.767 443.516 218.615ZM443.42 227.254V220.335L444.626 219.764H444.69V226.683L443.484 227.254H443.42ZM448.816 227C447.546 227 446.912 226.365 446.912 225.096V221.922C446.912 220.652 447.546 220.018 448.816 220.018H450.276C450.564 220.018 450.775 220.083 450.911 220.214V217.732L452.117 217.161H452.18V225.096C452.18 226.365 451.545 227 450.276 227H448.816ZM448.816 225.857H450.276C450.699 225.857 450.911 225.604 450.911 225.096V221.922C450.911 221.414 450.699 221.16 450.276 221.16H448.816C448.393 221.16 448.181 221.414 448.181 221.922V225.096C448.181 225.604 448.393 225.857 448.816 225.857ZM456.306 227C455.037 227 454.402 226.365 454.402 225.096V221.922C454.402 220.652 455.037 220.018 456.306 220.018H457.766C458.054 220.018 458.265 220.083 458.401 220.214V217.732L459.607 217.161H459.67V225.096C459.67 226.365 459.036 227 457.766 227H456.306ZM456.306 225.857H457.766C458.189 225.857 458.401 225.604 458.401 225.096V221.922C458.401 221.414 458.189 221.16 457.766 221.16H456.306C455.883 221.16 455.671 221.414 455.671 221.922V225.096C455.671 225.604 455.883 225.857 456.306 225.857ZM462.209 227.254V217.732L463.416 217.161H463.479V220.214C463.665 220.083 463.877 220.018 464.114 220.018H465.574C466.843 220.018 467.478 220.652 467.478 221.922V226.683L466.272 227.254H466.208V221.922C466.208 221.414 465.997 221.16 465.574 221.16H464.114C463.691 221.16 463.479 221.414 463.479 221.922V226.683L462.273 227.254H462.209ZM470.969 225.857H472.302C472.725 225.857 472.937 225.604 472.937 225.096V224.226C472.937 223.718 472.725 223.464 472.302 223.464H470.969C470.546 223.464 470.334 223.718 470.334 224.226V225.096C470.334 225.604 470.546 225.857 470.969 225.857ZM470.969 227C469.7 227 469.065 226.365 469.065 225.096V224.226C469.065 222.957 469.7 222.322 470.969 222.322H472.302C472.522 222.322 472.734 222.385 472.937 222.512V221.922C472.937 221.414 472.725 221.16 472.302 221.16H470.03V221.097L470.538 220.018H472.302C473.572 220.018 474.207 220.652 474.207 221.922V226.683L473 227.254H472.937V226.81C472.776 226.937 472.565 227 472.302 227H470.969ZM476.111 227.254V221.922C476.111 220.652 476.746 220.018 478.015 220.018H479.602V220.081L479.094 221.16H478.015C477.592 221.16 477.38 221.414 477.38 221.922V226.683L476.174 227.254H476.111ZM481.519 227.254V221.173H479.888V221.109L480.402 220.018H481.519V217.732L482.725 217.161H482.789V220.018H484.42V220.081L483.906 221.173H482.789V226.683L481.583 227.254H481.519ZM485.848 227.254V217.732L487.054 217.161H487.118V220.214C487.304 220.083 487.515 220.018 487.752 220.018H489.212C490.482 220.018 491.117 220.652 491.117 221.922V226.683L489.911 227.254H489.847V221.922C489.847 221.414 489.636 221.16 489.212 221.16H487.752C487.329 221.16 487.118 221.414 487.118 221.922V226.683L485.912 227.254H485.848ZM494.608 225.857H495.941C496.364 225.857 496.576 225.604 496.576 225.096V224.226C496.576 223.718 496.364 223.464 495.941 223.464H494.608C494.185 223.464 493.973 223.718 493.973 224.226V225.096C493.973 225.604 494.185 225.857 494.608 225.857ZM494.608 227C493.338 227 492.704 226.365 492.704 225.096V224.226C492.704 222.957 493.338 222.322 494.608 222.322H495.941C496.161 222.322 496.373 222.385 496.576 222.512V221.922C496.576 221.414 496.364 221.16 495.941 221.16H493.668V221.097L494.176 220.018H495.941C497.21 220.018 497.845 220.652 497.845 221.922V226.683L496.639 227.254H496.576V226.81C496.415 226.937 496.203 227 495.941 227H494.608Z"
    fill="#A8DADC"
  />
<path
    d="M97.3896 165.24L98.1875 166.168C96.7897 167.59 96.0908 168.926 96.0908 170.176C96.0908 171.673 96.9196 172.959 98.5771 174.035L95.0518 175.705H94.8662C93.5179 174.382 92.8438 172.872 92.8438 171.178C92.8438 168.815 94.359 166.836 97.3896 165.24ZM103.234 165.24L104.032 166.168C102.634 167.59 101.936 168.926 101.936 170.176C101.936 171.673 102.764 172.959 104.422 174.035L100.896 175.705H100.711C99.3626 174.382 98.6885 172.872 98.6885 171.178C98.6885 168.815 100.204 166.836 103.234 165.24ZM110.916 194.742V166.91L114.441 165.24H114.627V193.072L111.102 194.742H110.916ZM141.531 194C137.82 194 135.965 192.145 135.965 188.434V179.156C135.965 175.445 137.82 173.59 141.531 173.59H145.799C149.51 173.59 151.365 175.445 151.365 179.156V180.14L147.84 181.81H147.654V179.156C147.654 177.672 147.036 176.93 145.799 176.93H141.531C140.294 176.93 139.676 177.672 139.676 179.156V188.434C139.676 189.918 140.294 190.66 141.531 190.66H145.799C147.036 190.66 147.654 189.918 147.654 188.434V187.45L151.18 185.78H151.365V188.434C151.365 192.145 149.51 194 145.799 194H141.531ZM161.57 190.66H165.467C166.704 190.66 167.322 189.918 167.322 188.434V185.892C167.322 184.407 166.704 183.665 165.467 183.665H161.57C160.333 183.665 159.715 184.407 159.715 185.892V188.434C159.715 189.918 160.333 190.66 161.57 190.66ZM161.57 194C157.859 194 156.004 192.145 156.004 188.434V185.892C156.004 182.181 157.859 180.325 161.57 180.325H165.467C166.11 180.325 166.729 180.511 167.322 180.882V179.156C167.322 177.672 166.704 176.93 165.467 176.93H158.824V176.744L160.309 173.59H165.467C169.178 173.59 171.033 175.445 171.033 179.156V193.072L167.508 194.742H167.322V193.443C166.852 193.814 166.234 194 165.467 194H161.57ZM176.6 194.742V179.156C176.6 175.445 178.455 173.59 182.166 173.59H186.434C190.145 173.59 192 175.445 192 179.156V193.072L188.475 194.742H188.289V179.156C188.289 177.672 187.671 176.93 186.434 176.93H182.166C180.929 176.93 180.311 177.672 180.311 179.156V193.072L176.785 194.742H176.6ZM329.379 194.742V166.91L332.904 165.24H333.09V193.072L329.564 194.742H329.379ZM359.994 194C356.283 194 354.428 192.145 354.428 188.434V179.156C354.428 175.445 356.283 173.59 359.994 173.59H364.262C367.973 173.59 369.828 175.445 369.828 179.156V180.14L366.303 181.81H366.117V179.156C366.117 177.672 365.499 176.93 364.262 176.93H359.994C358.757 176.93 358.139 177.672 358.139 179.156V188.434C358.139 189.918 358.757 190.66 359.994 190.66H364.262C365.499 190.66 366.117 189.918 366.117 188.434V187.45L369.643 185.78H369.828V188.434C369.828 192.145 367.973 194 364.262 194H359.994ZM380.033 190.66H383.93C385.167 190.66 385.785 189.918 385.785 188.434V185.892C385.785 184.407 385.167 183.665 383.93 183.665H380.033C378.796 183.665 378.178 184.407 378.178 185.892V188.434C378.178 189.918 378.796 190.66 380.033 190.66ZM380.033 194C376.322 194 374.467 192.145 374.467 188.434V185.892C374.467 182.181 376.322 180.325 380.033 180.325H383.93C384.573 180.325 385.191 180.511 385.785 180.882V179.156C385.785 177.672 385.167 176.93 383.93 176.93H377.287V176.744L378.771 173.59H383.93C387.641 173.59 389.496 175.445 389.496 179.156V193.072L385.971 194.742H385.785V193.443C385.315 193.814 384.697 194 383.93 194H380.033ZM395.062 194.742V179.156C395.062 175.445 396.918 173.59 400.629 173.59H404.896C408.607 173.59 410.463 175.445 410.463 179.156V193.072L406.938 194.742H406.752V179.156C406.752 177.672 406.133 176.93 404.896 176.93H400.629C399.392 176.93 398.773 177.672 398.773 179.156V193.072L395.248 194.742H395.062ZM535.41 194.742V166.91L538.936 165.24H539.121V193.072L535.596 194.742H535.41ZM566.025 194C562.314 194 560.459 192.145 560.459 188.434V179.156C560.459 175.445 562.314 173.59 566.025 173.59H570.293C574.004 173.59 575.859 175.445 575.859 179.156V180.14L572.334 181.81H572.148V179.156C572.148 177.672 571.53 176.93 570.293 176.93H566.025C564.788 176.93 564.17 177.672 564.17 179.156V188.434C564.17 189.918 564.788 190.66 566.025 190.66H570.293C571.53 190.66 572.148 189.918 572.148 188.434V187.45L575.674 185.78H575.859V188.434C575.859 192.145 574.004 194 570.293 194H566.025ZM586.064 190.66H589.961C591.198 190.66 591.816 189.918 591.816 188.434V185.892C591.816 184.407 591.198 183.665 589.961 183.665H586.064C584.827 183.665 584.209 184.407 584.209 185.892V188.434C584.209 189.918 584.827 190.66 586.064 190.66ZM586.064 194C582.354 194 580.498 192.145 580.498 188.434V185.892C580.498 182.181 582.354 180.325 586.064 180.325H589.961C590.604 180.325 591.223 180.511 591.816 180.882V179.156C591.816 177.672 591.198 176.93 589.961 176.93H583.318V176.744L584.803 173.59H589.961C593.672 173.59 595.527 175.445 595.527 179.156V193.072L592.002 194.742H591.816V193.443C591.346 193.814 590.728 194 589.961 194H586.064ZM601.094 194.742V179.156C601.094 175.445 602.949 173.59 606.66 173.59H610.928C614.639 173.59 616.494 175.445 616.494 179.156V193.072L612.969 194.742H612.783V179.156C612.783 177.672 612.165 176.93 610.928 176.93H606.66C605.423 176.93 604.805 177.672 604.805 179.156V193.072L601.279 194.742H601.094Z"
    fill="#457B9D"
  />
<path
    d="M214.859 194.742V176.967H210.091V176.781L211.594 173.59H214.859V166.91L218.385 165.24H218.57V173.59H223.339V173.775L221.836 176.967H218.57V193.072L215.045 194.742H214.859ZM227.514 194.742V166.91L231.039 165.24H231.225V174.165C231.769 173.782 232.387 173.59 233.08 173.59H237.348C241.059 173.59 242.914 175.445 242.914 179.156V193.072L239.389 194.742H239.203V179.156C239.203 177.672 238.585 176.93 237.348 176.93H233.08C231.843 176.93 231.225 177.672 231.225 179.156V193.072L227.699 194.742H227.514ZM249.687 169.489C249.254 169.044 249.037 168.512 249.037 167.894C249.037 167.263 249.254 166.725 249.687 166.279C250.119 165.834 250.645 165.611 251.264 165.611C251.882 165.611 252.408 165.834 252.841 166.279C253.274 166.725 253.49 167.263 253.49 167.894C253.49 168.512 253.274 169.044 252.841 169.489C252.408 169.935 251.882 170.157 251.264 170.157C250.645 170.157 250.119 169.935 249.687 169.489ZM249.408 194.742V174.518L252.934 172.848H253.119V193.072L249.594 194.742H249.408ZM259.613 194.742V179.156C259.613 175.445 261.469 173.59 265.18 173.59H269.447C273.158 173.59 275.014 175.445 275.014 179.156V193.072L271.488 194.742H271.303V179.156C271.303 177.672 270.684 176.93 269.447 176.93H265.18C263.943 176.93 263.324 177.672 263.324 179.156V193.072L259.799 194.742H259.613ZM281.508 194.742V166.91L285.033 165.24H285.219V180.27C285.38 180.232 285.553 180.201 285.738 180.177L292.975 172.848H293.16L296.426 174.388L290.229 180.084H291.342C295.053 180.084 296.908 181.939 296.908 185.65V193.072L293.383 194.742H293.197V185.65C293.197 184.166 292.579 183.424 291.342 183.424H287.074C285.837 183.424 285.219 184.166 285.219 185.65V193.072L281.693 194.742H281.508ZM303.681 193.703C303.248 193.258 303.031 192.726 303.031 192.107C303.031 191.477 303.248 190.938 303.681 190.493C304.114 190.048 304.639 189.825 305.258 189.825C305.876 189.825 306.402 190.048 306.835 190.493C307.268 190.938 307.484 191.477 307.484 192.107C307.484 192.726 307.268 193.258 306.835 193.703C306.402 194.148 305.876 194.371 305.258 194.371C304.639 194.371 304.114 194.148 303.681 193.703ZM436.439 194C432.729 194 430.873 192.145 430.873 188.434V174.518L434.398 172.848H434.584V188.434C434.584 189.918 435.202 190.66 436.439 190.66H440.707C441.944 190.66 442.562 189.918 442.562 188.434V174.518L446.088 172.848H446.273V188.434C446.273 189.918 446.892 190.66 448.129 190.66H452.396C453.633 190.66 454.252 189.918 454.252 188.434V174.518L457.777 172.848H457.963V188.434C457.963 192.145 456.107 194 452.396 194H448.129C446.422 194 445.185 193.542 444.418 192.627C443.602 193.542 442.365 194 440.707 194H436.439ZM468.168 190.66H472.064C473.301 190.66 473.92 189.918 473.92 188.434V185.892C473.92 184.407 473.301 183.665 472.064 183.665H468.168C466.931 183.665 466.312 184.407 466.312 185.892V188.434C466.312 189.918 466.931 190.66 468.168 190.66ZM468.168 194C464.457 194 462.602 192.145 462.602 188.434V185.892C462.602 182.181 464.457 180.325 468.168 180.325H472.064C472.708 180.325 473.326 180.511 473.92 180.882V179.156C473.92 177.672 473.301 176.93 472.064 176.93H465.422V176.744L466.906 173.59H472.064C475.775 173.59 477.631 175.445 477.631 179.156V193.072L474.105 194.742H473.92V193.443C473.45 193.814 472.831 194 472.064 194H468.168ZM484.403 169.489C483.97 169.044 483.754 168.512 483.754 167.894C483.754 167.263 483.97 166.725 484.403 166.279C484.836 165.834 485.362 165.611 485.98 165.611C486.599 165.611 487.125 165.834 487.558 166.279C487.991 166.725 488.207 167.263 488.207 167.894C488.207 168.512 487.991 169.044 487.558 169.489C487.125 169.935 486.599 170.157 485.98 170.157C485.362 170.157 484.836 169.935 484.403 169.489ZM484.125 194.742V174.518L487.65 172.848H487.836V193.072L484.311 194.742H484.125ZM496.779 194.742V176.967H492.011V176.781L493.514 173.59H496.779V166.91L500.305 165.24H500.49V173.59H505.259V173.775L503.756 176.967H500.49V193.072L496.965 194.742H496.779ZM509.712 193.703C509.279 193.258 509.062 192.726 509.062 192.107C509.062 191.477 509.279 190.938 509.712 190.493C510.145 190.048 510.671 189.825 511.289 189.825C511.908 189.825 512.433 190.048 512.866 190.493C513.299 190.938 513.516 191.477 513.516 192.107C513.516 192.726 513.299 193.258 512.866 193.703C512.433 194.148 511.908 194.371 511.289 194.371C510.671 194.371 510.145 194.148 509.712 193.703ZM637.832 194.742V178.822H635.049V178.637L636.552 175.445H637.832V171.549C637.832 167.838 639.688 165.982 643.398 165.982H648.037V166.168L646.553 169.322H643.398C642.161 169.322 641.543 170.064 641.543 171.549V175.445H647.685V175.631L646.182 178.822H641.543V193.072L638.018 194.742H637.832ZM656.387 190.66H660.283C661.52 190.66 662.139 189.918 662.139 188.434V185.892C662.139 184.407 661.52 183.665 660.283 183.665H656.387C655.15 183.665 654.531 184.407 654.531 185.892V188.434C654.531 189.918 655.15 190.66 656.387 190.66ZM656.387 194C652.676 194 650.82 192.145 650.82 188.434V185.892C650.82 182.181 652.676 180.325 656.387 180.325H660.283C660.926 180.325 661.545 180.511 662.139 180.882V179.156C662.139 177.672 661.52 176.93 660.283 176.93H653.641V176.744L655.125 173.59H660.283C663.994 173.59 665.85 175.445 665.85 179.156V193.072L662.324 194.742H662.139V193.443C661.669 193.814 661.05 194 660.283 194H656.387ZM676.426 194C672.715 194 670.859 192.145 670.859 188.434V187.766L674.385 186.096H674.57V188.434C674.57 189.918 675.189 190.66 676.426 190.66H680.693C681.93 190.66 682.549 189.918 682.549 188.434V186.968C682.549 185.483 681.93 184.741 680.693 184.741H677.205C673.494 184.741 671.639 182.88 671.639 179.156C671.639 175.445 673.494 173.59 677.205 173.59H679.376C683.087 173.59 684.942 175.087 684.942 178.08L681.417 179.75H681.231V179.156C681.231 177.672 680.613 176.93 679.376 176.93H677.205C675.968 176.93 675.35 177.672 675.35 179.156C675.35 180.653 675.968 181.401 677.205 181.401H680.693C684.404 181.401 686.26 183.257 686.26 186.968V188.434C686.26 192.145 684.404 194 680.693 194H676.426ZM693.719 194.742V176.967H688.95V176.781L690.453 173.59H693.719V166.91L697.244 165.24H697.43V173.59H702.198V173.775L700.695 176.967H697.43V193.072L693.904 194.742H693.719ZM706.651 193.703C706.218 193.258 706.002 192.726 706.002 192.107C706.002 191.477 706.218 190.938 706.651 190.493C707.084 190.048 707.61 189.825 708.229 189.825C708.847 189.825 709.373 190.048 709.806 190.493C710.239 190.938 710.455 191.477 710.455 192.107C710.455 192.726 710.239 193.258 709.806 193.703C709.373 194.148 708.847 194.371 708.229 194.371C707.61 194.371 707.084 194.148 706.651 193.703ZM725.948 165.24H726.134C727.482 166.564 728.156 168.073 728.156 169.768C728.156 172.13 726.641 174.109 723.61 175.705L722.812 174.777C724.21 173.355 724.909 172.019 724.909 170.77C724.909 169.273 724.08 167.986 722.423 166.91L725.948 165.24ZM720.104 165.24H720.289C721.637 166.564 722.312 168.073 722.312 169.768C722.312 172.13 720.796 174.109 717.766 175.705L716.968 174.777C718.366 173.355 719.064 172.019 719.064 170.77C719.064 169.273 718.236 167.986 716.578 166.91L720.104 165.24Z"
    fill="#A8DADC"
  />
</svg>
