<svg width="820" height="360" viewBox="0 0 820 360" fill="none" xmlns="http://www.w3.org/2000/svg">
<rect width="820" height="360" fill="#1D3557"/>
<path d="M254.759 128.15C254.759 129.45 255.509 130.1 257.009 130.1H262.469C260.609 128.8 258.079 128.15 254.879 128.15H254.759ZM270.359 124.25V128.15C270.359 129.45 271.109 130.1 272.609 130.1H280.709C282.209 130.1 282.959 129.45 282.959 128.15V124.25C282.959 122.95 282.209 122.3 280.709 122.3H272.609C271.109 122.3 270.359 122.95 270.359 124.25ZM268.859 133.46C268.279 133.82 267.529 134 266.609 134H255.509C253.009 134 251.759 132.7 251.759 130.1V128.15C251.759 127.65 251.989 127.28 252.449 127.04C252.929 126.78 253.739 126.65 254.879 126.65C259.019 126.65 262.389 127.8 264.989 130.1H265.109C266.609 130.1 267.359 129.45 267.359 128.15V124.25C267.359 122.95 266.609 122.3 265.109 122.3H257.009C255.509 122.3 254.759 122.95 254.759 124.25H251.759V122.3C251.759 119.7 253.009 118.4 255.509 118.4H266.609C267.529 118.4 268.279 118.58 268.859 118.94C269.439 118.58 270.189 118.4 271.109 118.4H282.209C284.709 118.4 285.959 119.7 285.959 122.3V130.1C285.959 132.7 284.709 134 282.209 134H271.109C270.189 134 269.439 133.82 268.859 133.46ZM294.216 130.1H295.716C297.216 130.1 297.966 129.75 297.966 129.05C297.966 128.35 297.676 128 297.096 128C295.076 128 293.606 128.58 292.686 129.74C293.046 129.98 293.556 130.1 294.216 130.1ZM304.566 124.25C304.566 122.95 303.816 122.3 302.316 122.3H294.216C292.716 122.3 291.966 122.95 291.966 124.25V128.18C293.146 127.06 294.856 126.5 297.096 126.5C299.676 126.5 300.966 127.7 300.966 130.1C300.966 132.7 299.716 134 297.216 134H292.716C290.216 134 288.966 132.7 288.966 130.1V122.3C288.966 119.7 290.216 118.4 292.716 118.4H303.816C306.316 118.4 307.566 119.7 307.566 122.3V139.25C307.566 140.55 308.316 141.2 309.816 141.2H311.556V145.1H308.316C305.816 145.1 304.566 143.8 304.566 141.2V124.25ZM309.808 122.3C308.308 122.3 307.558 122.95 307.558 124.25L304.558 122.3C304.558 119.7 305.808 118.4 308.308 118.4H319.408C321.908 118.4 323.158 119.7 323.158 122.3V130.1C323.158 132.7 321.908 134 319.408 134H312.358V130.1H317.908C319.408 130.1 320.158 129.45 320.158 128.15V124.25C320.158 122.95 319.408 122.3 317.908 122.3H309.808ZM331.394 122.3C329.894 122.3 329.144 122.95 329.144 124.25V128.15C329.144 129.45 329.894 130.1 331.394 130.1H339.494C340.994 130.1 341.744 129.45 341.744 128.15V124.25C341.744 122.95 340.994 122.3 339.494 122.3H331.394ZM340.994 118.4C343.494 118.4 344.744 119.7 344.744 122.3V130.1C344.744 132.7 343.494 134 340.994 134H329.894C327.394 134 326.144 132.7 326.144 130.1V122.3C326.144 119.7 327.394 118.4 329.894 118.4H340.994ZM356.285 130.1C355.385 128.7 353.825 128 351.605 128C351.025 128 350.735 128.35 350.735 129.05C350.735 129.75 351.485 130.1 352.985 130.1H356.285ZM358.715 134V145.1H355.715V134H351.485C348.985 134 347.735 132.7 347.735 130.1C347.735 127.7 349.025 126.5 351.605 126.5C354.885 126.5 357.035 127.7 358.055 130.1H361.085C362.585 130.1 363.335 129.75 363.335 129.05C363.335 128.17 361.185 127.29 356.885 126.41C352.785 125.63 350.735 124.26 350.735 122.3C350.735 119.7 351.985 118.4 354.485 118.4H359.585C362.085 118.4 363.335 119.7 363.335 122.3L360.335 124.25C360.335 122.95 359.585 122.3 358.085 122.3H355.985C354.485 122.3 353.735 122.65 353.735 123.35C353.735 123.95 354.885 124.48 357.185 124.94C363.285 126.18 366.335 127.9 366.335 130.1C366.335 132.7 365.085 134 362.585 134H358.715ZM353.577 110.9C352.077 110.9 351.327 111.45 351.327 112.55C351.327 113.65 352.077 114.2 353.577 114.2H357.027V117.8H352.077C349.577 117.8 348.327 116.5 348.327 113.9V111.2C348.327 108.6 349.577 107.3 352.077 107.3H361.977C364.477 107.3 365.727 108.6 365.727 111.2L362.727 112.55C362.727 111.45 361.977 110.9 360.477 110.9H353.577ZM265.144 183.74C264.224 182.58 262.754 182 260.734 182C260.154 182 259.864 182.35 259.864 183.05C259.864 183.75 260.614 184.1 262.114 184.1H263.614C264.274 184.1 264.784 183.98 265.144 183.74ZM251.764 172.94C252.344 172.58 253.094 172.4 254.014 172.4H265.114C267.614 172.4 268.864 173.7 268.864 176.3V184.1C268.864 186.7 267.614 188 265.114 188H260.614C258.114 188 256.864 186.7 256.864 184.1C256.864 181.7 258.154 180.5 260.734 180.5C262.974 180.5 264.684 181.06 265.864 182.18V178.25C265.864 176.95 265.114 176.3 263.614 176.3H255.514C254.614 176.3 253.804 176.53 253.084 176.99C252.564 178.07 250.824 179.14 247.864 180.2C251.464 181.5 253.264 182.8 253.264 184.1C253.264 186.7 252.014 188 249.514 188H238.414C235.914 188 234.664 186.7 234.664 184.1V182.15H237.664C237.664 183.45 238.414 184.1 239.914 184.1H248.014C248.414 184.1 248.614 184.03 248.614 183.89C248.614 183.49 247.164 182.58 244.264 181.16V179.21C247.164 177.79 248.614 176.89 248.614 176.51C248.614 176.37 248.414 176.3 248.014 176.3H239.914C238.414 176.3 237.664 176.95 237.664 178.25H234.664V176.3C234.664 173.7 235.914 172.4 238.414 172.4H249.514C250.434 172.4 251.184 172.58 251.764 172.94ZM277.121 176.3C275.621 176.3 274.871 176.95 274.871 178.25V182.15C274.871 183.45 275.621 184.1 277.121 184.1H285.221C286.721 184.1 287.471 183.45 287.471 182.15H290.471V184.1C290.471 186.7 289.221 188 286.721 188H275.621C273.121 188 271.871 186.7 271.871 184.1V176.3C271.871 173.7 273.121 172.4 275.621 172.4H286.721C289.221 172.4 290.471 173.7 290.471 176.3V178.25H287.471C287.471 176.95 286.721 176.3 285.221 176.3H277.121ZM277.713 164.9C276.213 164.9 275.463 165.45 275.463 166.55C275.463 167.65 276.213 168.2 277.713 168.2H281.163V171.8H276.213C273.713 171.8 272.463 170.5 272.463 167.9V165.2C272.463 162.6 273.713 161.3 276.213 161.3H286.113C288.613 161.3 289.863 162.6 289.863 165.2L286.863 166.55C286.863 165.45 286.113 164.9 284.613 164.9H277.713ZM305.103 188V184.1H306.813C308.313 184.1 309.063 183.45 309.063 182.15V178.25C309.063 176.95 308.313 176.3 306.813 176.3H298.713C297.213 176.3 296.463 176.95 296.463 178.25V182.15C296.463 183.45 297.213 184.1 298.713 184.1H300.453V188H297.213C294.713 188 293.463 186.7 293.463 184.1V176.3C293.463 173.7 294.713 172.4 297.213 172.4H308.313C310.813 172.4 312.063 173.7 312.063 176.3V184.1C312.063 186.7 310.813 188 308.313 188H305.103ZM309.955 193.25C309.955 194.55 310.705 195.2 312.205 195.2H312.805C314.305 195.2 315.055 194.55 315.055 193.25V172.4H318.055V195.2C318.055 197.8 316.805 199.1 314.305 199.1H310.705C308.205 199.1 306.955 197.8 306.955 195.2V188.6H309.955V193.25ZM326.311 176.3C324.811 176.3 324.061 176.95 324.061 178.25V182.15C324.061 183.45 324.811 184.1 326.311 184.1H334.411C335.911 184.1 336.661 183.45 336.661 182.15H339.661V184.1C339.661 186.7 338.411 188 335.911 188H324.811C322.311 188 321.061 186.7 321.061 184.1V176.3C321.061 173.7 322.311 172.4 324.811 172.4H335.911C338.411 172.4 339.661 173.7 339.661 176.3V178.25H336.661C336.661 176.95 335.911 176.3 334.411 176.3H326.311ZM326.902 164.9C325.402 164.9 324.652 165.45 324.652 166.55C324.652 167.65 325.402 168.2 326.902 168.2H330.352V171.8H325.402C322.902 171.8 321.652 170.5 321.652 167.9V165.2C321.652 162.6 322.902 161.3 325.402 161.3H335.302C337.802 161.3 339.052 162.6 339.052 165.2L336.052 166.55C336.052 165.45 335.302 164.9 333.802 164.9H326.902ZM351.202 184.1C350.302 182.7 348.742 182 346.522 182C345.942 182 345.652 182.35 345.652 183.05C345.652 183.75 346.402 184.1 347.902 184.1H351.202ZM353.632 188V199.1H350.632V188H346.402C343.902 188 342.652 186.7 342.652 184.1C342.652 181.7 343.942 180.5 346.522 180.5C349.802 180.5 351.952 181.7 352.972 184.1H356.002C357.502 184.1 358.252 183.75 358.252 183.05C358.252 182.17 356.102 181.29 351.802 180.41C347.702 179.63 345.652 178.26 345.652 176.3C345.652 173.7 346.902 172.4 349.402 172.4H354.502C357.002 172.4 358.252 173.7 358.252 176.3L355.252 178.25C355.252 176.95 354.502 176.3 353.002 176.3H350.902C349.402 176.3 348.652 176.65 348.652 177.35C348.652 177.95 349.802 178.48 352.102 178.94C358.202 180.18 361.252 181.9 361.252 184.1C361.252 186.7 360.002 188 357.502 188H353.632ZM357.584 167.51C357.624 167.21 357.644 166.89 357.644 166.55C357.644 165.45 356.894 164.9 355.394 164.9H348.494C346.994 164.9 346.244 165.45 346.244 166.55C346.244 166.89 346.264 167.21 346.304 167.51C347.824 166.95 349.704 166.67 351.944 166.67C354.184 166.67 356.064 166.95 357.584 167.51ZM346.904 169.04C347.284 169.48 347.814 169.7 348.494 169.7H355.394C356.074 169.7 356.604 169.48 356.984 169.04C355.684 168.46 354.004 168.17 351.944 168.17C349.884 168.17 348.204 168.46 346.904 169.04ZM356.894 161.3C359.394 161.3 360.644 162.6 360.644 165.2V167.9C360.644 170.5 359.394 171.8 356.894 171.8H346.994C344.494 171.8 343.244 170.5 343.244 167.9V165.2C343.244 162.6 344.494 161.3 346.994 161.3H356.894ZM382.844 182.15C382.844 183.45 383.594 184.1 385.094 184.1H393.194C394.694 184.1 395.444 183.45 395.444 182.15V178.25C395.444 176.95 394.694 176.3 393.194 176.3H387.644V172.4H394.694C397.194 172.4 398.444 173.7 398.444 176.3V184.1C398.444 186.7 397.194 188 394.694 188H383.594C382.674 188 381.924 187.82 381.344 187.46C380.764 187.82 380.014 188 379.094 188H367.994C365.494 188 364.244 186.7 364.244 184.1V176.3C364.244 173.7 365.494 172.4 367.994 172.4H371.234V176.3H369.494C367.994 176.3 367.244 176.95 367.244 178.25V182.15C367.244 183.45 367.994 184.1 369.494 184.1H377.594C379.094 184.1 379.844 183.45 379.844 182.15V178.25C379.844 176.95 379.094 176.3 377.594 176.3H375.884V172.4H379.094C381.594 172.4 382.844 173.7 382.844 176.3V182.15ZM400.701 176.3C399.201 176.3 398.451 176.95 398.451 178.25L395.451 176.3C395.451 173.7 396.701 172.4 399.201 172.4H410.301C412.801 172.4 414.051 173.7 414.051 176.3V184.1C414.051 186.7 412.801 188 410.301 188H403.251V184.1H408.801C410.301 184.1 411.051 183.45 411.051 182.15V178.25C411.051 176.95 410.301 176.3 408.801 176.3H400.701Z" fill="#457B9D"/>
<path d="M382.197 130.1C384.797 127.8 388.167 126.65 392.307 126.65C393.447 126.65 394.247 126.78 394.707 127.04C395.187 127.28 395.427 127.65 395.427 128.15V130.1C395.427 132.7 394.177 134 391.677 134H380.577C378.077 134 376.827 132.7 376.827 130.1V122.3C376.827 119.7 378.077 118.4 380.577 118.4H391.677C394.177 118.4 395.427 119.7 395.427 122.3V124.25H392.427C392.427 122.95 391.677 122.3 390.177 122.3H382.077C380.577 122.3 379.827 122.95 379.827 124.25V128.15C379.827 129.45 380.577 130.1 382.077 130.1H382.197ZM392.307 128.15C389.107 128.15 386.577 128.8 384.717 130.1H390.177C391.677 130.1 392.427 129.45 392.427 128.15H392.307ZM401.419 128.15C401.419 129.45 402.169 130.1 403.669 130.1H409.129C407.269 128.8 404.739 128.15 401.539 128.15H401.419ZM417.019 124.25V128.15C417.019 129.45 417.769 130.1 419.269 130.1H427.369C428.869 130.1 429.619 129.45 429.619 128.15V124.25C429.619 122.95 428.869 122.3 427.369 122.3H419.269C417.769 122.3 417.019 122.95 417.019 124.25ZM415.519 133.46C414.939 133.82 414.189 134 413.269 134H402.169C399.669 134 398.419 132.7 398.419 130.1V128.15C398.419 127.65 398.649 127.28 399.109 127.04C399.589 126.78 400.399 126.65 401.539 126.65C405.679 126.65 409.049 127.8 411.649 130.1H411.769C413.269 130.1 414.019 129.45 414.019 128.15V124.25C414.019 122.95 413.269 122.3 411.769 122.3H403.669C402.169 122.3 401.419 122.95 401.419 124.25H398.419V122.3C398.419 119.7 399.669 118.4 402.169 118.4H413.269C414.189 118.4 414.939 118.58 415.519 118.94C416.099 118.58 416.849 118.4 417.769 118.4H428.869C431.369 118.4 432.619 119.7 432.619 122.3V130.1C432.619 132.7 431.369 134 428.869 134H417.769C416.849 134 416.099 133.82 415.519 133.46ZM438.626 127.4C440.626 127.4 441.626 128.4 441.626 130.4C441.626 132.4 440.626 133.4 438.626 133.4C436.626 133.4 435.626 132.4 435.626 130.4C435.626 128.4 436.626 127.4 438.626 127.4ZM438.626 119C440.626 119 441.626 120 441.626 122C441.626 124 440.626 125 438.626 125C436.626 125 435.626 124 435.626 122C435.626 120 436.626 119 438.626 119ZM463.22 124.25V130.1C463.22 132.7 461.97 134 459.47 134H456.26V130.1H457.97C459.47 130.1 460.22 129.45 460.22 128.15V124.25C460.22 122.95 459.47 122.3 457.97 122.3H449.87C448.37 122.3 447.62 122.95 447.62 124.25V128.15C447.62 129.45 448.37 130.1 449.87 130.1H451.61V134H448.37C445.87 134 444.62 132.7 444.62 130.1V122.3C444.62 119.7 445.87 118.4 448.37 118.4H459.47C460.39 118.4 461.14 118.58 461.72 118.94C462.3 118.58 463.05 118.4 463.97 118.4H475.07C477.57 118.4 478.82 119.7 478.82 122.3V130.1C478.82 132.7 477.57 134 475.07 134H468.02V130.1H473.57C475.07 130.1 475.82 129.45 475.82 128.15V124.25C475.82 122.95 475.07 122.3 473.57 122.3H465.47C463.97 122.3 463.22 122.95 463.22 124.25ZM474.327 139.25C474.327 140.55 475.077 141.2 476.577 141.2H477.327V145.1H475.077C472.577 145.1 471.327 143.8 471.327 141.2V134.6H474.327V139.25ZM487.077 122.3C485.577 122.3 484.827 122.95 484.827 124.25V128.15C484.827 129.45 485.577 130.1 487.077 130.1H495.177C496.677 130.1 497.427 129.45 497.427 128.15V124.25C497.427 122.95 496.677 122.3 495.177 122.3H487.077ZM500.427 124.25V130.1C500.427 132.7 499.177 134 496.677 134H485.577C483.077 134 481.827 132.7 481.827 130.1V122.3C481.827 119.7 483.077 118.4 485.577 118.4H496.677C497.597 118.4 498.347 118.58 498.927 118.94C499.507 118.58 500.257 118.4 501.177 118.4H512.277C514.777 118.4 516.027 119.7 516.027 122.3V130.1C516.027 132.7 514.777 134 512.277 134H505.227V130.1H510.777C512.277 130.1 513.027 129.45 513.027 128.15V124.25C513.027 122.95 512.277 122.3 510.777 122.3H502.677C501.177 122.3 500.427 122.95 500.427 124.25ZM537.634 128.15C537.634 129.45 538.384 130.1 539.884 130.1H547.984C549.484 130.1 550.234 129.45 550.234 128.15V124.25C550.234 122.95 549.484 122.3 547.984 122.3H542.434V118.4H549.484C551.984 118.4 553.234 119.7 553.234 122.3V130.1C553.234 132.7 551.984 134 549.484 134H538.384C537.464 134 536.714 133.82 536.134 133.46C535.554 133.82 534.804 134 533.884 134H522.784C520.284 134 519.034 132.7 519.034 130.1V122.3C519.034 119.7 520.284 118.4 522.784 118.4H526.024V122.3H524.284C522.784 122.3 522.034 122.95 522.034 124.25V128.15C522.034 129.45 522.784 130.1 524.284 130.1H532.384C533.884 130.1 534.634 129.45 534.634 128.15V124.25C534.634 122.95 533.884 122.3 532.384 122.3H530.674V118.4H533.884C536.384 118.4 537.634 119.7 537.634 122.3V128.15ZM540.491 110.9C538.991 110.9 538.241 111.45 538.241 112.55C538.241 113.65 538.991 114.2 540.491 114.2H543.941V117.8H538.991C536.491 117.8 535.241 116.5 535.241 113.9V111.2C535.241 108.6 536.491 107.3 538.991 107.3H548.891C551.391 107.3 552.641 108.6 552.641 111.2L549.641 112.55C549.641 111.45 548.891 110.9 547.391 110.9H540.491ZM438.757 184.01C439.677 183.79 440.137 183.17 440.137 182.15V178.25C440.137 176.95 439.387 176.3 437.887 176.3H436.177C436.177 179.46 437.037 182.03 438.757 184.01ZM436.957 184.1C435.437 181.82 434.677 179.22 434.677 176.3C434.677 174.58 434.797 173.5 435.037 173.06C435.297 172.62 435.677 172.4 436.177 172.4H439.387C441.887 172.4 443.137 173.7 443.137 176.3V184.1C443.137 186.7 441.887 188 439.387 188H428.287C425.787 188 424.537 186.7 424.537 184.1V176.3C424.537 173.7 425.787 172.4 428.287 172.4H431.527V176.3H429.787C428.287 176.3 427.537 176.95 427.537 178.25V182.15C427.537 183.45 428.287 184.1 429.787 184.1H436.957ZM454.679 184.1C453.779 182.7 452.219 182 449.999 182C449.419 182 449.129 182.35 449.129 183.05C449.129 183.75 449.879 184.1 451.379 184.1H454.679ZM457.109 188V199.1H454.109V188H449.879C447.379 188 446.129 186.7 446.129 184.1C446.129 181.7 447.419 180.5 449.999 180.5C453.279 180.5 455.429 181.7 456.449 184.1H459.479C460.979 184.1 461.729 183.75 461.729 183.05C461.729 182.17 459.579 181.29 455.279 180.41C451.179 179.63 449.129 178.26 449.129 176.3C449.129 173.7 450.379 172.4 452.879 172.4H457.979C460.479 172.4 461.729 173.7 461.729 176.3L458.729 178.25C458.729 176.95 457.979 176.3 456.479 176.3H454.379C452.879 176.3 452.129 176.65 452.129 177.35C452.129 177.95 453.279 178.48 455.579 178.94C461.679 180.18 464.729 181.9 464.729 184.1C464.729 186.7 463.479 188 460.979 188H457.109ZM451.971 164.9C450.471 164.9 449.721 165.45 449.721 166.55C449.721 167.65 450.471 168.2 451.971 168.2H455.421V171.8H450.471C447.971 171.8 446.721 170.5 446.721 167.9V165.2C446.721 162.6 447.971 161.3 450.471 161.3H460.371C462.871 161.3 464.121 162.6 464.121 165.2L461.121 166.55C461.121 165.45 460.371 164.9 458.871 164.9H451.971ZM472.971 176.3C471.471 176.3 470.721 176.95 470.721 178.25V182.15C470.721 183.45 471.471 184.1 472.971 184.1H481.071C482.571 184.1 483.321 183.45 483.321 182.15V178.25C483.321 176.95 482.571 176.3 481.071 176.3H472.971ZM486.321 178.25V184.1C486.321 186.7 485.071 188 482.571 188H471.471C468.971 188 467.721 186.7 467.721 184.1V176.3C467.721 173.7 468.971 172.4 471.471 172.4H482.571C483.491 172.4 484.241 172.58 484.821 172.94C485.401 172.58 486.151 172.4 487.071 172.4H498.171C500.671 172.4 501.921 173.7 501.921 176.3V184.1C501.921 186.7 500.671 188 498.171 188H491.121V184.1H496.671C498.171 184.1 498.921 183.45 498.921 182.15V178.25C498.921 176.95 498.171 176.3 496.671 176.3H488.571C487.071 176.3 486.321 176.95 486.321 178.25ZM498.268 167.51C498.308 167.21 498.328 166.89 498.328 166.55C498.328 165.45 497.578 164.9 496.078 164.9H489.178C487.678 164.9 486.928 165.45 486.928 166.55C486.928 166.89 486.948 167.21 486.988 167.51C488.508 166.95 490.388 166.67 492.628 166.67C494.868 166.67 496.748 166.95 498.268 167.51ZM487.588 169.04C487.968 169.48 488.498 169.7 489.178 169.7H496.078C496.758 169.7 497.288 169.48 497.668 169.04C496.368 168.46 494.688 168.17 492.628 168.17C490.568 168.17 488.888 168.46 487.588 169.04ZM497.578 161.3C500.078 161.3 501.328 162.6 501.328 165.2V167.9C501.328 170.5 500.078 171.8 497.578 171.8H487.678C485.178 171.8 483.928 170.5 483.928 167.9V165.2C483.928 162.6 485.178 161.3 487.678 161.3H497.578ZM507.928 181.4C509.928 181.4 510.928 182.4 510.928 184.4C510.928 186.4 509.928 187.4 507.928 187.4C505.928 187.4 504.928 186.4 504.928 184.4C504.928 182.4 505.928 181.4 507.928 181.4ZM507.928 173C509.928 173 510.928 174 510.928 176C510.928 178 509.928 179 507.928 179C505.928 179 504.928 178 504.928 176C504.928 174 505.928 173 507.928 173ZM519.172 176.3C517.672 176.3 516.922 176.95 516.922 178.25V182.15C516.922 183.45 517.672 184.1 519.172 184.1H527.272C528.772 184.1 529.522 183.45 529.522 182.15V178.25C529.522 176.95 528.772 176.3 527.272 176.3H519.172ZM532.522 178.25V184.1C532.522 186.7 531.272 188 528.772 188H517.672C515.172 188 513.922 186.7 513.922 184.1V176.3C513.922 173.7 515.172 172.4 517.672 172.4H528.772C529.692 172.4 530.442 172.58 531.022 172.94C531.602 172.58 532.352 172.4 533.272 172.4H544.372C546.872 172.4 548.122 173.7 548.122 176.3V184.1C548.122 186.7 546.872 188 544.372 188H537.322V184.1H542.872C544.372 184.1 545.122 183.45 545.122 182.15V178.25C545.122 176.95 544.372 176.3 542.872 176.3H534.772C533.272 176.3 532.522 176.95 532.522 178.25ZM569.729 182.15C569.729 183.45 570.479 184.1 571.979 184.1H580.079C581.579 184.1 582.329 183.45 582.329 182.15V178.25C582.329 176.95 581.579 176.3 580.079 176.3H574.529V172.4H581.579C584.079 172.4 585.329 173.7 585.329 176.3V184.1C585.329 186.7 584.079 188 581.579 188H570.479C569.559 188 568.809 187.82 568.229 187.46C567.649 187.82 566.899 188 565.979 188H554.879C552.379 188 551.129 186.7 551.129 184.1V176.3C551.129 173.7 552.379 172.4 554.879 172.4H558.119V176.3H556.379C554.879 176.3 554.129 176.95 554.129 178.25V182.15C554.129 183.45 554.879 184.1 556.379 184.1H564.479C565.979 184.1 566.729 183.45 566.729 182.15V178.25C566.729 176.95 565.979 176.3 564.479 176.3H562.769V172.4H565.979C568.479 172.4 569.729 173.7 569.729 176.3V182.15ZM572.586 164.9C571.086 164.9 570.336 165.45 570.336 166.55C570.336 167.65 571.086 168.2 572.586 168.2H576.036V171.8H571.086C568.586 171.8 567.336 170.5 567.336 167.9V165.2C567.336 162.6 568.586 161.3 571.086 161.3H580.986C583.486 161.3 584.736 162.6 584.736 165.2L581.736 166.55C581.736 165.45 580.986 164.9 579.486 164.9H572.586Z" fill="#A8DADC"/>
<defs>
  <linearGradient id="left-to-right">
    <stop offset="0" stop-color="#A8DADC">
      <animate
        dur="2s"
        attributeName="offset"
        repeatCount="indefinite"
        from="0"
        to="1"
      />
    </stop>
    <stop offset="100%" stop-color="#F1FAEE">
      <animate
        dur="2s"
        attributeName="offset"
        repeatCount="indefinite"
        from="0"
        to="1"
      />
    </stop>
    <stop offset="0" stop-color="#F1FAEE">
      <animate
        dur="2s"
        attributeName="offset"
        repeatCount="indefinite"
        from="1"
        to="0"
      />
    </stop>
    <stop offset="100%" stop-color="#A8DADC">
      <animate
        dur="2s"
        attributeName="offset"
        repeatCount="indefinite"
        from="1"
        to="0"
      />
    </stop>
  </linearGradient>
</defs>
<path d="M274.288 235.31V232.25C274.288 230.95 273.538 230.3 272.038 230.3H270.328V226.4H273.538C276.038 226.4 277.288 227.7 277.288 230.3V238.1C277.288 240.7 276.038 242 273.538 242H262.438C259.938 242 258.688 240.7 258.688 238.1V230.3C258.688 227.7 259.938 226.4 262.438 226.4H265.678V230.3H263.938C262.438 230.3 261.688 230.95 261.688 232.25V235.31C263.308 234.57 265.408 234.2 267.988 234.2C270.568 234.2 272.668 234.57 274.288 235.31ZM261.898 237.17C262.218 237.79 262.898 238.1 263.938 238.1H272.038C273.078 238.1 273.758 237.79 274.078 237.17C272.698 236.19 270.668 235.7 267.988 235.7C265.308 235.7 263.278 236.19 261.898 237.17ZM285.529 230.3C284.029 230.3 283.279 230.95 283.279 232.25V236.15C283.279 237.45 284.029 238.1 285.529 238.1H293.629C295.129 238.1 295.879 237.45 295.879 236.15H298.879V238.1C298.879 240.7 297.629 242 295.129 242H284.029C281.529 242 280.279 240.7 280.279 238.1V230.3C280.279 227.7 281.529 226.4 284.029 226.4H295.129C297.629 226.4 298.879 227.7 298.879 230.3V232.25H295.879C295.879 230.95 295.129 230.3 293.629 230.3H285.529ZM286.121 218.9C284.621 218.9 283.871 219.45 283.871 220.55C283.871 221.65 284.621 222.2 286.121 222.2H289.571V225.8H284.621C282.121 225.8 280.871 224.5 280.871 221.9V219.2C280.871 216.6 282.121 215.3 284.621 215.3H294.521C297.021 215.3 298.271 216.6 298.271 219.2L295.271 220.55C295.271 219.45 294.521 218.9 293.021 218.9H286.121ZM304.871 235.4C306.871 235.4 307.871 236.4 307.871 238.4C307.871 240.4 306.871 241.4 304.871 241.4C302.871 241.4 301.871 240.4 301.871 238.4C301.871 236.4 302.871 235.4 304.871 235.4ZM304.871 227C306.871 227 307.871 228 307.871 230C307.871 232 306.871 233 304.871 233C302.871 233 301.871 232 301.871 230C301.871 228 302.871 227 304.871 227ZM329.465 232.25V238.1C329.465 240.7 328.215 242 325.715 242H314.615C312.115 242 310.865 240.7 310.865 238.1V236.15H313.865C313.865 237.45 314.615 238.1 316.115 238.1H324.215C325.715 238.1 326.465 237.45 326.465 236.15V232.25C326.465 230.95 325.715 230.3 324.215 230.3H316.115C314.615 230.3 313.865 230.95 313.865 232.25H310.865V230.3C310.865 227.7 312.115 226.4 314.615 226.4H325.715C326.635 226.4 327.385 226.58 327.965 226.94C328.545 226.58 329.295 226.4 330.215 226.4H341.315C343.815 226.4 345.065 227.7 345.065 230.3V238.1C345.065 240.7 343.815 242 341.315 242H334.265V238.1H339.815C341.315 238.1 342.065 237.45 342.065 236.15V232.25C342.065 230.95 341.315 230.3 339.815 230.3H331.715C330.215 230.3 329.465 230.95 329.465 232.25ZM347.322 230.3C345.822 230.3 345.072 230.95 345.072 232.25L342.072 230.3C342.072 227.7 343.322 226.4 345.822 226.4H356.922C359.422 226.4 360.672 227.7 360.672 230.3V238.1C360.672 240.7 359.422 242 356.922 242H349.872V238.1H355.422C356.922 238.1 357.672 237.45 357.672 236.15V232.25C357.672 230.95 356.922 230.3 355.422 230.3H347.322ZM368.908 230.3C367.408 230.3 366.658 230.95 366.658 232.25V236.15C366.658 237.45 367.408 238.1 368.908 238.1H374.458V242H367.408C364.908 242 363.658 240.7 363.658 238.1V230.3C363.658 227.7 364.908 226.4 367.408 226.4H378.508C381.008 226.4 382.258 227.7 382.258 230.3V236.15C382.258 237.45 383.008 238.1 384.508 238.1H392.608C394.108 238.1 394.858 237.45 394.858 236.15V232.25C394.858 230.95 394.108 230.3 392.608 230.3H387.058V226.4H394.108C396.608 226.4 397.858 227.7 397.858 230.3V238.1C397.858 240.7 396.608 242 394.108 242H383.008C380.508 242 379.258 240.7 379.258 238.1V232.25C379.258 230.95 378.508 230.3 377.008 230.3H368.908ZM393.365 247.25C393.365 248.55 394.115 249.2 395.615 249.2H396.365V253.1H394.115C391.615 253.1 390.365 251.8 390.365 249.2V242.6H393.365V247.25ZM415.715 226.4C418.215 226.4 419.465 227.7 419.465 230.3V238.1C419.465 240.7 418.215 242 415.715 242H404.615C402.115 242 400.865 240.7 400.865 238.1V230.3C400.865 227.7 402.115 226.4 404.615 226.4H407.855V230.3H406.115C404.615 230.3 403.865 230.95 403.865 232.25V236.15C403.865 237.45 404.615 238.1 406.115 238.1H414.215C415.715 238.1 416.465 237.45 416.465 236.15V232.25C416.465 230.95 415.715 230.3 414.215 230.3H412.505V226.4H415.715ZM406.707 218.9C405.207 218.9 404.457 219.45 404.457 220.55C404.457 221.65 405.207 222.2 406.707 222.2H410.157V225.8H405.207C402.707 225.8 401.457 224.5 401.457 221.9V219.2C401.457 216.6 402.707 215.3 405.207 215.3H415.107C417.607 215.3 418.857 216.6 418.857 219.2L415.857 220.55C415.857 219.45 415.107 218.9 413.607 218.9H406.707ZM435.207 230.3C433.707 230.3 432.957 230.95 432.957 232.25V236.15C432.957 237.45 433.707 238.1 435.207 238.1H443.307C444.807 238.1 445.557 237.45 445.557 236.15V232.25C445.557 230.95 444.807 230.3 443.307 230.3H435.207ZM448.557 232.25V238.1C448.557 240.7 447.307 242 444.807 242H433.707C431.207 242 429.957 240.7 429.957 238.1V230.3C429.957 227.7 431.207 226.4 433.707 226.4H444.807C445.727 226.4 446.477 226.58 447.057 226.94C447.637 226.58 448.387 226.4 449.307 226.4H460.407C462.907 226.4 464.157 227.7 464.157 230.3V238.1C464.157 240.7 462.907 242 460.407 242H453.357V238.1H458.907C460.407 238.1 461.157 237.45 461.157 236.15V232.25C461.157 230.95 460.407 230.3 458.907 230.3H450.807C449.307 230.3 448.557 230.95 448.557 232.25ZM472.414 230.3C470.914 230.3 470.164 230.95 470.164 232.25V236.15C470.164 237.45 470.914 238.1 472.414 238.1H480.514C482.014 238.1 482.764 237.45 482.764 236.15V232.25C482.764 230.95 482.014 230.3 480.514 230.3H472.414ZM485.764 232.25V238.1C485.764 240.7 484.514 242 482.014 242H470.914C468.414 242 467.164 240.7 467.164 238.1V230.3C467.164 227.7 468.414 226.4 470.914 226.4H482.014C482.934 226.4 483.684 226.58 484.264 226.94C484.844 226.58 485.594 226.4 486.514 226.4H497.614C500.114 226.4 501.364 227.7 501.364 230.3V238.1C501.364 240.7 500.114 242 497.614 242H490.564V238.1H496.114C497.614 238.1 498.364 237.45 498.364 236.15V232.25C498.364 230.95 497.614 230.3 496.114 230.3H488.014C486.514 230.3 485.764 230.95 485.764 232.25ZM488.621 218.9C487.121 218.9 486.371 219.45 486.371 220.55C486.371 221.65 487.121 222.2 488.621 222.2H492.071V225.8H487.121C484.621 225.8 483.371 224.5 483.371 221.9V219.2C483.371 216.6 484.621 215.3 487.121 215.3H497.021C499.521 215.3 500.771 216.6 500.771 219.2L497.771 220.55C497.771 219.45 497.021 218.9 495.521 218.9H488.621ZM509.621 230.3C508.121 230.3 507.371 230.95 507.371 232.25V236.15C507.371 237.45 508.121 238.1 509.621 238.1H515.171V242H508.121C505.621 242 504.371 240.7 504.371 238.1V230.3C504.371 227.7 505.621 226.4 508.121 226.4H519.221C521.721 226.4 522.971 227.7 522.971 230.3V236.15C522.971 237.45 523.721 238.1 525.221 238.1H533.321C534.821 238.1 535.571 237.45 535.571 236.15V232.25C535.571 230.95 534.821 230.3 533.321 230.3H527.771V226.4H534.821C537.321 226.4 538.571 227.7 538.571 230.3V238.1C538.571 240.7 537.321 242 534.821 242H523.721C521.221 242 519.971 240.7 519.971 238.1V232.25C519.971 230.95 519.221 230.3 517.721 230.3H509.621ZM523.968 217.31L526.098 215.18L534.588 223.67L532.458 225.8L523.968 217.31ZM556.638 235.49H553.248V233.66C553.248 232.86 553.338 232.27 553.518 231.89C553.718 231.49 554.138 230.97 554.778 230.33L556.968 228.14C557.428 227.64 557.658 227.02 557.658 226.28C557.658 225.54 557.418 224.93 556.938 224.45C556.458 223.95 555.838 223.7 555.078 223.7C554.318 223.7 553.678 223.94 553.158 224.42C552.658 224.88 552.368 225.5 552.288 226.28H548.658C548.858 224.5 549.548 223.11 550.728 222.11C551.928 221.09 553.418 220.58 555.198 220.58C556.978 220.58 558.428 221.07 559.548 222.05C560.668 223.01 561.228 224.36 561.228 226.1C561.228 227.3 560.898 228.3 560.238 229.1C559.858 229.58 559.568 229.92 559.368 230.12C559.168 230.32 558.898 230.58 558.558 230.9C558.238 231.2 557.958 231.47 557.718 231.71C557.498 231.93 557.318 232.12 557.178 232.28C556.818 232.72 556.638 233.34 556.638 234.14V235.49ZM554.988 242.15C554.368 242.15 553.828 241.94 553.368 241.52C552.908 241.08 552.678 240.56 552.678 239.96C552.678 239.34 552.898 238.81 553.338 238.37C553.798 237.93 554.338 237.71 554.958 237.71C555.598 237.71 556.148 237.93 556.608 238.37C557.068 238.79 557.298 239.31 557.298 239.93C557.298 240.53 557.068 241.05 556.608 241.49C556.168 241.93 555.628 242.15 554.988 242.15Z" fill="url(#left-to-right)"/>
</svg>
