<svg width="820" height="360" viewBox="0 0 820 360" fill="none" xmlns="http://www.w3.org/2000/svg">
<rect width="820" height="360" fill="white"/>
<path d="M252.69 139.685V137.475C252.69 136.738 252.265 136.37 251.415 136.37H246.825C245.975 136.37 245.55 136.738 245.55 137.475V139.685C245.55 140.422 245.975 140.79 246.825 140.79H251.415C252.265 140.79 252.69 140.422 252.69 139.685ZM254.39 139.685C254.39 140.422 254.815 140.79 255.665 140.79H260.255C261.105 140.79 261.53 140.422 261.53 139.685V137.475C261.53 136.738 261.105 136.37 260.255 136.37H255.665C254.815 136.37 254.39 136.738 254.39 137.475V139.685ZM253.54 134.466C253.869 134.262 254.294 134.16 254.815 134.16H261.105C262.522 134.16 263.23 134.897 263.23 136.37V140.79C263.23 142.263 262.522 143 261.105 143H254.815C254.294 143 253.869 142.898 253.54 142.694C253.211 142.898 252.786 143 252.265 143H245.975C244.558 143 243.85 142.263 243.85 140.79V136.37C243.85 134.897 244.558 134.16 245.975 134.16H252.265C252.786 134.16 253.211 134.262 253.54 134.466ZM256.009 129.91C255.159 129.91 254.734 130.222 254.734 130.845C254.734 131.468 255.159 131.78 256.009 131.78H259.919C260.769 131.78 261.194 131.468 261.194 130.845C261.194 130.222 260.769 129.91 259.919 129.91H256.009ZM260.769 127.87C262.186 127.87 262.894 128.607 262.894 130.08V131.61C262.894 133.083 262.186 133.82 260.769 133.82H255.159C253.742 133.82 253.034 133.083 253.034 131.61V130.08C253.034 128.607 253.742 127.87 255.159 127.87H260.769ZM260.684 145.975C260.684 146.712 261.109 147.08 261.959 147.08H262.384V149.29H261.109C259.692 149.29 258.984 148.553 258.984 147.08V143.34H260.684V145.975ZM275.474 137.475V140.79C275.474 142.263 274.766 143 273.349 143H271.53V140.79H272.499C273.349 140.79 273.774 140.422 273.774 139.685V137.475C273.774 136.738 273.349 136.37 272.499 136.37H267.909C267.059 136.37 266.634 136.738 266.634 137.475V139.685C266.634 140.422 267.059 140.79 267.909 140.79H268.895V143H267.059C265.642 143 264.934 142.263 264.934 140.79V136.37C264.934 134.897 265.642 134.16 267.059 134.16H273.349C273.87 134.16 274.295 134.262 274.624 134.466C274.953 134.262 275.378 134.16 275.899 134.16H282.189C283.606 134.16 284.314 134.897 284.314 136.37V140.79C284.314 142.263 283.606 143 282.189 143H278.194V140.79H281.339C282.189 140.79 282.614 140.422 282.614 139.685V137.475C282.614 136.738 282.189 136.37 281.339 136.37H276.749C275.899 136.37 275.474 136.738 275.474 137.475ZM277.093 129.91C276.243 129.91 275.818 130.222 275.818 130.845C275.818 131.468 276.243 131.78 277.093 131.78H279.048V133.82H276.243C274.826 133.82 274.118 133.083 274.118 131.61V130.08C274.118 128.607 274.826 127.87 276.243 127.87H281.853C283.27 127.87 283.978 128.607 283.978 130.08L282.278 130.845C282.278 130.222 281.853 129.91 281.003 129.91H277.093ZM288.993 136.37C288.143 136.37 287.718 136.738 287.718 137.475V139.685C287.718 140.422 288.143 140.79 288.993 140.79H293.583C294.433 140.79 294.858 140.422 294.858 139.685V137.475C294.858 136.738 294.433 136.37 293.583 136.37H288.993ZM296.558 137.475V140.79C296.558 142.263 295.85 143 294.433 143H288.143C286.726 143 286.018 142.263 286.018 140.79V136.37C286.018 134.897 286.726 134.16 288.143 134.16H294.433C294.954 134.16 295.379 134.262 295.708 134.466C296.037 134.262 296.462 134.16 296.983 134.16H303.273C304.69 134.16 305.398 134.897 305.398 136.37V140.79C305.398 142.263 304.69 143 303.273 143H299.278V140.79H302.423C303.273 140.79 303.698 140.422 303.698 139.685V137.475C303.698 136.738 303.273 136.37 302.423 136.37H297.833C296.983 136.37 296.558 136.738 296.558 137.475ZM311.947 140.79C311.437 139.997 310.553 139.6 309.295 139.6C308.966 139.6 308.802 139.798 308.802 140.195C308.802 140.592 309.227 140.79 310.077 140.79H311.947ZM313.324 143V149.29H311.624V143H309.227C307.81 143 307.102 142.263 307.102 140.79C307.102 139.43 307.833 138.75 309.295 138.75C311.154 138.75 312.372 139.43 312.95 140.79H314.667C315.517 140.79 315.942 140.592 315.942 140.195C315.942 139.696 314.724 139.198 312.287 138.699C309.964 138.257 308.802 137.481 308.802 136.37C308.802 134.897 309.51 134.16 310.927 134.16H313.817C315.234 134.16 315.942 134.897 315.942 136.37L314.242 137.475C314.242 136.738 313.817 136.37 312.967 136.37H311.777C310.927 136.37 310.502 136.568 310.502 136.965C310.502 137.305 311.154 137.605 312.457 137.866C315.914 138.569 317.642 139.543 317.642 140.79C317.642 142.263 316.934 143 315.517 143H313.324ZM310.412 129.91C309.562 129.91 309.137 130.222 309.137 130.845C309.137 131.468 309.562 131.78 310.412 131.78H312.367V133.82H309.562C308.146 133.82 307.437 133.083 307.437 131.61V130.08C307.437 128.607 308.146 127.87 309.562 127.87H315.172C316.589 127.87 317.297 128.607 317.297 130.08L315.597 130.845C315.597 130.222 315.172 129.91 314.322 129.91H310.412ZM322.312 136.37C321.462 136.37 321.037 136.738 321.037 137.475V139.685C321.037 140.422 321.462 140.79 322.312 140.79H326.902C327.752 140.79 328.177 140.422 328.177 139.685V137.475C328.177 136.738 327.752 136.37 326.902 136.37H322.312ZM329.877 137.475V140.79C329.877 142.263 329.169 143 327.752 143H321.462C320.046 143 319.337 142.263 319.337 140.79V136.37C319.337 134.897 320.046 134.16 321.462 134.16H327.752C328.274 134.16 328.699 134.262 329.027 134.466C329.356 134.262 329.781 134.16 330.302 134.16H336.592C338.009 134.16 338.717 134.897 338.717 136.37V140.79C338.717 142.263 338.009 143 336.592 143H332.597V140.79H335.742C336.592 140.79 337.017 140.422 337.017 139.685V137.475C337.017 136.738 336.592 136.37 335.742 136.37H331.152C330.302 136.37 329.877 136.738 329.877 137.475ZM330.442 129.009L331.649 127.802L336.46 132.613L335.253 133.82L330.442 129.009ZM333.451 143.34C334.585 143.34 335.151 143.907 335.151 145.04C335.151 146.173 334.585 146.74 333.451 146.74C332.318 146.74 331.751 146.173 331.751 145.04C331.751 143.907 332.318 143.34 333.451 143.34ZM347.646 140.79H348.496C349.346 140.79 349.771 140.592 349.771 140.195C349.771 139.798 349.607 139.6 349.278 139.6C348.134 139.6 347.301 139.929 346.779 140.586C346.983 140.722 347.272 140.79 347.646 140.79ZM353.511 137.475C353.511 136.738 353.086 136.37 352.236 136.37H347.646C346.796 136.37 346.371 136.738 346.371 137.475V139.702C347.04 139.067 348.009 138.75 349.278 138.75C350.74 138.75 351.471 139.43 351.471 140.79C351.471 142.263 350.763 143 349.346 143H346.796C345.38 143 344.671 142.263 344.671 140.79V136.37C344.671 134.897 345.38 134.16 346.796 134.16H353.086C354.503 134.16 355.211 134.897 355.211 136.37V145.975C355.211 146.712 355.636 147.08 356.486 147.08H357.472V149.29H355.636C354.22 149.29 353.511 148.553 353.511 147.08V137.475ZM359.882 136.37C359.032 136.37 358.607 136.738 358.607 137.475V139.685C358.607 140.422 359.032 140.79 359.882 140.79H364.472C365.322 140.79 365.747 140.422 365.747 139.685H367.447V140.79C367.447 142.263 366.738 143 365.322 143H359.032C357.615 143 356.907 142.263 356.907 140.79V136.37C356.907 134.897 357.615 134.16 359.032 134.16H365.322C366.738 134.16 367.447 134.897 367.447 136.37V137.475H365.747C365.747 136.738 365.322 136.37 364.472 136.37H359.882ZM360.217 129.91C359.367 129.91 358.942 130.222 358.942 130.845C358.942 131.468 359.367 131.78 360.217 131.78H362.172V133.82H359.367C357.95 133.82 357.242 133.083 357.242 131.61V130.08C357.242 128.607 357.95 127.87 359.367 127.87H364.977C366.394 127.87 367.102 128.607 367.102 130.08L365.402 130.845C365.402 130.222 364.977 129.91 364.127 129.91H360.217ZM370.842 139.26C371.975 139.26 372.542 139.827 372.542 140.96C372.542 142.093 371.975 142.66 370.842 142.66C369.709 142.66 369.142 142.093 369.142 140.96C369.142 139.827 369.709 139.26 370.842 139.26ZM370.842 134.5C371.975 134.5 372.542 135.067 372.542 136.2C372.542 137.333 371.975 137.9 370.842 137.9C369.709 137.9 369.142 137.333 369.142 136.2C369.142 135.067 369.709 134.5 370.842 134.5ZM379.084 140.79C378.574 139.997 377.69 139.6 376.432 139.6C376.103 139.6 375.939 139.798 375.939 140.195C375.939 140.592 376.364 140.79 377.214 140.79H379.084ZM376.364 143C374.947 143 374.239 142.263 374.239 140.79C374.239 139.43 374.97 138.75 376.432 138.75C378.29 138.75 379.509 139.43 380.087 140.79H381.804C382.654 140.79 383.079 140.592 383.079 140.195C383.079 139.696 381.86 139.198 379.424 138.699C377.1 138.257 375.939 137.481 375.939 136.37C375.939 134.897 376.647 134.16 378.064 134.16H380.954C382.37 134.16 383.079 134.897 383.079 136.37L381.379 137.475C381.379 136.738 380.954 136.37 380.104 136.37H378.914C378.064 136.37 377.639 136.568 377.639 136.965C377.639 137.305 378.29 137.605 379.594 137.866C383.05 138.569 384.779 139.543 384.779 140.79C384.779 142.263 384.07 143 382.654 143H376.364ZM380.524 143.34H382.224V147.08C382.224 148.553 381.516 149.29 380.099 149.29H378.824V147.08H379.249C380.099 147.08 380.524 146.712 380.524 145.975V143.34ZM382.7 131.389C382.723 131.219 382.734 131.038 382.734 130.845C382.734 130.222 382.309 129.91 381.459 129.91H377.549C376.699 129.91 376.274 130.222 376.274 130.845C376.274 131.038 376.285 131.219 376.308 131.389C377.169 131.072 378.235 130.913 379.504 130.913C380.773 130.913 381.839 131.072 382.7 131.389ZM376.648 132.256C376.863 132.505 377.164 132.63 377.549 132.63H381.459C381.844 132.63 382.145 132.505 382.36 132.256C381.623 131.927 380.671 131.763 379.504 131.763C378.337 131.763 377.385 131.927 376.648 132.256ZM382.309 127.87C383.726 127.87 384.434 128.607 384.434 130.08V131.61C384.434 133.083 383.726 133.82 382.309 133.82H376.699C375.282 133.82 374.574 133.083 374.574 131.61V130.08C374.574 128.607 375.282 127.87 376.699 127.87H382.309ZM388.174 139.26C389.307 139.26 389.874 139.827 389.874 140.96C389.874 142.093 389.307 142.66 388.174 142.66C387.041 142.66 386.474 142.093 386.474 140.96C386.474 139.827 387.041 139.26 388.174 139.26ZM388.174 134.5C389.307 134.5 389.874 135.067 389.874 136.2C389.874 137.333 389.307 137.9 388.174 137.9C387.041 137.9 386.474 137.333 386.474 136.2C386.474 135.067 387.041 134.5 388.174 134.5ZM400.411 139.209V137.475C400.411 136.738 399.986 136.37 399.136 136.37H398.167V134.16H399.986C401.402 134.16 402.111 134.897 402.111 136.37V140.79C402.111 142.263 401.402 143 399.986 143H393.696C392.279 143 391.571 142.263 391.571 140.79V136.37C391.571 134.897 392.279 134.16 393.696 134.16H395.532V136.37H394.546C393.696 136.37 393.271 136.738 393.271 137.475V139.209C394.189 138.79 395.379 138.58 396.841 138.58C398.303 138.58 399.493 138.79 400.411 139.209ZM393.39 140.263C393.571 140.614 393.956 140.79 394.546 140.79H399.136C399.725 140.79 400.11 140.614 400.292 140.263C399.51 139.708 398.359 139.43 396.841 139.43C395.322 139.43 394.172 139.708 393.39 140.263ZM394.711 143.34H396.411V147.08C396.411 148.553 395.703 149.29 394.286 149.29H393.011V147.08H393.436C394.286 147.08 394.711 146.712 394.711 145.975V143.34ZM398.961 145.975C398.961 146.712 399.386 147.08 400.236 147.08H400.661V149.29H399.386C397.969 149.29 397.261 148.553 397.261 147.08V143.34H398.961V145.975ZM406.849 140.79C408.322 139.487 410.232 138.835 412.578 138.835C413.224 138.835 413.677 138.909 413.938 139.056C414.21 139.192 414.346 139.402 414.346 139.685V140.79C414.346 142.263 413.638 143 412.221 143H405.931C404.514 143 403.806 142.263 403.806 140.79V136.37C403.806 134.897 404.514 134.16 405.931 134.16H412.221C413.638 134.16 414.346 134.897 414.346 136.37V137.475H412.646C412.646 136.738 412.221 136.37 411.371 136.37H406.781C405.931 136.37 405.506 136.738 405.506 137.475V139.685C405.506 140.422 405.931 140.79 406.781 140.79H406.849ZM412.578 139.685C410.765 139.685 409.331 140.053 408.277 140.79H411.371C412.221 140.79 412.646 140.422 412.646 139.685H412.578ZM419.016 136.37C418.166 136.37 417.741 136.738 417.741 137.475V139.685C417.741 140.422 418.166 140.79 419.016 140.79H423.606C424.456 140.79 424.881 140.422 424.881 139.685V137.475C424.881 136.738 424.456 136.37 423.606 136.37H419.016ZM426.581 137.475V140.79C426.581 142.263 425.873 143 424.456 143H418.166C416.75 143 416.041 142.263 416.041 140.79V136.37C416.041 134.897 416.75 134.16 418.166 134.16H424.456C424.978 134.16 425.403 134.262 425.731 134.466C426.06 134.262 426.485 134.16 427.006 134.16H433.296C434.713 134.16 435.421 134.897 435.421 136.37V140.79C435.421 142.263 434.713 143 433.296 143H429.301V140.79H432.446C433.296 140.79 433.721 140.422 433.721 139.685V137.475C433.721 136.738 433.296 136.37 432.446 136.37H427.856C427.006 136.37 426.581 136.738 426.581 137.475ZM436.7 136.37C435.85 136.37 435.425 136.738 435.425 137.475L433.725 136.37C433.725 134.897 434.434 134.16 435.85 134.16H442.14C443.557 134.16 444.265 134.897 444.265 136.37V140.79C444.265 142.263 443.557 143 442.14 143H438.145V140.79H441.29C442.14 140.79 442.565 140.422 442.565 139.685V137.475C442.565 136.738 442.14 136.37 441.29 136.37H436.7ZM438.987 143.34C440.121 143.34 440.687 143.907 440.687 145.04C440.687 146.173 440.121 146.74 438.987 146.74C437.854 146.74 437.287 146.173 437.287 145.04C437.287 143.907 437.854 143.34 438.987 143.34ZM453.182 140.79H454.032C454.882 140.79 455.307 140.592 455.307 140.195C455.307 139.798 455.143 139.6 454.814 139.6C453.67 139.6 452.837 139.929 452.315 140.586C452.519 140.722 452.808 140.79 453.182 140.79ZM459.047 137.475C459.047 136.738 458.622 136.37 457.772 136.37H453.182C452.332 136.37 451.907 136.738 451.907 137.475V139.702C452.576 139.067 453.545 138.75 454.814 138.75C456.276 138.75 457.007 139.43 457.007 140.79C457.007 142.263 456.299 143 454.882 143H452.332C450.916 143 450.207 142.263 450.207 140.79V136.37C450.207 134.897 450.916 134.16 452.332 134.16H458.622C460.039 134.16 460.747 134.897 460.747 136.37V145.975C460.747 146.712 461.172 147.08 462.022 147.08H463.008V149.29H461.172C459.756 149.29 459.047 148.553 459.047 147.08V137.475ZM456.493 143.34H458.193V147.08C458.193 148.553 457.484 149.29 456.068 149.29H454.793V147.08H455.218C456.068 147.08 456.493 146.712 456.493 145.975V143.34ZM453.518 129.91C452.668 129.91 452.243 130.222 452.243 130.845C452.243 131.468 452.668 131.78 453.518 131.78H457.428C458.278 131.78 458.703 131.468 458.703 130.845C458.703 130.222 458.278 129.91 457.428 129.91H453.518ZM458.278 127.87C459.694 127.87 460.403 128.607 460.403 130.08V131.61C460.403 133.083 459.694 133.82 458.278 133.82H452.668C451.251 133.82 450.543 133.083 450.543 131.61V130.08C450.543 128.607 451.251 127.87 452.668 127.87H458.278ZM465.418 140.79H466.268C467.118 140.79 467.543 140.592 467.543 140.195C467.543 139.798 467.378 139.6 467.05 139.6C465.905 139.6 465.072 139.929 464.551 140.586C464.755 140.722 465.044 140.79 465.418 140.79ZM471.283 137.475C471.283 136.738 470.858 136.37 470.008 136.37H465.418C464.568 136.37 464.143 136.738 464.143 137.475V139.702C464.811 139.067 465.78 138.75 467.05 138.75C468.512 138.75 469.243 139.43 469.243 140.79C469.243 142.263 468.534 143 467.118 143H464.568C463.151 143 462.443 142.263 462.443 140.79V136.37C462.443 134.897 463.151 134.16 464.568 134.16H470.858C472.274 134.16 472.983 134.897 472.983 136.37V145.975C472.983 146.712 473.408 147.08 474.258 147.08H475.244V149.29H473.408C471.991 149.29 471.283 148.553 471.283 147.08V137.475ZM483.518 139.209V137.475C483.518 136.738 483.093 136.37 482.243 136.37H481.274V134.16H483.093C484.51 134.16 485.218 134.897 485.218 136.37V140.79C485.218 142.263 484.51 143 483.093 143H476.803C475.386 143 474.678 142.263 474.678 140.79V136.37C474.678 134.897 475.386 134.16 476.803 134.16H478.639V136.37H477.653C476.803 136.37 476.378 136.738 476.378 137.475V139.209C477.296 138.79 478.486 138.58 479.948 138.58C481.41 138.58 482.6 138.79 483.518 139.209ZM476.497 140.263C476.678 140.614 477.064 140.79 477.653 140.79H482.243C482.832 140.79 483.218 140.614 483.399 140.263C482.617 139.708 481.467 139.43 479.948 139.43C478.429 139.43 477.279 139.708 476.497 140.263ZM497.453 139.685C497.453 140.422 497.878 140.79 498.728 140.79H503.318C504.168 140.79 504.593 140.422 504.593 139.685V137.475C504.593 136.738 504.168 136.37 503.318 136.37H500.173V134.16H504.168C505.585 134.16 506.293 134.897 506.293 136.37V140.79C506.293 142.263 505.585 143 504.168 143H497.878C497.357 143 496.932 142.898 496.603 142.694C496.275 142.898 495.85 143 495.328 143H489.038C487.622 143 486.913 142.263 486.913 140.79V136.37C486.913 134.897 487.622 134.16 489.038 134.16H490.874V136.37H489.888C489.038 136.37 488.613 136.738 488.613 137.475V139.685C488.613 140.422 489.038 140.79 489.888 140.79H494.478C495.328 140.79 495.753 140.422 495.753 139.685V137.475C495.753 136.738 495.328 136.37 494.478 136.37H493.509V134.16H495.328C496.745 134.16 497.453 134.897 497.453 136.37V139.685ZM499.072 129.91C498.222 129.91 497.797 130.222 497.797 130.845C497.797 131.468 498.222 131.78 499.072 131.78H501.027V133.82H498.222C496.806 133.82 496.097 133.083 496.097 131.61V130.08C496.097 128.607 496.806 127.87 498.222 127.87H503.832C505.249 127.87 505.957 128.607 505.957 130.08L504.257 130.845C504.257 130.222 503.832 129.91 502.982 129.91H499.072ZM252.69 176.209V174.475C252.69 173.738 252.265 173.37 251.415 173.37H250.446V171.16H252.265C253.682 171.16 254.39 171.897 254.39 173.37V177.79C254.39 179.263 253.682 180 252.265 180H245.975C244.558 180 243.85 179.263 243.85 177.79V173.37C243.85 171.897 244.558 171.16 245.975 171.16H247.811V173.37H246.825C245.975 173.37 245.55 173.738 245.55 174.475V176.209C246.468 175.79 247.658 175.58 249.12 175.58C250.582 175.58 251.772 175.79 252.69 176.209ZM245.669 177.263C245.85 177.614 246.236 177.79 246.825 177.79H251.415C252.004 177.79 252.39 177.614 252.571 177.263C251.789 176.708 250.639 176.43 249.12 176.43C247.601 176.43 246.451 176.708 245.669 177.263ZM266.625 176.685C266.625 177.422 267.05 177.79 267.9 177.79H272.49C273.34 177.79 273.765 177.422 273.765 176.685V174.475C273.765 173.738 273.34 173.37 272.49 173.37H269.345V171.16H273.34C274.757 171.16 275.465 171.897 275.465 173.37V177.79C275.465 179.263 274.757 180 273.34 180H267.05C266.529 180 266.104 179.898 265.775 179.694C265.447 179.898 265.022 180 264.5 180H258.21C256.794 180 256.085 179.263 256.085 177.79V173.37C256.085 171.897 256.794 171.16 258.21 171.16H260.046V173.37H259.06C258.21 173.37 257.785 173.738 257.785 174.475V176.685C257.785 177.422 258.21 177.79 259.06 177.79H263.65C264.5 177.79 264.925 177.422 264.925 176.685V174.475C264.925 173.738 264.5 173.37 263.65 173.37H262.681V171.16H264.5C265.917 171.16 266.625 171.897 266.625 173.37V176.685ZM272.919 182.975C272.919 183.712 273.344 184.08 274.194 184.08H274.619V186.29H273.344C271.928 186.29 271.219 185.553 271.219 184.08V180.34H272.919V182.975ZM280.144 173.37C279.294 173.37 278.869 173.738 278.869 174.475V176.685C278.869 177.422 279.294 177.79 280.144 177.79H284.734C285.584 177.79 286.009 177.422 286.009 176.685V174.475C286.009 173.738 285.584 173.37 284.734 173.37H280.144ZM287.709 174.475V177.79C287.709 179.263 287.001 180 285.584 180H279.294C277.878 180 277.169 179.263 277.169 177.79V173.37C277.169 171.897 277.878 171.16 279.294 171.16H285.584C286.106 171.16 286.531 171.262 286.859 171.466C287.188 171.262 287.613 171.16 288.134 171.16H294.424C295.841 171.16 296.549 171.897 296.549 173.37V177.79C296.549 179.263 295.841 180 294.424 180H290.429V177.79H293.574C294.424 177.79 294.849 177.422 294.849 176.685V174.475C294.849 173.738 294.424 173.37 293.574 173.37H288.984C288.134 173.37 287.709 173.738 287.709 174.475ZM289.328 166.91C288.478 166.91 288.053 167.222 288.053 167.845C288.053 168.468 288.478 168.78 289.328 168.78H291.283V170.82H288.478C287.062 170.82 286.353 170.083 286.353 168.61V167.08C286.353 165.607 287.062 164.87 288.478 164.87H294.088C295.505 164.87 296.213 165.607 296.213 167.08L294.513 167.845C294.513 167.222 294.088 166.91 293.238 166.91H289.328ZM307.093 176.209V174.475C307.093 173.738 306.668 173.37 305.818 173.37H304.849V171.16H306.668C308.085 171.16 308.793 171.897 308.793 173.37V177.79C308.793 179.263 308.085 180 306.668 180H300.378C298.962 180 298.253 179.263 298.253 177.79V173.37C298.253 171.897 298.962 171.16 300.378 171.16H302.214V173.37H301.228C300.378 173.37 299.953 173.738 299.953 174.475V176.209C300.871 175.79 302.061 175.58 303.523 175.58C304.985 175.58 306.175 175.79 307.093 176.209ZM300.072 177.263C300.254 177.614 300.639 177.79 301.228 177.79H305.818C306.408 177.79 306.793 177.614 306.974 177.263C306.192 176.708 305.042 176.43 303.523 176.43C302.005 176.43 300.854 176.708 300.072 177.263ZM313.464 173.37C312.614 173.37 312.189 173.738 312.189 174.475V176.685C312.189 177.422 312.614 177.79 313.464 177.79H316.609V180H312.614C311.197 180 310.489 179.263 310.489 177.79V173.37C310.489 171.897 311.197 171.16 312.614 171.16H318.904C320.32 171.16 321.029 171.897 321.029 173.37V176.685C321.029 177.422 321.454 177.79 322.304 177.79H326.894C327.744 177.79 328.169 177.422 328.169 176.685V174.475C328.169 173.738 327.744 173.37 326.894 173.37H323.749V171.16H327.744C329.16 171.16 329.869 171.897 329.869 173.37V177.79C329.869 179.263 329.16 180 327.744 180H321.454C320.037 180 319.329 179.263 319.329 177.79V174.475C319.329 173.738 318.904 173.37 318.054 173.37H313.464ZM323.583 182.176C322.733 182.176 322.308 182.482 322.308 183.094V183.519C322.308 184.142 322.733 184.454 323.583 184.454H325.623C326.473 184.454 326.898 184.142 326.898 183.519V183.094C326.898 182.482 326.473 182.176 325.623 182.176H323.583ZM326.473 180.34C327.889 180.34 328.598 180.952 328.598 182.176V184.454C328.598 185.678 327.889 186.29 326.473 186.29H322.733C321.316 186.29 320.608 185.678 320.608 184.454V182.176C320.608 180.952 321.316 180.34 322.733 180.34H326.473ZM336.418 177.79C335.908 176.997 335.024 176.6 333.766 176.6C333.437 176.6 333.273 176.798 333.273 177.195C333.273 177.592 333.698 177.79 334.548 177.79H336.418ZM337.795 180V186.29H336.095V180H333.698C332.281 180 331.573 179.263 331.573 177.79C331.573 176.43 332.304 175.75 333.766 175.75C335.624 175.75 336.843 176.43 337.421 177.79H339.138C339.988 177.79 340.413 177.592 340.413 177.195C340.413 176.696 339.194 176.198 336.758 175.699C334.434 175.257 333.273 174.481 333.273 173.37C333.273 171.897 333.981 171.16 335.398 171.16H338.288C339.704 171.16 340.413 171.897 340.413 173.37L338.713 174.475C338.713 173.738 338.288 173.37 337.438 173.37H336.248C335.398 173.37 334.973 173.568 334.973 173.965C334.973 174.305 335.624 174.605 336.928 174.866C340.384 175.569 342.113 176.543 342.113 177.79C342.113 179.263 341.404 180 339.988 180H337.795ZM334.883 166.91C334.033 166.91 333.608 167.222 333.608 167.845C333.608 168.468 334.033 168.78 334.883 168.78H336.838V170.82H334.033C332.616 170.82 331.908 170.083 331.908 168.61V167.08C331.908 165.607 332.616 164.87 334.033 164.87H339.643C341.06 164.87 341.768 165.607 341.768 167.08L340.068 167.845C340.068 167.222 339.643 166.91 338.793 166.91H334.883ZM346.783 173.37C345.933 173.37 345.508 173.738 345.508 174.475V176.685C345.508 177.422 345.933 177.79 346.783 177.79H351.373C352.223 177.79 352.648 177.422 352.648 176.685V174.475C352.648 173.738 352.223 173.37 351.373 173.37H346.783ZM354.348 174.475V177.79C354.348 179.263 353.64 180 352.223 180H345.933C344.516 180 343.808 179.263 343.808 177.79V173.37C343.808 171.897 344.516 171.16 345.933 171.16H352.223C352.744 171.16 353.169 171.262 353.498 171.466C353.827 171.262 354.252 171.16 354.773 171.16H361.063C362.48 171.16 363.188 171.897 363.188 173.37V177.79C363.188 179.263 362.48 180 361.063 180H357.068V177.79H360.213C361.063 177.79 361.488 177.422 361.488 176.685V174.475C361.488 173.738 361.063 173.37 360.213 173.37H355.623C354.773 173.37 354.348 173.738 354.348 174.475ZM354.913 166.009L356.12 164.802L360.931 169.613L359.724 170.82L354.913 166.009ZM357.922 180.34C359.055 180.34 359.622 180.907 359.622 182.04C359.622 183.173 359.055 183.74 357.922 183.74C356.789 183.74 356.222 183.173 356.222 182.04C356.222 180.907 356.789 180.34 357.922 180.34ZM388.947 184.08C389.797 184.08 390.222 183.712 390.222 182.975V180H391.922V184.08C391.922 185.553 391.214 186.29 389.797 186.29H371.267C369.85 186.29 369.142 185.553 369.142 184.08V167.08C369.142 165.607 369.85 164.87 371.267 164.87H380.532V167.08H372.117C371.267 167.08 370.842 167.448 370.842 168.185V182.975C370.842 183.712 371.267 184.08 372.117 184.08H388.947ZM383.085 174.475V177.79C383.085 179.263 382.377 180 380.96 180H379.141V177.79H380.11C380.96 177.79 381.385 177.422 381.385 176.685V174.475C381.385 173.738 380.96 173.37 380.11 173.37H375.52C374.67 173.37 374.245 173.738 374.245 174.475V176.685C374.245 177.422 374.67 177.79 375.52 177.79H376.506V180H374.67C373.254 180 372.545 179.263 372.545 177.79V173.37C372.545 171.897 373.254 171.16 374.67 171.16H380.96C381.482 171.16 381.907 171.262 382.235 171.466C382.564 171.262 382.989 171.16 383.51 171.16H389.8C391.217 171.16 391.925 171.897 391.925 173.37V177.79C391.925 179.263 391.217 180 389.8 180H385.805V177.79H388.95C389.8 177.79 390.225 177.422 390.225 176.685V174.475C390.225 173.738 389.8 173.37 388.95 173.37H384.36C383.51 173.37 383.085 173.738 383.085 174.475ZM384.704 166.91C383.854 166.91 383.429 167.222 383.429 167.845C383.429 168.468 383.854 168.78 384.704 168.78H388.614C389.464 168.78 389.889 168.468 389.889 167.845C389.889 167.222 389.464 166.91 388.614 166.91H384.704ZM389.464 164.87C390.881 164.87 391.589 165.607 391.589 167.08V168.61C391.589 170.083 390.881 170.82 389.464 170.82H383.854C382.438 170.82 381.729 170.083 381.729 168.61V167.08C381.729 165.607 382.438 164.87 383.854 164.87H389.464ZM393.629 171.16H395.329V182.975C395.329 183.712 395.754 184.08 396.604 184.08H397.029V186.29H395.754C394.338 186.29 393.629 185.553 393.629 184.08V171.16ZM398.733 176.26C399.866 176.26 400.433 176.827 400.433 177.96C400.433 179.093 399.866 179.66 398.733 179.66C397.599 179.66 397.033 179.093 397.033 177.96C397.033 176.827 397.599 176.26 398.733 176.26ZM398.733 171.5C399.866 171.5 400.433 172.067 400.433 173.2C400.433 174.333 399.866 174.9 398.733 174.9C397.599 174.9 397.033 174.333 397.033 173.2C397.033 172.067 397.599 171.5 398.733 171.5ZM405.342 173.37H405.104C404.254 173.37 403.829 173.738 403.829 174.475V176.685C403.829 177.422 404.254 177.79 405.104 177.79H405.342C405.694 177.235 405.869 176.498 405.869 175.58C405.869 174.662 405.694 173.925 405.342 173.37ZM406.345 177.79H409.694C410.544 177.79 410.969 177.422 410.969 176.685V174.475C410.969 173.738 410.544 173.37 409.694 173.37H406.345C406.595 173.982 406.719 174.719 406.719 175.58C406.719 176.441 406.595 177.178 406.345 177.79ZM410.544 171.16C411.961 171.16 412.669 171.897 412.669 173.37V177.79C412.669 179.263 411.961 180 410.544 180H404.254C402.838 180 402.129 179.263 402.129 177.79V173.37C402.129 171.897 402.838 171.16 404.254 171.16H410.544ZM413.94 173.37C413.09 173.37 412.665 173.738 412.665 174.475L410.965 173.37C410.965 171.897 411.673 171.16 413.09 171.16H419.38C420.796 171.16 421.505 171.897 421.505 173.37V177.79C421.505 179.263 420.796 180 419.38 180H415.385V177.79H418.53C419.38 177.79 419.805 177.422 419.805 176.685V174.475C419.805 173.738 419.38 173.37 418.53 173.37H413.94ZM424.897 176.26C426.03 176.26 426.597 176.827 426.597 177.96C426.597 179.093 426.03 179.66 424.897 179.66C423.763 179.66 423.197 179.093 423.197 177.96C423.197 176.827 423.763 176.26 424.897 176.26ZM424.897 171.5C426.03 171.5 426.597 172.067 426.597 173.2C426.597 174.333 426.03 174.9 424.897 174.9C423.763 174.9 423.197 174.333 423.197 173.2C423.197 172.067 423.763 171.5 424.897 171.5ZM437.133 176.209V174.475C437.133 173.738 436.708 173.37 435.858 173.37H434.889V171.16H436.708C438.125 171.16 438.833 171.897 438.833 173.37V177.79C438.833 179.263 438.125 180 436.708 180H430.418C429.002 180 428.293 179.263 428.293 177.79V173.37C428.293 171.897 429.002 171.16 430.418 171.16H432.254V173.37H431.268C430.418 173.37 429.993 173.738 429.993 174.475V176.209C430.911 175.79 432.101 175.58 433.563 175.58C435.025 175.58 436.215 175.79 437.133 176.209ZM430.112 177.263C430.294 177.614 430.679 177.79 431.268 177.79H435.858C436.448 177.79 436.833 177.614 437.014 177.263C436.232 176.708 435.082 176.43 433.563 176.43C432.045 176.43 430.894 176.708 430.112 177.263ZM431.434 180.34H433.134V184.08C433.134 185.553 432.425 186.29 431.009 186.29H429.734V184.08H430.159C431.009 184.08 431.434 183.712 431.434 182.975V180.34ZM435.684 182.975C435.684 183.712 436.109 184.08 436.959 184.08H437.384V186.29H436.109C434.692 186.29 433.984 185.553 433.984 184.08V180.34H435.684V182.975ZM443.572 177.79C445.045 176.487 446.955 175.835 449.301 175.835C449.947 175.835 450.4 175.909 450.661 176.056C450.933 176.192 451.069 176.402 451.069 176.685V177.79C451.069 179.263 450.36 180 448.944 180H442.654C441.237 180 440.529 179.263 440.529 177.79V173.37C440.529 171.897 441.237 171.16 442.654 171.16H448.944C450.36 171.16 451.069 171.897 451.069 173.37V174.475H449.369C449.369 173.738 448.944 173.37 448.094 173.37H443.504C442.654 173.37 442.229 173.738 442.229 174.475V176.685C442.229 177.422 442.654 177.79 443.504 177.79H443.572ZM449.301 176.685C447.487 176.685 446.054 177.053 445 177.79H448.094C448.944 177.79 449.369 177.422 449.369 176.685H449.301ZM455.739 173.37C454.889 173.37 454.464 173.738 454.464 174.475V176.685C454.464 177.422 454.889 177.79 455.739 177.79H460.329C461.179 177.79 461.604 177.422 461.604 176.685V174.475C461.604 173.738 461.179 173.37 460.329 173.37H455.739ZM463.304 174.475V177.79C463.304 179.263 462.596 180 461.179 180H454.889C453.472 180 452.764 179.263 452.764 177.79V173.37C452.764 171.897 453.472 171.16 454.889 171.16H461.179C461.7 171.16 462.125 171.262 462.454 171.466C462.783 171.262 463.208 171.16 463.729 171.16H470.019C471.436 171.16 472.144 171.897 472.144 173.37V177.79C472.144 179.263 471.436 180 470.019 180H466.024V177.79H469.169C470.019 177.79 470.444 177.422 470.444 176.685V174.475C470.444 173.738 470.019 173.37 469.169 173.37H464.579C463.729 173.37 463.304 173.738 463.304 174.475ZM473.423 173.37C472.573 173.37 472.148 173.738 472.148 174.475L470.448 173.37C470.448 171.897 471.156 171.16 472.573 171.16H478.863C480.28 171.16 480.988 171.897 480.988 173.37V177.79C480.988 179.263 480.28 180 478.863 180H474.868V177.79H478.013C478.863 177.79 479.288 177.422 479.288 176.685V174.475C479.288 173.738 478.863 173.37 478.013 173.37H473.423ZM475.71 180.34C476.843 180.34 477.41 180.907 477.41 182.04C477.41 183.173 476.843 183.74 475.71 183.74C474.577 183.74 474.01 183.173 474.01 182.04C474.01 180.907 474.577 180.34 475.71 180.34ZM490.143 173.37H489.905C489.055 173.37 488.63 173.738 488.63 174.475V176.685C488.63 177.422 489.055 177.79 489.905 177.79H490.143C490.494 177.235 490.67 176.498 490.67 175.58C490.67 174.662 490.494 173.925 490.143 173.37ZM491.146 177.79H494.495C495.345 177.79 495.77 177.422 495.77 176.685V174.475C495.77 173.738 495.345 173.37 494.495 173.37H491.146C491.395 173.982 491.52 174.719 491.52 175.58C491.52 176.441 491.395 177.178 491.146 177.79ZM495.345 171.16C496.762 171.16 497.47 171.897 497.47 173.37V177.79C497.47 179.263 496.762 180 495.345 180H489.055C487.638 180 486.93 179.263 486.93 177.79V173.37C486.93 171.897 487.638 171.16 489.055 171.16H495.345ZM490.24 166.91C489.39 166.91 488.965 167.222 488.965 167.845C488.965 168.468 489.39 168.78 490.24 168.78H494.15C495 168.78 495.425 168.468 495.425 167.845C495.425 167.222 495 166.91 494.15 166.91H490.24ZM495 164.87C496.417 164.87 497.125 165.607 497.125 167.08V168.61C497.125 170.083 496.417 170.82 495 170.82H489.39C487.974 170.82 487.265 170.083 487.265 168.61V167.08C487.265 165.607 487.974 164.87 489.39 164.87H495ZM494.915 182.975C494.915 183.712 495.34 184.08 496.19 184.08H496.615V186.29H495.34C493.924 186.29 493.215 185.553 493.215 184.08V180.34H494.915V182.975ZM509.705 174.475V177.79C509.705 179.263 508.997 180 507.58 180H505.761V177.79H506.73C507.58 177.79 508.005 177.422 508.005 176.685V174.475C508.005 173.738 507.58 173.37 506.73 173.37H502.14C501.29 173.37 500.865 173.738 500.865 174.475V176.685C500.865 177.422 501.29 177.79 502.14 177.79H503.126V180H501.29C499.874 180 499.165 179.263 499.165 177.79V173.37C499.165 171.897 499.874 171.16 501.29 171.16H507.58C508.102 171.16 508.527 171.262 508.855 171.466C509.184 171.262 509.609 171.16 510.13 171.16H516.42C517.837 171.16 518.545 171.897 518.545 173.37V177.79C518.545 179.263 517.837 180 516.42 180H512.425V177.79H515.57C516.42 177.79 516.845 177.422 516.845 176.685V174.475C516.845 173.738 516.42 173.37 515.57 173.37H510.98C510.13 173.37 509.705 173.738 509.705 174.475ZM511.324 166.91C510.474 166.91 510.049 167.222 510.049 167.845C510.049 168.468 510.474 168.78 511.324 168.78H513.279V170.82H510.474C509.058 170.82 508.349 170.083 508.349 168.61V167.08C508.349 165.607 509.058 164.87 510.474 164.87H516.084C517.501 164.87 518.209 165.607 518.209 167.08L516.509 167.845C516.509 167.222 516.084 166.91 515.234 166.91H511.324ZM523.224 177.79H524.074C524.924 177.79 525.349 177.592 525.349 177.195C525.349 176.798 525.185 176.6 524.856 176.6C523.712 176.6 522.879 176.929 522.357 177.586C522.561 177.722 522.85 177.79 523.224 177.79ZM529.089 174.475C529.089 173.738 528.664 173.37 527.814 173.37H523.224C522.374 173.37 521.949 173.738 521.949 174.475V176.702C522.618 176.067 523.587 175.75 524.856 175.75C526.318 175.75 527.049 176.43 527.049 177.79C527.049 179.263 526.341 180 524.924 180H522.374C520.958 180 520.249 179.263 520.249 177.79V173.37C520.249 171.897 520.958 171.16 522.374 171.16H528.664C530.081 171.16 530.789 171.897 530.789 173.37V182.975C530.789 183.712 531.214 184.08 532.064 184.08H533.05V186.29H531.214C529.798 186.29 529.089 185.553 529.089 184.08V174.475ZM541.325 176.209V174.475C541.325 173.738 540.9 173.37 540.05 173.37H539.081V171.16H540.9C542.316 171.16 543.025 171.897 543.025 173.37V177.79C543.025 179.263 542.316 180 540.9 180H534.61C533.193 180 532.485 179.263 532.485 177.79V173.37C532.485 171.897 533.193 171.16 534.61 171.16H536.446V173.37H535.46C534.61 173.37 534.185 173.738 534.185 174.475V176.209C535.103 175.79 536.293 175.58 537.755 175.58C539.217 175.58 540.407 175.79 541.325 176.209ZM534.304 177.263C534.485 177.614 534.87 177.79 535.46 177.79H540.05C540.639 177.79 541.024 177.614 541.206 177.263C540.424 176.708 539.273 176.43 537.755 176.43C536.236 176.43 535.086 176.708 534.304 177.263ZM555.26 176.685C555.26 177.422 555.685 177.79 556.535 177.79H561.125C561.975 177.79 562.4 177.422 562.4 176.685V174.475C562.4 173.738 561.975 173.37 561.125 173.37H557.98V171.16H561.975C563.392 171.16 564.1 171.897 564.1 173.37V177.79C564.1 179.263 563.392 180 561.975 180H555.685C555.164 180 554.739 179.898 554.41 179.694C554.081 179.898 553.656 180 553.135 180H546.845C545.428 180 544.72 179.263 544.72 177.79V173.37C544.72 171.897 545.428 171.16 546.845 171.16H548.681V173.37H547.695C546.845 173.37 546.42 173.738 546.42 174.475V176.685C546.42 177.422 546.845 177.79 547.695 177.79H552.285C553.135 177.79 553.56 177.422 553.56 176.685V174.475C553.56 173.738 553.135 173.37 552.285 173.37H551.316V171.16H553.135C554.552 171.16 555.26 171.897 555.26 173.37V176.685ZM556.879 166.91C556.029 166.91 555.604 167.222 555.604 167.845C555.604 168.468 556.029 168.78 556.879 168.78H558.834V170.82H556.029C554.612 170.82 553.904 170.083 553.904 168.61V167.08C553.904 165.607 554.612 164.87 556.029 164.87H561.639C563.056 164.87 563.764 165.607 563.764 167.08L562.064 167.845C562.064 167.222 561.639 166.91 560.789 166.91H556.879ZM248.695 214.79C248.185 213.997 247.301 213.6 246.043 213.6C245.714 213.6 245.55 213.798 245.55 214.195C245.55 214.592 245.975 214.79 246.825 214.79H248.695ZM250.072 217V223.29H248.372V217H245.975C244.558 217 243.85 216.263 243.85 214.79C243.85 213.43 244.581 212.75 246.043 212.75C247.902 212.75 249.12 213.43 249.698 214.79H251.415C252.265 214.79 252.69 214.592 252.69 214.195C252.69 213.696 251.472 213.198 249.035 212.699C246.712 212.257 245.55 211.481 245.55 210.37C245.55 208.897 246.258 208.16 247.675 208.16H250.565C251.982 208.16 252.69 208.897 252.69 210.37L250.99 211.475C250.99 210.738 250.565 210.37 249.715 210.37H248.525C247.675 210.37 247.25 210.568 247.25 210.965C247.25 211.305 247.902 211.605 249.205 211.866C252.662 212.569 254.39 213.543 254.39 214.79C254.39 216.263 253.682 217 252.265 217H250.072ZM259.06 210.37C258.21 210.37 257.785 210.738 257.785 211.475V213.685C257.785 214.422 258.21 214.79 259.06 214.79H263.65C264.5 214.79 264.925 214.422 264.925 213.685V211.475C264.925 210.738 264.5 210.37 263.65 210.37H259.06ZM266.625 211.475V214.79C266.625 216.263 265.917 217 264.5 217H258.21C256.794 217 256.085 216.263 256.085 214.79V210.37C256.085 208.897 256.794 208.16 258.21 208.16H264.5C265.022 208.16 265.447 208.262 265.775 208.466C266.104 208.262 266.529 208.16 267.05 208.16H273.34C274.757 208.16 275.465 208.897 275.465 210.37V214.79C275.465 216.263 274.757 217 273.34 217H269.345V214.79H272.49C273.34 214.79 273.765 214.422 273.765 213.685V211.475C273.765 210.738 273.34 210.37 272.49 210.37H267.9C267.05 210.37 266.625 210.738 266.625 211.475ZM268.244 203.91C267.394 203.91 266.969 204.222 266.969 204.845C266.969 205.468 267.394 205.78 268.244 205.78H270.199V207.82H267.394C265.978 207.82 265.269 207.083 265.269 205.61V204.08C265.269 202.607 265.978 201.87 267.394 201.87H273.004C274.421 201.87 275.129 202.607 275.129 204.08L273.429 204.845C273.429 204.222 273.004 203.91 272.154 203.91H268.244ZM280.382 210.37H280.144C279.294 210.37 278.869 210.738 278.869 211.475V213.685C278.869 214.422 279.294 214.79 280.144 214.79H280.382C280.734 214.235 280.909 213.498 280.909 212.58C280.909 211.662 280.734 210.925 280.382 210.37ZM281.385 214.79H284.734C285.584 214.79 286.009 214.422 286.009 213.685V211.475C286.009 210.738 285.584 210.37 284.734 210.37H281.385C281.635 210.982 281.759 211.719 281.759 212.58C281.759 213.441 281.635 214.178 281.385 214.79ZM285.584 208.16C287.001 208.16 287.709 208.897 287.709 210.37V214.79C287.709 216.263 287.001 217 285.584 217H279.294C277.878 217 277.169 216.263 277.169 214.79V210.37C277.169 208.897 277.878 208.16 279.294 208.16H285.584ZM285.631 205.389C285.653 205.219 285.665 205.038 285.665 204.845C285.665 204.222 285.24 203.91 284.39 203.91H280.48C279.63 203.91 279.205 204.222 279.205 204.845C279.205 205.038 279.216 205.219 279.239 205.389C280.1 205.072 281.165 204.913 282.435 204.913C283.704 204.913 284.769 205.072 285.631 205.389ZM279.579 206.256C279.794 206.505 280.094 206.63 280.48 206.63H284.39C284.775 206.63 285.075 206.505 285.291 206.256C284.554 205.927 283.602 205.763 282.435 205.763C281.267 205.763 280.315 205.927 279.579 206.256ZM285.24 201.87C286.656 201.87 287.365 202.607 287.365 204.08V205.61C287.365 207.083 286.656 207.82 285.24 207.82H279.63C278.213 207.82 277.505 207.083 277.505 205.61V204.08C277.505 202.607 278.213 201.87 279.63 201.87H285.24ZM292.38 210.37C291.53 210.37 291.105 210.738 291.105 211.475V213.685C291.105 214.422 291.53 214.79 292.38 214.79H296.97C297.82 214.79 298.245 214.422 298.245 213.685V211.475C298.245 210.738 297.82 210.37 296.97 210.37H292.38ZM299.945 211.475V214.79C299.945 216.263 299.236 217 297.82 217H291.53C290.113 217 289.405 216.263 289.405 214.79V210.37C289.405 208.897 290.113 208.16 291.53 208.16H297.82C298.341 208.16 298.766 208.262 299.095 208.466C299.423 208.262 299.848 208.16 300.37 208.16H306.66C308.076 208.16 308.785 208.897 308.785 210.37V214.79C308.785 216.263 308.076 217 306.66 217H302.665V214.79H305.81C306.66 214.79 307.085 214.422 307.085 213.685V211.475C307.085 210.738 306.66 210.37 305.81 210.37H301.22C300.37 210.37 299.945 210.738 299.945 211.475ZM300.51 203.009L301.717 201.802L306.528 206.613L305.321 207.82L300.51 203.009ZM303.519 217.34C304.652 217.34 305.219 217.907 305.219 219.04C305.219 220.173 304.652 220.74 303.519 220.74C302.385 220.74 301.819 220.173 301.819 219.04C301.819 217.907 302.385 217.34 303.519 217.34ZM332.011 214.586C331.489 213.929 330.656 213.6 329.512 213.6C329.183 213.6 329.019 213.798 329.019 214.195C329.019 214.592 329.444 214.79 330.294 214.79H331.144C331.518 214.79 331.807 214.722 332.011 214.586ZM324.429 208.466C324.757 208.262 325.182 208.16 325.704 208.16H331.994C333.41 208.16 334.119 208.897 334.119 210.37V214.79C334.119 216.263 333.41 217 331.994 217H329.444C328.027 217 327.319 216.263 327.319 214.79C327.319 213.43 328.05 212.75 329.512 212.75C330.781 212.75 331.75 213.067 332.419 213.702V211.475C332.419 210.738 331.994 210.37 331.144 210.37H326.554C326.044 210.37 325.585 210.5 325.177 210.761C324.882 211.373 323.896 211.979 322.219 212.58C324.259 213.317 325.279 214.053 325.279 214.79C325.279 216.263 324.57 217 323.154 217H316.864C315.447 217 314.739 216.263 314.739 214.79V213.685H316.439C316.439 214.422 316.864 214.79 317.714 214.79H322.304C322.53 214.79 322.644 214.75 322.644 214.671C322.644 214.444 321.822 213.929 320.179 213.124V212.019C321.822 211.214 322.644 210.704 322.644 210.489C322.644 210.41 322.53 210.37 322.304 210.37H317.714C316.864 210.37 316.439 210.738 316.439 211.475H314.739V210.37C314.739 208.897 315.447 208.16 316.864 208.16H323.154C323.675 208.16 324.1 208.262 324.429 208.466ZM326.898 203.91C326.048 203.91 325.623 204.222 325.623 204.845C325.623 205.468 326.048 205.78 326.898 205.78H330.808C331.658 205.78 332.083 205.468 332.083 204.845C332.083 204.222 331.658 203.91 330.808 203.91H326.898ZM331.658 201.87C333.074 201.87 333.783 202.607 333.783 204.08V205.61C333.783 207.083 333.074 207.82 331.658 207.82H326.048C324.631 207.82 323.923 207.083 323.923 205.61V204.08C323.923 202.607 324.631 201.87 326.048 201.87H331.658ZM344.238 208.16C345.654 208.16 346.363 208.897 346.363 210.37V214.79C346.363 216.263 345.654 217 344.238 217H337.948C336.531 217 335.823 216.263 335.823 214.79V210.37C335.823 208.897 336.531 208.16 337.948 208.16H339.784V210.37H338.798C337.948 210.37 337.523 210.738 337.523 211.475V213.685C337.523 214.422 337.948 214.79 338.798 214.79H343.388C344.238 214.79 344.663 214.422 344.663 213.685V211.475C344.663 210.738 344.238 210.37 343.388 210.37H342.419V208.16H344.238ZM339.133 203.91C338.283 203.91 337.858 204.222 337.858 204.845C337.858 205.468 338.283 205.78 339.133 205.78H341.088V207.82H338.283C336.866 207.82 336.158 207.083 336.158 205.61V204.08C336.158 202.607 336.866 201.87 338.283 201.87H343.893C345.31 201.87 346.018 202.607 346.018 204.08L344.318 204.845C344.318 204.222 343.893 203.91 343.043 203.91H339.133ZM356.898 213.209V211.475C356.898 210.738 356.473 210.37 355.623 210.37H354.654V208.16H356.473C357.89 208.16 358.598 208.897 358.598 210.37V214.79C358.598 216.263 357.89 217 356.473 217H350.183C348.766 217 348.058 216.263 348.058 214.79V210.37C348.058 208.897 348.766 208.16 350.183 208.16H352.019V210.37H351.033C350.183 210.37 349.758 210.738 349.758 211.475V213.209C350.676 212.79 351.866 212.58 353.328 212.58C354.79 212.58 355.98 212.79 356.898 213.209ZM349.877 214.263C350.058 214.614 350.444 214.79 351.033 214.79H355.623C356.212 214.79 356.598 214.614 356.779 214.263C355.997 213.708 354.847 213.43 353.328 213.43C351.809 213.43 350.659 213.708 349.877 214.263ZM370.833 211.475V214.79C370.833 216.263 370.125 217 368.708 217H366.889V214.79H367.858C368.708 214.79 369.133 214.422 369.133 213.685V211.475C369.133 210.738 368.708 210.37 367.858 210.37H363.268C362.418 210.37 361.993 210.738 361.993 211.475V213.685C361.993 214.422 362.418 214.79 363.268 214.79H364.254V217H362.418C361.002 217 360.293 216.263 360.293 214.79V210.37C360.293 208.897 361.002 208.16 362.418 208.16H368.708C369.23 208.16 369.655 208.262 369.983 208.466C370.312 208.262 370.737 208.16 371.258 208.16H377.548C378.965 208.16 379.673 208.897 379.673 210.37V214.79C379.673 216.263 378.965 217 377.548 217H373.553V214.79H376.698C377.548 214.79 377.973 214.422 377.973 213.685V211.475C377.973 210.738 377.548 210.37 376.698 210.37H372.108C371.258 210.37 370.833 210.738 370.833 211.475ZM372.452 203.91C371.602 203.91 371.177 204.222 371.177 204.845C371.177 205.468 371.602 205.78 372.452 205.78H374.407V207.82H371.602C370.186 207.82 369.477 207.083 369.477 205.61V204.08C369.477 202.607 370.186 201.87 371.602 201.87H377.212C378.629 201.87 379.337 202.607 379.337 204.08L377.637 204.845C377.637 204.222 377.212 203.91 376.362 203.91H372.452ZM384.352 210.37C383.502 210.37 383.077 210.738 383.077 211.475V213.685C383.077 214.422 383.502 214.79 384.352 214.79H387.497V217H383.502C382.086 217 381.377 216.263 381.377 214.79V210.37C381.377 208.897 382.086 208.16 383.502 208.16H389.792C391.209 208.16 391.917 208.897 391.917 210.37V213.685C391.917 214.422 392.342 214.79 393.192 214.79H397.782C398.632 214.79 399.057 214.422 399.057 213.685V211.475C399.057 210.738 398.632 210.37 397.782 210.37H394.637V208.16H398.632C400.049 208.16 400.757 208.897 400.757 210.37V214.79C400.757 216.263 400.049 217 398.632 217H392.342C390.926 217 390.217 216.263 390.217 214.79V211.475C390.217 210.738 389.792 210.37 388.942 210.37H384.352ZM396.511 217.34H398.211V221.08C398.211 222.553 397.503 223.29 396.086 223.29H394.811V221.08H395.236C396.086 221.08 396.511 220.712 396.511 219.975V217.34ZM405.436 210.37C404.586 210.37 404.161 210.738 404.161 211.475V213.685C404.161 214.422 404.586 214.79 405.436 214.79H408.581V217H404.586C403.17 217 402.461 216.263 402.461 214.79V210.37C402.461 208.897 403.17 208.16 404.586 208.16H410.876C412.293 208.16 413.001 208.897 413.001 210.37V213.685C413.001 214.422 413.426 214.79 414.276 214.79H418.866C419.716 214.79 420.141 214.422 420.141 213.685V211.475C420.141 210.738 419.716 210.37 418.866 210.37H415.721V208.16H419.716C421.133 208.16 421.841 208.897 421.841 210.37V214.79C421.841 216.263 421.133 217 419.716 217H413.426C412.01 217 411.301 216.263 411.301 214.79V211.475C411.301 210.738 410.876 210.37 410.026 210.37H405.436ZM417.595 217.34H419.295V221.08C419.295 222.553 418.587 223.29 417.17 223.29H415.895V221.08H416.32C417.17 221.08 417.595 220.712 417.595 219.975V217.34ZM432.385 213.209V211.475C432.385 210.738 431.96 210.37 431.11 210.37H430.141V208.16H431.96C433.377 208.16 434.085 208.897 434.085 210.37V214.79C434.085 216.263 433.377 217 431.96 217H425.67C424.254 217 423.545 216.263 423.545 214.79V210.37C423.545 208.897 424.254 208.16 425.67 208.16H427.506V210.37H426.52C425.67 210.37 425.245 210.738 425.245 211.475V213.209C426.163 212.79 427.353 212.58 428.815 212.58C430.277 212.58 431.467 212.79 432.385 213.209ZM425.364 214.263C425.546 214.614 425.931 214.79 426.52 214.79H431.11C431.7 214.79 432.085 214.614 432.266 214.263C431.484 213.708 430.334 213.43 428.815 213.43C427.297 213.43 426.146 213.708 425.364 214.263ZM432.891 219.975C432.891 220.712 433.316 221.08 434.166 221.08H434.506C435.356 221.08 435.781 220.712 435.781 219.975V208.16H437.481V221.08C437.481 222.553 436.772 223.29 435.356 223.29H433.316C431.899 223.29 431.191 222.553 431.191 221.08V217.34H432.891V219.975ZM438.759 210.37C437.909 210.37 437.484 210.738 437.484 211.475L435.784 210.37C435.784 208.897 436.492 208.16 437.909 208.16H444.199C445.616 208.16 446.324 208.897 446.324 210.37V214.79C446.324 216.263 445.616 217 444.199 217H440.204V214.79H443.349C444.199 214.79 444.624 214.422 444.624 213.685V211.475C444.624 210.738 444.199 210.37 443.349 210.37H438.759ZM449.716 213.26C450.849 213.26 451.416 213.827 451.416 214.96C451.416 216.093 450.849 216.66 449.716 216.66C448.583 216.66 448.016 216.093 448.016 214.96C448.016 213.827 448.583 213.26 449.716 213.26ZM449.716 208.5C450.849 208.5 451.416 209.067 451.416 210.2C451.416 211.333 450.849 211.9 449.716 211.9C448.583 211.9 448.016 211.333 448.016 210.2C448.016 209.067 448.583 208.5 449.716 208.5ZM460.338 210.37C459.488 210.37 459.063 210.738 459.063 211.475V213.685C459.063 214.422 459.488 214.79 460.338 214.79H463.483V217H459.488C458.071 217 457.363 216.263 457.363 214.79V210.37C457.363 208.897 458.071 208.16 459.488 208.16H465.778C467.194 208.16 467.903 208.897 467.903 210.37V213.685C467.903 214.422 468.328 214.79 469.178 214.79H473.768C474.618 214.79 475.043 214.422 475.043 213.685V211.475C475.043 210.738 474.618 210.37 473.768 210.37H470.623V208.16H474.618C476.034 208.16 476.743 208.897 476.743 210.37V214.79C476.743 216.263 476.034 217 474.618 217H468.328C466.911 217 466.203 216.263 466.203 214.79V211.475C466.203 210.738 465.778 210.37 464.928 210.37H460.338ZM470.457 219.176C469.607 219.176 469.182 219.482 469.182 220.094V220.519C469.182 221.142 469.607 221.454 470.457 221.454H472.497C473.347 221.454 473.772 221.142 473.772 220.519V220.094C473.772 219.482 473.347 219.176 472.497 219.176H470.457ZM473.347 217.34C474.763 217.34 475.472 217.952 475.472 219.176V221.454C475.472 222.678 474.763 223.29 473.347 223.29H469.607C468.19 223.29 467.482 222.678 467.482 221.454V219.176C467.482 217.952 468.19 217.34 469.607 217.34H473.347ZM488.987 213.685C488.987 214.422 489.412 214.79 490.262 214.79H494.852C495.702 214.79 496.127 214.422 496.127 213.685V211.475C496.127 210.738 495.702 210.37 494.852 210.37H491.707V208.16H495.702C497.118 208.16 497.827 208.897 497.827 210.37V214.79C497.827 216.263 497.118 217 495.702 217H489.412C488.89 217 488.465 216.898 488.137 216.694C487.808 216.898 487.383 217 486.862 217H480.572C479.155 217 478.447 216.263 478.447 214.79V210.37C478.447 208.897 479.155 208.16 480.572 208.16H482.408V210.37H481.422C480.572 210.37 480.147 210.738 480.147 211.475V213.685C480.147 214.422 480.572 214.79 481.422 214.79H486.012C486.862 214.79 487.287 214.422 487.287 213.685V211.475C487.287 210.738 486.862 210.37 486.012 210.37H485.043V208.16H486.862C488.278 208.16 488.987 208.897 488.987 210.37V213.685ZM490.606 203.91C489.756 203.91 489.331 204.222 489.331 204.845C489.331 205.468 489.756 205.78 490.606 205.78H492.561V207.82H489.756C488.339 207.82 487.631 207.083 487.631 205.61V204.08C487.631 202.607 488.339 201.87 489.756 201.87H495.366C496.782 201.87 497.491 202.607 497.491 204.08L495.791 204.845C495.791 204.222 495.366 203.91 494.516 203.91H490.606ZM502.506 210.37C501.656 210.37 501.231 210.738 501.231 211.475V213.685C501.231 214.422 501.656 214.79 502.506 214.79H505.651V217H501.656C500.239 217 499.531 216.263 499.531 214.79V210.37C499.531 208.897 500.239 208.16 501.656 208.16H507.946C509.362 208.16 510.071 208.897 510.071 210.37V213.685C510.071 214.422 510.496 214.79 511.346 214.79H515.936C516.786 214.79 517.211 214.422 517.211 213.685V211.475C517.211 210.738 516.786 210.37 515.936 210.37H512.791V208.16H516.786C518.202 208.16 518.911 208.897 518.911 210.37V214.79C518.911 216.263 518.202 217 516.786 217H510.496C509.079 217 508.371 216.263 508.371 214.79V211.475C508.371 210.738 507.946 210.37 507.096 210.37H502.506ZM512.625 219.176C511.775 219.176 511.35 219.482 511.35 220.094V220.519C511.35 221.142 511.775 221.454 512.625 221.454H514.665C515.515 221.454 515.94 221.142 515.94 220.519V220.094C515.94 219.482 515.515 219.176 514.665 219.176H512.625ZM515.515 217.34C516.931 217.34 517.64 217.952 517.64 219.176V221.454C517.64 222.678 516.931 223.29 515.515 223.29H511.775C510.358 223.29 509.65 222.678 509.65 221.454V219.176C509.65 217.952 510.358 217.34 511.775 217.34H515.515ZM531.155 213.685C531.155 214.422 531.58 214.79 532.43 214.79H537.02C537.87 214.79 538.295 214.422 538.295 213.685V211.475C538.295 210.738 537.87 210.37 537.02 210.37H533.875V208.16H537.87C539.286 208.16 539.995 208.897 539.995 210.37V214.79C539.995 216.263 539.286 217 537.87 217H531.58C531.058 217 530.633 216.898 530.305 216.694C529.976 216.898 529.551 217 529.03 217H522.74C521.323 217 520.615 216.263 520.615 214.79V210.37C520.615 208.897 521.323 208.16 522.74 208.16H524.576V210.37H523.59C522.74 210.37 522.315 210.738 522.315 211.475V213.685C522.315 214.422 522.74 214.79 523.59 214.79H528.18C529.03 214.79 529.455 214.422 529.455 213.685V211.475C529.455 210.738 529.03 210.37 528.18 210.37H527.211V208.16H529.03C530.446 208.16 531.155 208.897 531.155 210.37V213.685ZM532.774 203.91C531.924 203.91 531.499 204.222 531.499 204.845C531.499 205.468 531.924 205.78 532.774 205.78H534.729V207.82H531.924C530.507 207.82 529.799 207.083 529.799 205.61V204.08C529.799 202.607 530.507 201.87 531.924 201.87H537.534C538.95 201.87 539.659 202.607 539.659 204.08L537.959 204.845C537.959 204.222 537.534 203.91 536.684 203.91H532.774ZM546.544 214.79C546.034 213.997 545.15 213.6 543.892 213.6C543.563 213.6 543.399 213.798 543.399 214.195C543.399 214.592 543.824 214.79 544.674 214.79H546.544ZM547.921 217V223.29H546.221V217H543.824C542.407 217 541.699 216.263 541.699 214.79C541.699 213.43 542.43 212.75 543.892 212.75C545.75 212.75 546.969 213.43 547.547 214.79H549.264C550.114 214.79 550.539 214.592 550.539 214.195C550.539 213.696 549.32 213.198 546.884 212.699C544.56 212.257 543.399 211.481 543.399 210.37C543.399 208.897 544.107 208.16 545.524 208.16H548.414C549.83 208.16 550.539 208.897 550.539 210.37L548.839 211.475C548.839 210.738 548.414 210.37 547.564 210.37H546.374C545.524 210.37 545.099 210.568 545.099 210.965C545.099 211.305 545.75 211.605 547.054 211.866C550.51 212.569 552.239 213.543 552.239 214.79C552.239 216.263 551.53 217 550.114 217H547.921ZM543.955 203.009L545.162 201.802L549.973 206.613L548.766 207.82L543.955 203.009ZM551.384 217.34C552.517 217.34 553.084 217.907 553.084 219.04C553.084 220.173 552.517 220.74 551.384 220.74C550.251 220.74 549.684 220.173 549.684 219.04C549.684 217.907 550.251 217.34 551.384 217.34ZM562.774 213.209V211.475C562.774 210.738 562.349 210.37 561.499 210.37H560.53V208.16H562.349C563.766 208.16 564.474 208.897 564.474 210.37V214.79C564.474 216.263 563.766 217 562.349 217H556.059C554.642 217 553.934 216.263 553.934 214.79V210.37C553.934 208.897 554.642 208.16 556.059 208.16H557.895V210.37H556.909C556.059 210.37 555.634 210.738 555.634 211.475V213.209C556.552 212.79 557.742 212.58 559.204 212.58C560.666 212.58 561.856 212.79 562.774 213.209ZM555.753 214.263C555.934 214.614 556.32 214.79 556.909 214.79H561.499C562.088 214.79 562.474 214.614 562.655 214.263C561.873 213.708 560.723 213.43 559.204 213.43C557.685 213.43 556.535 213.708 555.753 214.263ZM569.144 214.79H569.994C570.844 214.79 571.269 214.592 571.269 214.195C571.269 213.798 571.105 213.6 570.776 213.6C569.632 213.6 568.799 213.929 568.277 214.586C568.481 214.722 568.77 214.79 569.144 214.79ZM575.009 211.475C575.009 210.738 574.584 210.37 573.734 210.37H569.144C568.294 210.37 567.869 210.738 567.869 211.475V213.702C568.538 213.067 569.507 212.75 570.776 212.75C572.238 212.75 572.969 213.43 572.969 214.79C572.969 216.263 572.261 217 570.844 217H568.294C566.878 217 566.169 216.263 566.169 214.79V210.37C566.169 208.897 566.878 208.16 568.294 208.16H574.584C576.001 208.16 576.709 208.897 576.709 210.37V219.975C576.709 220.712 577.134 221.08 577.984 221.08H578.97V223.29H577.134C575.718 223.29 575.009 222.553 575.009 221.08V211.475Z" fill="black"/>
</svg>
