<svg width="820" height="360" viewBox="0 0 820 360" fill="none" xmlns="http://www.w3.org/2000/svg">
<rect width="820" height="360" fill="#003049"/>
<path d="M202.6 187.46C202.02 187.82 201.27 188 200.35 188H189.25C186.75 188 185.5 186.7 185.5 184.1V182.15H188.5C188.5 183.45 189.25 184.1 190.75 184.1H198.85C200.35 184.1 201.1 183.45 201.1 182.15V178.25C201.1 176.95 200.35 176.3 198.85 176.3H190.75C189.25 176.3 188.5 176.95 188.5 178.25H185.5V176.3C185.5 173.7 186.75 172.4 189.25 172.4H200.35C202.85 172.4 204.1 173.7 204.1 176.3V182.15C204.1 183.45 204.85 184.1 206.35 184.1H214.45C215.95 184.1 216.7 183.45 216.7 182.15V178.25C216.7 176.95 215.95 176.3 214.45 176.3H208.9V172.4H215.95C218.45 172.4 219.7 173.7 219.7 176.3V184.1C219.7 186.7 218.45 188 215.95 188H204.85C203.93 188 203.18 187.82 202.6 187.46ZM238.307 181.31V178.25C238.307 176.95 237.557 176.3 236.057 176.3H234.347V172.4H237.557C240.057 172.4 241.307 173.7 241.307 176.3V184.1C241.307 186.7 240.057 188 237.557 188H226.457C223.957 188 222.707 186.7 222.707 184.1V176.3C222.707 173.7 223.957 172.4 226.457 172.4H229.697V176.3H227.957C226.457 176.3 225.707 176.95 225.707 178.25V181.31C227.327 180.57 229.427 180.2 232.007 180.2C234.587 180.2 236.687 180.57 238.307 181.31ZM225.917 183.17C226.237 183.79 226.917 184.1 227.957 184.1H236.057C237.097 184.1 237.777 183.79 238.097 183.17C236.717 182.19 234.687 181.7 232.007 181.7C229.327 181.7 227.297 182.19 225.917 183.17ZM249.549 176.3C248.049 176.3 247.299 176.95 247.299 178.25V182.15C247.299 183.45 248.049 184.1 249.549 184.1H257.649C259.149 184.1 259.899 183.45 259.899 182.15H262.899V184.1C262.899 186.7 261.649 188 259.149 188H248.049C245.549 188 244.299 186.7 244.299 184.1V176.3C244.299 173.7 245.549 172.4 248.049 172.4H259.149C261.649 172.4 262.899 173.7 262.899 176.3V178.25H259.899C259.899 176.95 259.149 176.3 257.649 176.3H249.549ZM250.141 164.9C248.641 164.9 247.891 165.45 247.891 166.55C247.891 167.65 248.641 168.2 250.141 168.2H253.591V171.8H248.641C246.141 171.8 244.891 170.5 244.891 167.9V165.2C244.891 162.6 246.141 161.3 248.641 161.3H258.541C261.041 161.3 262.291 162.6 262.291 165.2L259.291 166.55C259.291 165.45 258.541 164.9 257.041 164.9H250.141Z" fill="#FCBF49"/>
<path d="M276.391 182.15C276.391 183.45 277.141 184.1 278.641 184.1H284.101C282.241 182.8 279.711 182.15 276.511 182.15H276.391ZM291.991 178.25V182.15C291.991 183.45 292.741 184.1 294.241 184.1H302.341C303.841 184.1 304.591 183.45 304.591 182.15V178.25C304.591 176.95 303.841 176.3 302.341 176.3H294.241C292.741 176.3 291.991 176.95 291.991 178.25ZM290.491 187.46C289.911 187.82 289.161 188 288.241 188H277.141C274.641 188 273.391 186.7 273.391 184.1V182.15C273.391 181.65 273.621 181.28 274.081 181.04C274.561 180.78 275.371 180.65 276.511 180.65C280.651 180.65 284.021 181.8 286.621 184.1H286.741C288.241 184.1 288.991 183.45 288.991 182.15V178.25C288.991 176.95 288.241 176.3 286.741 176.3H278.641C277.141 176.3 276.391 176.95 276.391 178.25H273.391V176.3C273.391 173.7 274.641 172.4 277.141 172.4H288.241C289.161 172.4 289.911 172.58 290.491 172.94C291.071 172.58 291.821 172.4 292.741 172.4H303.841C306.341 172.4 307.591 173.7 307.591 176.3V184.1C307.591 186.7 306.341 188 303.841 188H292.741C291.821 188 291.071 187.82 290.491 187.46ZM329.198 182.15C329.198 183.45 329.948 184.1 331.448 184.1H339.548C341.048 184.1 341.798 183.45 341.798 182.15V178.25C341.798 176.95 341.048 176.3 339.548 176.3H333.998V172.4H341.048C343.548 172.4 344.798 173.7 344.798 176.3V184.1C344.798 186.7 343.548 188 341.048 188H329.948C329.028 188 328.278 187.82 327.698 187.46C327.118 187.82 326.368 188 325.448 188H314.348C311.848 188 310.598 186.7 310.598 184.1V176.3C310.598 173.7 311.848 172.4 314.348 172.4H317.588V176.3H315.848C314.348 176.3 313.598 176.95 313.598 178.25V182.15C313.598 183.45 314.348 184.1 315.848 184.1H323.948C325.448 184.1 326.198 183.45 326.198 182.15V178.25C326.198 176.95 325.448 176.3 323.948 176.3H322.238V172.4H325.448C327.948 172.4 329.198 173.7 329.198 176.3V182.15ZM332.055 164.9C330.555 164.9 329.805 165.45 329.805 166.55C329.805 167.65 330.555 168.2 332.055 168.2H335.505V171.8H330.555C328.055 171.8 326.805 170.5 326.805 167.9V165.2C326.805 162.6 328.055 161.3 330.555 161.3H340.455C342.955 161.3 344.205 162.6 344.205 165.2L341.205 166.55C341.205 165.45 340.455 164.9 338.955 164.9H332.055ZM353.055 176.3C351.555 176.3 350.805 176.95 350.805 178.25V182.15C350.805 183.45 351.555 184.1 353.055 184.1H358.605V188H351.555C349.055 188 347.805 186.7 347.805 184.1V176.3C347.805 173.7 349.055 172.4 351.555 172.4H362.655C365.155 172.4 366.405 173.7 366.405 176.3V182.15C366.405 183.45 367.155 184.1 368.655 184.1H376.755C378.255 184.1 379.005 183.45 379.005 182.15V178.25C379.005 176.95 378.255 176.3 376.755 176.3H371.205V172.4H378.255C380.755 172.4 382.005 173.7 382.005 176.3V184.1C382.005 186.7 380.755 188 378.255 188H367.155C364.655 188 363.405 186.7 363.405 184.1V178.25C363.405 176.95 362.655 176.3 361.155 176.3H353.055ZM374.512 188.6H377.512V195.2C377.512 197.8 376.262 199.1 373.762 199.1H371.512V195.2H372.262C373.762 195.2 374.512 194.55 374.512 193.25V188.6ZM400.612 181.31V178.25C400.612 176.95 399.862 176.3 398.362 176.3H396.652V172.4H399.862C402.362 172.4 403.612 173.7 403.612 176.3V184.1C403.612 186.7 402.362 188 399.862 188H388.762C386.262 188 385.012 186.7 385.012 184.1V176.3C385.012 173.7 386.262 172.4 388.762 172.4H392.002V176.3H390.262C388.762 176.3 388.012 176.95 388.012 178.25V181.31C389.632 180.57 391.732 180.2 394.312 180.2C396.892 180.2 398.992 180.57 400.612 181.31ZM388.222 183.17C388.542 183.79 389.222 184.1 390.262 184.1H398.362C399.402 184.1 400.082 183.79 400.402 183.17C399.022 182.19 396.992 181.7 394.312 181.7C391.632 181.7 389.602 182.19 388.222 183.17ZM390.854 164.9C389.354 164.9 388.604 165.45 388.604 166.55C388.604 167.65 389.354 168.2 390.854 168.2H394.304V171.8H389.354C386.854 171.8 385.604 170.5 385.604 167.9V165.2C385.604 162.6 386.854 161.3 389.354 161.3H399.254C401.754 161.3 403.004 162.6 403.004 165.2L400.004 166.55C400.004 165.45 399.254 164.9 397.754 164.9H390.854ZM409.604 181.4C411.604 181.4 412.604 182.4 412.604 184.4C412.604 186.4 411.604 187.4 409.604 187.4C407.604 187.4 406.604 186.4 406.604 184.4C406.604 182.4 407.604 181.4 409.604 181.4ZM409.604 173C411.604 173 412.604 174 412.604 176C412.604 178 411.604 179 409.604 179C407.604 179 406.604 178 406.604 176C406.604 174 407.604 173 409.604 173ZM426.098 172.4V188H423.098V172.4H426.098ZM517.146 176.3C515.646 176.3 514.896 176.95 514.896 178.25V182.15C514.896 183.45 515.646 184.1 517.146 184.1H525.246C526.746 184.1 527.496 183.45 527.496 182.15V178.25C527.496 176.95 526.746 176.3 525.246 176.3H517.146ZM530.496 178.25V184.1C530.496 186.7 529.246 188 526.746 188H515.646C513.146 188 511.896 186.7 511.896 184.1V176.3C511.896 173.7 513.146 172.4 515.646 172.4H526.746C527.666 172.4 528.416 172.58 528.996 172.94C529.576 172.58 530.326 172.4 531.246 172.4H542.346C544.846 172.4 546.096 173.7 546.096 176.3V184.1C546.096 186.7 544.846 188 542.346 188H535.296V184.1H540.846C542.346 184.1 543.096 183.45 543.096 182.15V178.25C543.096 176.95 542.346 176.3 540.846 176.3H532.746C531.246 176.3 530.496 176.95 530.496 178.25ZM554.774 176.3H554.354C552.854 176.3 552.104 176.95 552.104 178.25V182.15C552.104 183.45 552.854 184.1 554.354 184.1H554.774C555.394 183.12 555.704 181.82 555.704 180.2C555.704 178.58 555.394 177.28 554.774 176.3ZM556.544 184.1H562.454C563.954 184.1 564.704 183.45 564.704 182.15V178.25C564.704 176.95 563.954 176.3 562.454 176.3H556.544C556.984 177.38 557.204 178.68 557.204 180.2C557.204 181.72 556.984 183.02 556.544 184.1ZM563.954 172.4C566.454 172.4 567.704 173.7 567.704 176.3V184.1C567.704 186.7 566.454 188 563.954 188H552.854C550.354 188 549.104 186.7 549.104 184.1V176.3C549.104 173.7 550.354 172.4 552.854 172.4H563.954ZM554.945 164.9C553.445 164.9 552.695 165.45 552.695 166.55C552.695 167.65 553.445 168.2 554.945 168.2H558.395V171.8H553.445C550.945 171.8 549.695 170.5 549.695 167.9V165.2C549.695 162.6 550.945 161.3 553.445 161.3H563.345C565.845 161.3 567.095 162.6 567.095 165.2L564.095 166.55C564.095 165.45 563.345 164.9 561.845 164.9H554.945ZM575.945 176.3C574.445 176.3 573.695 176.95 573.695 178.25V182.15C573.695 183.45 574.445 184.1 575.945 184.1H581.495V188H574.445C571.945 188 570.695 186.7 570.695 184.1V176.3C570.695 173.7 571.945 172.4 574.445 172.4H585.545C588.045 172.4 589.295 173.7 589.295 176.3V182.15C589.295 183.45 590.045 184.1 591.545 184.1H599.645C601.145 184.1 601.895 183.45 601.895 182.15V178.25C601.895 176.95 601.145 176.3 599.645 176.3H594.095V172.4H601.145C603.645 172.4 604.895 173.7 604.895 176.3V184.1C604.895 186.7 603.645 188 601.145 188H590.045C587.545 188 586.295 186.7 586.295 184.1V178.25C586.295 176.95 585.545 176.3 584.045 176.3H575.945ZM597.402 188.6H600.402V195.2C600.402 197.8 599.152 199.1 596.652 199.1H594.402V195.2H595.152C596.652 195.2 597.402 194.55 597.402 193.25V188.6ZM623.502 181.31V178.25C623.502 176.95 622.752 176.3 621.252 176.3H619.542V172.4H622.752C625.252 172.4 626.502 173.7 626.502 176.3V184.1C626.502 186.7 625.252 188 622.752 188H611.652C609.152 188 607.902 186.7 607.902 184.1V176.3C607.902 173.7 609.152 172.4 611.652 172.4H614.892V176.3H613.152C611.652 176.3 610.902 176.95 610.902 178.25V181.31C612.522 180.57 614.622 180.2 617.202 180.2C619.782 180.2 621.882 180.57 623.502 181.31ZM611.112 183.17C611.432 183.79 612.112 184.1 613.152 184.1H621.252C622.292 184.1 622.972 183.79 623.292 183.17C621.912 182.19 619.882 181.7 617.202 181.7C614.522 181.7 612.492 182.19 611.112 183.17ZM613.744 164.9C612.244 164.9 611.494 165.45 611.494 166.55C611.494 167.65 612.244 168.2 613.744 168.2H617.194V171.8H612.244C609.744 171.8 608.494 170.5 608.494 167.9V165.2C608.494 162.6 609.744 161.3 612.244 161.3H622.144C624.644 161.3 625.894 162.6 625.894 165.2L622.894 166.55C622.894 165.45 622.144 164.9 620.644 164.9H613.744ZM632.494 181.4C634.494 181.4 635.494 182.4 635.494 184.4C635.494 186.4 634.494 187.4 632.494 187.4C630.494 187.4 629.494 186.4 629.494 184.4C629.494 182.4 630.494 181.4 632.494 181.4ZM632.494 173C634.494 173 635.494 174 635.494 176C635.494 178 634.494 179 632.494 179C630.494 179 629.494 178 629.494 176C629.494 174 630.494 173 632.494 173Z" fill="#EAE2B7"/>
<path d="M455.204 178.25V184.1C455.204 186.7 453.954 188 451.454 188H448.244V184.1H449.954C451.454 184.1 452.204 183.45 452.204 182.15V178.25C452.204 176.95 451.454 176.3 449.954 176.3H441.854C440.354 176.3 439.604 176.95 439.604 178.25V182.15C439.604 183.45 440.354 184.1 441.854 184.1H443.594V188H440.354C437.854 188 436.604 186.7 436.604 184.1V176.3C436.604 173.7 437.854 172.4 440.354 172.4H451.454C452.374 172.4 453.124 172.58 453.704 172.94C454.284 172.58 455.034 172.4 455.954 172.4H467.054C469.554 172.4 470.804 173.7 470.804 176.3V184.1C470.804 186.7 469.554 188 467.054 188H460.004V184.1H465.554C467.054 184.1 467.804 183.45 467.804 182.15V178.25C467.804 176.95 467.054 176.3 465.554 176.3H457.454C455.954 176.3 455.204 176.95 455.204 178.25ZM468.711 193.25C468.711 194.55 469.461 195.2 470.961 195.2H471.561C473.061 195.2 473.811 194.55 473.811 193.25V172.4H476.811V195.2C476.811 197.8 475.561 199.1 473.061 199.1H469.461C466.961 199.1 465.711 197.8 465.711 195.2V188.6H468.711V193.25ZM479.066 176.3C477.566 176.3 476.816 176.95 476.816 178.25L473.816 176.3C473.816 173.7 475.066 172.4 477.566 172.4H488.666C491.166 172.4 492.416 173.7 492.416 176.3V184.1C492.416 186.7 491.166 188 488.666 188H481.616V184.1H487.166C488.666 184.1 489.416 183.45 489.416 182.15V178.25C489.416 176.95 488.666 176.3 487.166 176.3H479.066ZM498.402 181.4C500.402 181.4 501.402 182.4 501.402 184.4C501.402 186.4 500.402 187.4 498.402 187.4C496.402 187.4 495.402 186.4 495.402 184.4C495.402 182.4 496.402 181.4 498.402 181.4ZM498.402 173C500.402 173 501.402 174 501.402 176C501.402 178 500.402 179 498.402 179C496.402 179 495.402 178 495.402 176C495.402 174 496.402 173 498.402 173Z" fill="#D62828"/>
</svg>
