<svg width="820" height="360" viewBox="0 0 820 360" fill="none" xmlns="http://www.w3.org/2000/svg">
<rect width="820" height="360" fill="#1D3557"/>
<path d="M326.559 232.254V222.732L327.765 222.161H327.828V226.63H331.573V222.732L332.779 222.161H332.843V231.683L331.637 232.254H331.573V227.785H327.828V231.683L326.622 232.254H326.559ZM336.969 232C335.699 232 335.064 231.365 335.064 230.096V226.922C335.064 225.652 335.699 225.018 336.969 225.018H338.429C339.698 225.018 340.333 225.652 340.333 226.922V227.258L336.353 230.337C336.412 230.684 336.618 230.857 336.969 230.857H338.429C338.852 230.857 339.063 230.604 339.063 230.096V229.759L340.27 229.188H340.333V230.096C340.333 231.365 339.698 232 338.429 232H336.969ZM336.334 229.01L339.057 226.814C339.032 226.378 338.822 226.16 338.429 226.16H336.969C336.546 226.16 336.334 226.414 336.334 226.922V229.01ZM342.237 232.254V226.922C342.237 225.652 342.872 225.018 344.142 225.018H345.729V225.081L345.221 226.16H344.142C343.718 226.16 343.507 226.414 343.507 226.922V231.683L342.301 232.254H342.237ZM346.808 232.254V226.922C346.808 225.652 347.442 225.018 348.712 225.018H350.172C350.756 225.018 351.179 225.174 351.441 225.487C351.721 225.174 352.144 225.018 352.711 225.018H354.171C355.44 225.018 356.075 225.652 356.075 226.922V231.683L354.869 232.254H354.806V226.922C354.806 226.414 354.594 226.16 354.171 226.16H352.711C352.288 226.16 352.076 226.414 352.076 226.922V231.683L350.87 232.254H350.807V226.922C350.807 226.414 350.595 226.16 350.172 226.16H348.712C348.289 226.16 348.077 226.414 348.077 226.922V231.683L346.871 232.254H346.808ZM359.566 230.857H360.899C361.323 230.857 361.534 230.604 361.534 230.096V229.226C361.534 228.718 361.323 228.464 360.899 228.464H359.566C359.143 228.464 358.932 228.718 358.932 229.226V230.096C358.932 230.604 359.143 230.857 359.566 230.857ZM359.566 232C358.297 232 357.662 231.365 357.662 230.096V229.226C357.662 227.957 358.297 227.322 359.566 227.322H360.899C361.119 227.322 361.331 227.385 361.534 227.512V226.922C361.534 226.414 361.323 226.16 360.899 226.16H358.627V226.097L359.135 225.018H360.899C362.169 225.018 362.804 225.652 362.804 226.922V231.683L361.598 232.254H361.534V231.81C361.373 231.937 361.162 232 360.899 232H359.566ZM364.708 232.254V226.922C364.708 225.652 365.343 225.018 366.612 225.018H368.072C369.342 225.018 369.977 225.652 369.977 226.922V231.683L368.771 232.254H368.707V226.922C368.707 226.414 368.495 226.16 368.072 226.16H366.612C366.189 226.16 365.978 226.414 365.978 226.922V231.683L364.771 232.254H364.708ZM377.276 232.254V222.732L378.482 222.161H378.546V226.63H382.291V222.732L383.497 222.161H383.561V231.683L382.354 232.254H382.291V227.785H378.546V231.683L377.34 232.254H377.276ZM387.687 232C386.417 232 385.782 231.365 385.782 230.096V226.922C385.782 225.652 386.417 225.018 387.687 225.018H389.146C390.416 225.018 391.051 225.652 391.051 226.922V227.258L387.071 230.337C387.13 230.684 387.335 230.857 387.687 230.857H389.146C389.57 230.857 389.781 230.604 389.781 230.096V229.759L390.987 229.188H391.051V230.096C391.051 231.365 390.416 232 389.146 232H387.687ZM387.052 229.01L389.775 226.814C389.75 226.378 389.54 226.16 389.146 226.16H387.687C387.263 226.16 387.052 226.414 387.052 226.922V229.01ZM394.669 232C393.399 232 392.765 231.365 392.765 230.096V229.867L393.971 229.296H394.034V230.096C394.034 230.604 394.246 230.857 394.669 230.857H396.129C396.552 230.857 396.764 230.604 396.764 230.096V229.594C396.764 229.086 396.552 228.833 396.129 228.833H394.936C393.666 228.833 393.031 228.196 393.031 226.922C393.031 225.652 393.666 225.018 394.936 225.018H395.678C396.948 225.018 397.583 225.53 397.583 226.554L396.376 227.125H396.313V226.922C396.313 226.414 396.101 226.16 395.678 226.16H394.936C394.512 226.16 394.301 226.414 394.301 226.922C394.301 227.434 394.512 227.69 394.936 227.69H396.129C397.398 227.69 398.033 228.325 398.033 229.594V230.096C398.033 231.365 397.398 232 396.129 232H394.669ZM401.461 232C400.191 232 399.557 231.365 399.557 230.096V229.867L400.763 229.296H400.826V230.096C400.826 230.604 401.038 230.857 401.461 230.857H402.921C403.344 230.857 403.556 230.604 403.556 230.096V229.594C403.556 229.086 403.344 228.833 402.921 228.833H401.728C400.458 228.833 399.823 228.196 399.823 226.922C399.823 225.652 400.458 225.018 401.728 225.018H402.47C403.74 225.018 404.375 225.53 404.375 226.554L403.168 227.125H403.105V226.922C403.105 226.414 402.893 226.16 402.47 226.16H401.728C401.304 226.16 401.093 226.414 401.093 226.922C401.093 227.434 401.304 227.69 401.728 227.69H402.921C404.19 227.69 404.825 228.325 404.825 229.594V230.096C404.825 231.365 404.19 232 402.921 232H401.461ZM408.443 232C407.174 232 406.539 231.365 406.539 230.096V226.922C406.539 225.652 407.174 225.018 408.443 225.018H409.903C411.173 225.018 411.808 225.652 411.808 226.922V227.258L407.828 230.337C407.887 230.684 408.092 230.857 408.443 230.857H409.903C410.326 230.857 410.538 230.604 410.538 230.096V229.759L411.744 229.188H411.808V230.096C411.808 231.365 411.173 232 409.903 232H408.443ZM407.809 229.01L410.532 226.814C410.506 226.378 410.297 226.16 409.903 226.16H408.443C408.02 226.16 407.809 226.414 407.809 226.922V229.01ZM418.79 227.785V227.722L419.304 226.63H424.592V226.693L424.078 227.785H418.79ZM433.859 232C432.378 232 431.638 231.259 431.638 229.778V229.08L432.844 228.509H432.907V229.778C432.907 230.498 433.225 230.857 433.859 230.857H435.827C436.462 230.857 436.779 230.498 436.779 229.778V228.445C436.779 227.726 436.462 227.366 435.827 227.366H434.113C432.844 227.366 432.209 226.731 432.209 225.462V224.319C432.209 223.05 432.844 222.415 434.113 222.415H435.573C436.843 222.415 437.478 223.05 437.478 224.319V224.656L436.271 225.227H436.208V224.319C436.208 223.812 435.996 223.558 435.573 223.558H434.113C433.69 223.558 433.479 223.812 433.479 224.319V225.462C433.479 225.97 433.69 226.224 434.113 226.224H435.827C437.308 226.224 438.049 226.964 438.049 228.445V229.778C438.049 231.259 437.308 232 435.827 232H433.859ZM440.429 223.615C440.281 223.462 440.207 223.28 440.207 223.069C440.207 222.853 440.281 222.669 440.429 222.517C440.577 222.364 440.757 222.288 440.969 222.288C441.18 222.288 441.36 222.364 441.508 222.517C441.656 222.669 441.73 222.853 441.73 223.069C441.73 223.28 441.656 223.462 441.508 223.615C441.36 223.767 441.18 223.843 440.969 223.843C440.757 223.843 440.577 223.767 440.429 223.615ZM440.334 232.254V225.335L441.54 224.764H441.604V231.683L440.397 232.254H440.334ZM445.729 232C444.46 232 443.825 231.365 443.825 230.096V226.922C443.825 225.652 444.46 225.018 445.729 225.018H447.189C447.477 225.018 447.689 225.083 447.824 225.214V222.732L449.03 222.161H449.094V230.096C449.094 231.365 448.459 232 447.189 232H445.729ZM445.729 230.857H447.189C447.613 230.857 447.824 230.604 447.824 230.096V226.922C447.824 226.414 447.613 226.16 447.189 226.16H445.729C445.306 226.16 445.095 226.414 445.095 226.922V230.096C445.095 230.604 445.306 230.857 445.729 230.857ZM453.22 232C451.95 232 451.315 231.365 451.315 230.096V226.922C451.315 225.652 451.95 225.018 453.22 225.018H454.68C454.967 225.018 455.179 225.083 455.314 225.214V222.732L456.521 222.161H456.584V230.096C456.584 231.365 455.949 232 454.68 232H453.22ZM453.22 230.857H454.68C455.103 230.857 455.314 230.604 455.314 230.096V226.922C455.314 226.414 455.103 226.16 454.68 226.16H453.22C452.797 226.16 452.585 226.414 452.585 226.922V230.096C452.585 230.604 452.797 230.857 453.22 230.857ZM459.123 232.254V222.732L460.329 222.161H460.393V225.214C460.579 225.083 460.79 225.018 461.027 225.018H462.487C463.757 225.018 464.392 225.652 464.392 226.922V231.683L463.186 232.254H463.122V226.922C463.122 226.414 462.91 226.16 462.487 226.16H461.027C460.604 226.16 460.393 226.414 460.393 226.922V231.683L459.187 232.254H459.123ZM467.883 230.857H469.216C469.639 230.857 469.851 230.604 469.851 230.096V229.226C469.851 228.718 469.639 228.464 469.216 228.464H467.883C467.46 228.464 467.248 228.718 467.248 229.226V230.096C467.248 230.604 467.46 230.857 467.883 230.857ZM467.883 232C466.613 232 465.979 231.365 465.979 230.096V229.226C465.979 227.957 466.613 227.322 467.883 227.322H469.216C469.436 227.322 469.647 227.385 469.851 227.512V226.922C469.851 226.414 469.639 226.16 469.216 226.16H466.943V226.097L467.451 225.018H469.216C470.485 225.018 471.12 225.652 471.12 226.922V231.683L469.914 232.254H469.851V231.81C469.69 231.937 469.478 232 469.216 232H467.883ZM473.024 232.254V226.922C473.024 225.652 473.659 225.018 474.929 225.018H476.516V225.081L476.008 226.16H474.929C474.506 226.16 474.294 226.414 474.294 226.922V231.683L473.088 232.254H473.024ZM478.433 232.254V226.173H476.801V226.109L477.315 225.018H478.433V222.732L479.639 222.161H479.702V225.018H481.333V225.081L480.819 226.173H479.702V231.683L478.496 232.254H478.433ZM482.762 232.254V222.732L483.968 222.161H484.031V225.214C484.217 225.083 484.429 225.018 484.666 225.018H486.126C487.396 225.018 488.03 225.652 488.03 226.922V231.683L486.824 232.254H486.761V226.922C486.761 226.414 486.549 226.16 486.126 226.16H484.666C484.243 226.16 484.031 226.414 484.031 226.922V231.683L482.825 232.254H482.762ZM491.521 230.857H492.854C493.278 230.857 493.489 230.604 493.489 230.096V229.226C493.489 228.718 493.278 228.464 492.854 228.464H491.521C491.098 228.464 490.887 228.718 490.887 229.226V230.096C490.887 230.604 491.098 230.857 491.521 230.857ZM491.521 232C490.252 232 489.617 231.365 489.617 230.096V229.226C489.617 227.957 490.252 227.322 491.521 227.322H492.854C493.075 227.322 493.286 227.385 493.489 227.512V226.922C493.489 226.414 493.278 226.16 492.854 226.16H490.582V226.097L491.09 225.018H492.854C494.124 225.018 494.759 225.652 494.759 226.922V231.683L493.553 232.254H493.489V231.81C493.328 231.937 493.117 232 492.854 232H491.521Z" fill="#A8DADC"/>
<path d="M102.771 165.24L103.568 166.168C102.171 167.59 101.472 168.926 101.472 170.176C101.472 171.673 102.3 172.959 103.958 174.035L100.433 175.705H100.247C98.8988 174.382 98.2246 172.872 98.2246 171.178C98.2246 168.815 99.7399 166.836 102.771 165.24ZM108.615 165.24L109.413 166.168C108.015 167.59 107.316 168.926 107.316 170.176C107.316 171.673 108.145 172.959 109.803 174.035L106.277 175.705H106.092C104.743 174.382 104.069 172.872 104.069 171.178C104.069 168.815 105.585 166.836 108.615 165.24ZM116.575 169.489C116.142 169.044 115.926 168.512 115.926 167.894C115.926 167.263 116.142 166.725 116.575 166.279C117.008 165.834 117.534 165.611 118.152 165.611C118.771 165.611 119.297 165.834 119.729 166.279C120.162 166.725 120.379 167.263 120.379 167.894C120.379 168.512 120.162 169.044 119.729 169.489C119.297 169.935 118.771 170.157 118.152 170.157C117.534 170.157 117.008 169.935 116.575 169.489ZM116.297 194.742V174.518L119.822 172.848H120.008V193.072L116.482 194.742H116.297ZM146.912 194C143.201 194 141.346 192.145 141.346 188.434V179.156C141.346 175.445 143.201 173.59 146.912 173.59H151.18C154.891 173.59 156.746 175.445 156.746 179.156V180.14L153.221 181.81H153.035V179.156C153.035 177.672 152.417 176.93 151.18 176.93H146.912C145.675 176.93 145.057 177.672 145.057 179.156V188.434C145.057 189.918 145.675 190.66 146.912 190.66H151.18C152.417 190.66 153.035 189.918 153.035 188.434V187.45L156.561 185.78H156.746V188.434C156.746 192.145 154.891 194 151.18 194H146.912ZM166.951 190.66H170.848C172.085 190.66 172.703 189.918 172.703 188.434V185.892C172.703 184.407 172.085 183.665 170.848 183.665H166.951C165.714 183.665 165.096 184.407 165.096 185.892V188.434C165.096 189.918 165.714 190.66 166.951 190.66ZM166.951 194C163.24 194 161.385 192.145 161.385 188.434V185.892C161.385 182.181 163.24 180.325 166.951 180.325H170.848C171.491 180.325 172.109 180.511 172.703 180.882V179.156C172.703 177.672 172.085 176.93 170.848 176.93H164.205V176.744L165.689 173.59H170.848C174.559 173.59 176.414 175.445 176.414 179.156V193.072L172.889 194.742H172.703V193.443C172.233 193.814 171.615 194 170.848 194H166.951ZM181.98 194.742V179.156C181.98 175.445 183.836 173.59 187.547 173.59H191.814C195.525 173.59 197.381 175.445 197.381 179.156V193.072L193.855 194.742H193.67V179.156C193.67 177.672 193.051 176.93 191.814 176.93H187.547C186.31 176.93 185.691 177.672 185.691 179.156V193.072L182.166 194.742H181.98ZM365.561 194C361.85 194 359.994 192.145 359.994 188.434V179.156C359.994 175.445 361.85 173.59 365.561 173.59H369.828C373.539 173.59 375.395 175.445 375.395 179.156V180.14L371.869 181.81H371.684V179.156C371.684 177.672 371.065 176.93 369.828 176.93H365.561C364.324 176.93 363.705 177.672 363.705 179.156V188.434C363.705 189.918 364.324 190.66 365.561 190.66H369.828C371.065 190.66 371.684 189.918 371.684 188.434V187.45L375.209 185.78H375.395V188.434C375.395 192.145 373.539 194 369.828 194H365.561ZM385.6 190.66H389.496C390.733 190.66 391.352 189.918 391.352 188.434V185.892C391.352 184.407 390.733 183.665 389.496 183.665H385.6C384.363 183.665 383.744 184.407 383.744 185.892V188.434C383.744 189.918 384.363 190.66 385.6 190.66ZM385.6 194C381.889 194 380.033 192.145 380.033 188.434V185.892C380.033 182.181 381.889 180.325 385.6 180.325H389.496C390.139 180.325 390.758 180.511 391.352 180.882V179.156C391.352 177.672 390.733 176.93 389.496 176.93H382.854V176.744L384.338 173.59H389.496C393.207 173.59 395.062 175.445 395.062 179.156V193.072L391.537 194.742H391.352V193.443C390.882 193.814 390.263 194 389.496 194H385.6ZM400.629 194.742V179.156C400.629 175.445 402.484 173.59 406.195 173.59H410.463C414.174 173.59 416.029 175.445 416.029 179.156V193.072L412.504 194.742H412.318V179.156C412.318 177.672 411.7 176.93 410.463 176.93H406.195C404.958 176.93 404.34 177.672 404.34 179.156V193.072L400.814 194.742H400.629ZM541.44 169.489C541.007 169.044 540.791 168.512 540.791 167.894C540.791 167.263 541.007 166.725 541.44 166.279C541.873 165.834 542.399 165.611 543.018 165.611C543.636 165.611 544.162 165.834 544.595 166.279C545.028 166.725 545.244 167.263 545.244 167.894C545.244 168.512 545.028 169.044 544.595 169.489C544.162 169.935 543.636 170.157 543.018 170.157C542.399 170.157 541.873 169.935 541.44 169.489ZM541.162 194.742V174.518L544.688 172.848H544.873V193.072L541.348 194.742H541.162ZM571.777 194C568.066 194 566.211 192.145 566.211 188.434V179.156C566.211 175.445 568.066 173.59 571.777 173.59H576.045C579.756 173.59 581.611 175.445 581.611 179.156V180.14L578.086 181.81H577.9V179.156C577.9 177.672 577.282 176.93 576.045 176.93H571.777C570.54 176.93 569.922 177.672 569.922 179.156V188.434C569.922 189.918 570.54 190.66 571.777 190.66H576.045C577.282 190.66 577.9 189.918 577.9 188.434V187.45L581.426 185.78H581.611V188.434C581.611 192.145 579.756 194 576.045 194H571.777ZM591.816 190.66H595.713C596.95 190.66 597.568 189.918 597.568 188.434V185.892C597.568 184.407 596.95 183.665 595.713 183.665H591.816C590.579 183.665 589.961 184.407 589.961 185.892V188.434C589.961 189.918 590.579 190.66 591.816 190.66ZM591.816 194C588.105 194 586.25 192.145 586.25 188.434V185.892C586.25 182.181 588.105 180.325 591.816 180.325H595.713C596.356 180.325 596.975 180.511 597.568 180.882V179.156C597.568 177.672 596.95 176.93 595.713 176.93H589.07V176.744L590.555 173.59H595.713C599.424 173.59 601.279 175.445 601.279 179.156V193.072L597.754 194.742H597.568V193.443C597.098 193.814 596.48 194 595.713 194H591.816ZM606.846 194.742V179.156C606.846 175.445 608.701 173.59 612.412 173.59H616.68C620.391 173.59 622.246 175.445 622.246 179.156V193.072L618.721 194.742H618.535V179.156C618.535 177.672 617.917 176.93 616.68 176.93H612.412C611.175 176.93 610.557 177.672 610.557 179.156V193.072L607.031 194.742H606.846Z" fill="#457B9D"/>
<path d="M220.24 194.742V176.967H215.472V176.781L216.975 173.59H220.24V166.91L223.766 165.24H223.951V173.59H228.72V173.775L227.217 176.967H223.951V193.072L220.426 194.742H220.24ZM232.895 194.742V166.91L236.42 165.24H236.605V174.165C237.15 173.782 237.768 173.59 238.461 173.59H242.729C246.439 173.59 248.295 175.445 248.295 179.156V193.072L244.77 194.742H244.584V179.156C244.584 177.672 243.965 176.93 242.729 176.93H238.461C237.224 176.93 236.605 177.672 236.605 179.156V193.072L233.08 194.742H232.895ZM255.067 169.489C254.634 169.044 254.418 168.512 254.418 167.894C254.418 167.263 254.634 166.725 255.067 166.279C255.5 165.834 256.026 165.611 256.645 165.611C257.263 165.611 257.789 165.834 258.222 166.279C258.655 166.725 258.871 167.263 258.871 167.894C258.871 168.512 258.655 169.044 258.222 169.489C257.789 169.935 257.263 170.157 256.645 170.157C256.026 170.157 255.5 169.935 255.067 169.489ZM254.789 194.742V174.518L258.314 172.848H258.5V193.072L254.975 194.742H254.789ZM264.994 194.742V179.156C264.994 175.445 266.85 173.59 270.561 173.59H274.828C278.539 173.59 280.395 175.445 280.395 179.156V193.072L276.869 194.742H276.684V179.156C276.684 177.672 276.065 176.93 274.828 176.93H270.561C269.324 176.93 268.705 177.672 268.705 179.156V193.072L265.18 194.742H264.994ZM286.889 194.742V166.91L290.414 165.24H290.6V180.27C290.76 180.232 290.934 180.201 291.119 180.177L298.355 172.848H298.541L301.807 174.388L295.609 180.084H296.723C300.434 180.084 302.289 181.939 302.289 185.65V193.072L298.764 194.742H298.578V185.65C298.578 184.166 297.96 183.424 296.723 183.424H292.455C291.218 183.424 290.6 184.166 290.6 185.65V193.072L287.074 194.742H286.889ZM311.381 188.842H311.566C312.915 190.165 313.589 191.674 313.589 193.369C313.589 195.732 312.074 197.711 309.043 199.307L308.245 198.379C309.643 196.956 310.342 195.62 310.342 194.371C310.342 192.874 309.513 191.588 307.855 190.512L311.381 188.842ZM335.224 169.489C334.791 169.044 334.574 168.512 334.574 167.894C334.574 167.263 334.791 166.725 335.224 166.279C335.657 165.834 336.182 165.611 336.801 165.611C337.419 165.611 337.945 165.834 338.378 166.279C338.811 166.725 339.027 167.263 339.027 167.894C339.027 168.512 338.811 169.044 338.378 169.489C337.945 169.935 337.419 170.157 336.801 170.157C336.182 170.157 335.657 169.935 335.224 169.489ZM334.945 194.742V174.518L338.471 172.848H338.656V193.072L335.131 194.742H334.945ZM442.006 194C438.295 194 436.439 192.145 436.439 188.434V174.518L439.965 172.848H440.15V188.434C440.15 189.918 440.769 190.66 442.006 190.66H446.273C447.51 190.66 448.129 189.918 448.129 188.434V174.518L451.654 172.848H451.84V188.434C451.84 189.918 452.458 190.66 453.695 190.66H457.963C459.2 190.66 459.818 189.918 459.818 188.434V174.518L463.344 172.848H463.529V188.434C463.529 192.145 461.674 194 457.963 194H453.695C451.988 194 450.751 193.542 449.984 192.627C449.168 193.542 447.931 194 446.273 194H442.006ZM473.734 190.66H477.631C478.868 190.66 479.486 189.918 479.486 188.434V185.892C479.486 184.407 478.868 183.665 477.631 183.665H473.734C472.497 183.665 471.879 184.407 471.879 185.892V188.434C471.879 189.918 472.497 190.66 473.734 190.66ZM473.734 194C470.023 194 468.168 192.145 468.168 188.434V185.892C468.168 182.181 470.023 180.325 473.734 180.325H477.631C478.274 180.325 478.893 180.511 479.486 180.882V179.156C479.486 177.672 478.868 176.93 477.631 176.93H470.988V176.744L472.473 173.59H477.631C481.342 173.59 483.197 175.445 483.197 179.156V193.072L479.672 194.742H479.486V193.443C479.016 193.814 478.398 194 477.631 194H473.734ZM489.97 169.489C489.537 169.044 489.32 168.512 489.32 167.894C489.32 167.263 489.537 166.725 489.97 166.279C490.403 165.834 490.928 165.611 491.547 165.611C492.165 165.611 492.691 165.834 493.124 166.279C493.557 166.725 493.773 167.263 493.773 167.894C493.773 168.512 493.557 169.044 493.124 169.489C492.691 169.935 492.165 170.157 491.547 170.157C490.928 170.157 490.403 169.935 489.97 169.489ZM489.691 194.742V174.518L493.217 172.848H493.402V193.072L489.877 194.742H489.691ZM502.346 194.742V176.967H497.577V176.781L499.08 173.59H502.346V166.91L505.871 165.24H506.057V173.59H510.825V173.775L509.322 176.967H506.057V193.072L502.531 194.742H502.346ZM517.598 188.842H517.783C519.132 190.165 519.806 191.674 519.806 193.369C519.806 195.732 518.29 197.711 515.26 199.307L514.462 198.379C515.86 196.956 516.559 195.62 516.559 194.371C516.559 192.874 515.73 191.588 514.072 190.512L517.598 188.842ZM643.584 194.742V178.822H640.801V178.637L642.304 175.445H643.584V171.549C643.584 167.838 645.439 165.982 649.15 165.982H653.789V166.168L652.305 169.322H649.15C647.913 169.322 647.295 170.064 647.295 171.549V175.445H653.437V175.631L651.934 178.822H647.295V193.072L643.77 194.742H643.584ZM662.139 190.66H666.035C667.272 190.66 667.891 189.918 667.891 188.434V185.892C667.891 184.407 667.272 183.665 666.035 183.665H662.139C660.902 183.665 660.283 184.407 660.283 185.892V188.434C660.283 189.918 660.902 190.66 662.139 190.66ZM662.139 194C658.428 194 656.572 192.145 656.572 188.434V185.892C656.572 182.181 658.428 180.325 662.139 180.325H666.035C666.678 180.325 667.297 180.511 667.891 180.882V179.156C667.891 177.672 667.272 176.93 666.035 176.93H659.393V176.744L660.877 173.59H666.035C669.746 173.59 671.602 175.445 671.602 179.156V193.072L668.076 194.742H667.891V193.443C667.421 193.814 666.802 194 666.035 194H662.139ZM682.178 194C678.467 194 676.611 192.145 676.611 188.434V187.766L680.137 186.096H680.322V188.434C680.322 189.918 680.941 190.66 682.178 190.66H686.445C687.682 190.66 688.301 189.918 688.301 188.434V186.968C688.301 185.483 687.682 184.741 686.445 184.741H682.957C679.246 184.741 677.391 182.88 677.391 179.156C677.391 175.445 679.246 173.59 682.957 173.59H685.128C688.839 173.59 690.694 175.087 690.694 178.08L687.169 179.75H686.983V179.156C686.983 177.672 686.365 176.93 685.128 176.93H682.957C681.72 176.93 681.102 177.672 681.102 179.156C681.102 180.653 681.72 181.401 682.957 181.401H686.445C690.156 181.401 692.012 183.257 692.012 186.968V188.434C692.012 192.145 690.156 194 686.445 194H682.178ZM699.471 194.742V176.967H694.702V176.781L696.205 173.59H699.471V166.91L702.996 165.24H703.182V173.59H707.95V173.775L706.447 176.967H703.182V193.072L699.656 194.742H699.471ZM720.567 165.24H720.753C722.101 166.564 722.775 168.073 722.775 169.768C722.775 172.13 721.26 174.109 718.229 175.705L717.432 174.777C718.829 173.355 719.528 172.019 719.528 170.77C719.528 169.273 718.7 167.986 717.042 166.91L720.567 165.24ZM714.723 165.24H714.908C716.257 166.564 716.931 168.073 716.931 169.768C716.931 172.13 715.415 174.109 712.385 175.705L711.587 174.777C712.985 173.355 713.684 172.019 713.684 170.77C713.684 169.273 712.855 167.986 711.197 166.91L714.723 165.24Z" fill="#A8DADC"/>
</svg>
