<svg width="820" height="360" viewBox="0 0 820 360" fill="none" xmlns="http://www.w3.org/2000/svg">
<rect width="820" height="360" fill="#1D3557"/>
<path d="M322.472 232.254V222.732L323.678 222.161H323.742V226.63H327.487V222.732L328.693 222.161H328.756V231.683L327.55 232.254H327.487V227.785H323.742V231.683L322.536 232.254H322.472ZM332.882 232C331.613 232 330.978 231.365 330.978 230.096V226.922C330.978 225.652 331.613 225.018 332.882 225.018H334.342C335.612 225.018 336.247 225.652 336.247 226.922V227.258L332.267 230.337C332.326 230.684 332.531 230.857 332.882 230.857H334.342C334.765 230.857 334.977 230.604 334.977 230.096V229.759L336.183 229.188H336.247V230.096C336.247 231.365 335.612 232 334.342 232H332.882ZM332.248 229.01L334.971 226.814C334.945 226.378 334.736 226.16 334.342 226.16H332.882C332.459 226.16 332.248 226.414 332.248 226.922V229.01ZM338.151 232.254V226.922C338.151 225.652 338.786 225.018 340.055 225.018H341.642V225.081L341.134 226.16H340.055C339.632 226.16 339.42 226.414 339.42 226.922V231.683L338.214 232.254H338.151ZM342.721 232.254V226.922C342.721 225.652 343.356 225.018 344.625 225.018H346.085C346.669 225.018 347.093 225.174 347.355 225.487C347.634 225.174 348.057 225.018 348.625 225.018H350.084C351.354 225.018 351.989 225.652 351.989 226.922V231.683L350.783 232.254H350.719V226.922C350.719 226.414 350.508 226.16 350.084 226.16H348.625C348.201 226.16 347.99 226.414 347.99 226.922V231.683L346.784 232.254H346.72V226.922C346.72 226.414 346.509 226.16 346.085 226.16H344.625C344.202 226.16 343.991 226.414 343.991 226.922V231.683L342.785 232.254H342.721ZM355.48 230.857H356.813C357.236 230.857 357.448 230.604 357.448 230.096V229.226C357.448 228.718 357.236 228.464 356.813 228.464H355.48C355.057 228.464 354.845 228.718 354.845 229.226V230.096C354.845 230.604 355.057 230.857 355.48 230.857ZM355.48 232C354.21 232 353.576 231.365 353.576 230.096V229.226C353.576 227.957 354.21 227.322 355.48 227.322H356.813C357.033 227.322 357.245 227.385 357.448 227.512V226.922C357.448 226.414 357.236 226.16 356.813 226.16H354.541V226.097L355.048 225.018H356.813C358.083 225.018 358.717 225.652 358.717 226.922V231.683L357.511 232.254H357.448V231.81C357.287 231.937 357.075 232 356.813 232H355.48ZM360.622 232.254V226.922C360.622 225.652 361.256 225.018 362.526 225.018H363.986C365.255 225.018 365.89 225.652 365.89 226.922V231.683L364.684 232.254H364.621V226.922C364.621 226.414 364.409 226.16 363.986 226.16H362.526C362.103 226.16 361.891 226.414 361.891 226.922V231.683L360.685 232.254H360.622ZM367.794 232.254V226.922C367.794 225.652 368.429 225.018 369.699 225.018H371.159C372.428 225.018 373.063 225.652 373.063 226.922V231.683L371.857 232.254H371.793V226.922C371.793 226.414 371.582 226.16 371.159 226.16H369.699C369.276 226.16 369.064 226.414 369.064 226.922V231.683L367.858 232.254H367.794ZM380.363 232.254V222.732L381.569 222.161H381.632V226.63H385.377V222.732L386.583 222.161H386.647V231.683L385.441 232.254H385.377V227.785H381.632V231.683L380.426 232.254H380.363ZM390.773 232C389.503 232 388.869 231.365 388.869 230.096V226.922C388.869 225.652 389.503 225.018 390.773 225.018H392.233C393.502 225.018 394.137 225.652 394.137 226.922V227.258L390.157 230.337C390.216 230.684 390.422 230.857 390.773 230.857H392.233C392.656 230.857 392.868 230.604 392.868 230.096V229.759L394.074 229.188H394.137V230.096C394.137 231.365 393.502 232 392.233 232H390.773ZM390.138 229.01L392.861 226.814C392.836 226.378 392.626 226.16 392.233 226.16H390.773C390.35 226.16 390.138 226.414 390.138 226.922V229.01ZM397.755 232C396.486 232 395.851 231.365 395.851 230.096V229.867L397.057 229.296H397.121V230.096C397.121 230.604 397.332 230.857 397.755 230.857H399.215C399.639 230.857 399.85 230.604 399.85 230.096V229.594C399.85 229.086 399.639 228.833 399.215 228.833H398.022C396.752 228.833 396.118 228.196 396.118 226.922C396.118 225.652 396.752 225.018 398.022 225.018H398.765C400.034 225.018 400.669 225.53 400.669 226.554L399.463 227.125H399.399V226.922C399.399 226.414 399.188 226.16 398.765 226.16H398.022C397.599 226.16 397.387 226.414 397.387 226.922C397.387 227.434 397.599 227.69 398.022 227.69H399.215C400.485 227.69 401.12 228.325 401.12 229.594V230.096C401.12 231.365 400.485 232 399.215 232H397.755ZM404.547 232C403.278 232 402.643 231.365 402.643 230.096V229.867L403.849 229.296H403.913V230.096C403.913 230.604 404.124 230.857 404.547 230.857H406.007C406.431 230.857 406.642 230.604 406.642 230.096V229.594C406.642 229.086 406.431 228.833 406.007 228.833H404.814C403.544 228.833 402.91 228.196 402.91 226.922C402.91 225.652 403.544 225.018 404.814 225.018H405.557C406.826 225.018 407.461 225.53 407.461 226.554L406.255 227.125H406.191V226.922C406.191 226.414 405.98 226.16 405.557 226.16H404.814C404.391 226.16 404.179 226.414 404.179 226.922C404.179 227.434 404.391 227.69 404.814 227.69H406.007C407.277 227.69 407.912 228.325 407.912 229.594V230.096C407.912 231.365 407.277 232 406.007 232H404.547ZM411.53 232C410.26 232 409.625 231.365 409.625 230.096V226.922C409.625 225.652 410.26 225.018 411.53 225.018H412.99C414.259 225.018 414.894 225.652 414.894 226.922V227.258L410.914 230.337C410.973 230.684 411.179 230.857 411.53 230.857H412.99C413.413 230.857 413.625 230.604 413.625 230.096V229.759L414.831 229.188H414.894V230.096C414.894 231.365 414.259 232 412.99 232H411.53ZM410.895 229.01L413.618 226.814C413.593 226.378 413.383 226.16 412.99 226.16H411.53C411.107 226.16 410.895 226.414 410.895 226.922V229.01ZM421.876 227.785V227.722L422.391 226.63H427.678V226.693L427.164 227.785H421.876ZM436.946 232C435.465 232 434.724 231.259 434.724 229.778V229.08L435.93 228.509H435.994V229.778C435.994 230.498 436.311 230.857 436.946 230.857H438.914C439.548 230.857 439.866 230.498 439.866 229.778V228.445C439.866 227.726 439.548 227.366 438.914 227.366H437.2C435.93 227.366 435.295 226.731 435.295 225.462V224.319C435.295 223.05 435.93 222.415 437.2 222.415H438.66C439.929 222.415 440.564 223.05 440.564 224.319V224.656L439.358 225.227H439.294V224.319C439.294 223.812 439.083 223.558 438.66 223.558H437.2C436.777 223.558 436.565 223.812 436.565 224.319V225.462C436.565 225.97 436.777 226.224 437.2 226.224H438.914C440.395 226.224 441.135 226.964 441.135 228.445V229.778C441.135 231.259 440.395 232 438.914 232H436.946ZM443.516 223.615C443.368 223.462 443.293 223.28 443.293 223.069C443.293 222.853 443.368 222.669 443.516 222.517C443.664 222.364 443.844 222.288 444.055 222.288C444.267 222.288 444.447 222.364 444.595 222.517C444.743 222.669 444.817 222.853 444.817 223.069C444.817 223.28 444.743 223.462 444.595 223.615C444.447 223.767 444.267 223.843 444.055 223.843C443.844 223.843 443.664 223.767 443.516 223.615ZM443.42 232.254V225.335L444.626 224.764H444.69V231.683L443.484 232.254H443.42ZM448.816 232C447.546 232 446.912 231.365 446.912 230.096V226.922C446.912 225.652 447.546 225.018 448.816 225.018H450.276C450.564 225.018 450.775 225.083 450.911 225.214V222.732L452.117 222.161H452.18V230.096C452.18 231.365 451.545 232 450.276 232H448.816ZM448.816 230.857H450.276C450.699 230.857 450.911 230.604 450.911 230.096V226.922C450.911 226.414 450.699 226.16 450.276 226.16H448.816C448.393 226.16 448.181 226.414 448.181 226.922V230.096C448.181 230.604 448.393 230.857 448.816 230.857ZM456.306 232C455.037 232 454.402 231.365 454.402 230.096V226.922C454.402 225.652 455.037 225.018 456.306 225.018H457.766C458.054 225.018 458.265 225.083 458.401 225.214V222.732L459.607 222.161H459.67V230.096C459.67 231.365 459.036 232 457.766 232H456.306ZM456.306 230.857H457.766C458.189 230.857 458.401 230.604 458.401 230.096V226.922C458.401 226.414 458.189 226.16 457.766 226.16H456.306C455.883 226.16 455.671 226.414 455.671 226.922V230.096C455.671 230.604 455.883 230.857 456.306 230.857ZM462.209 232.254V222.732L463.416 222.161H463.479V225.214C463.665 225.083 463.877 225.018 464.114 225.018H465.574C466.843 225.018 467.478 225.652 467.478 226.922V231.683L466.272 232.254H466.208V226.922C466.208 226.414 465.997 226.16 465.574 226.16H464.114C463.691 226.16 463.479 226.414 463.479 226.922V231.683L462.273 232.254H462.209ZM470.969 230.857H472.302C472.725 230.857 472.937 230.604 472.937 230.096V229.226C472.937 228.718 472.725 228.464 472.302 228.464H470.969C470.546 228.464 470.334 228.718 470.334 229.226V230.096C470.334 230.604 470.546 230.857 470.969 230.857ZM470.969 232C469.7 232 469.065 231.365 469.065 230.096V229.226C469.065 227.957 469.7 227.322 470.969 227.322H472.302C472.522 227.322 472.734 227.385 472.937 227.512V226.922C472.937 226.414 472.725 226.16 472.302 226.16H470.03V226.097L470.538 225.018H472.302C473.572 225.018 474.207 225.652 474.207 226.922V231.683L473 232.254H472.937V231.81C472.776 231.937 472.565 232 472.302 232H470.969ZM476.111 232.254V226.922C476.111 225.652 476.746 225.018 478.015 225.018H479.602V225.081L479.094 226.16H478.015C477.592 226.16 477.38 226.414 477.38 226.922V231.683L476.174 232.254H476.111ZM481.519 232.254V226.173H479.888V226.109L480.402 225.018H481.519V222.732L482.725 222.161H482.789V225.018H484.42V225.081L483.906 226.173H482.789V231.683L481.583 232.254H481.519ZM485.848 232.254V222.732L487.054 222.161H487.118V225.214C487.304 225.083 487.515 225.018 487.752 225.018H489.212C490.482 225.018 491.117 225.652 491.117 226.922V231.683L489.911 232.254H489.847V226.922C489.847 226.414 489.636 226.16 489.212 226.16H487.752C487.329 226.16 487.118 226.414 487.118 226.922V231.683L485.912 232.254H485.848ZM494.608 230.857H495.941C496.364 230.857 496.576 230.604 496.576 230.096V229.226C496.576 228.718 496.364 228.464 495.941 228.464H494.608C494.185 228.464 493.973 228.718 493.973 229.226V230.096C493.973 230.604 494.185 230.857 494.608 230.857ZM494.608 232C493.338 232 492.704 231.365 492.704 230.096V229.226C492.704 227.957 493.338 227.322 494.608 227.322H495.941C496.161 227.322 496.373 227.385 496.576 227.512V226.922C496.576 226.414 496.364 226.16 495.941 226.16H493.668V226.097L494.176 225.018H495.941C497.21 225.018 497.845 225.652 497.845 226.922V231.683L496.639 232.254H496.576V231.81C496.415 231.937 496.203 232 495.941 232H494.608Z" fill="#A8DADC"/>
<path d="M102.771 165.24L103.568 166.168C102.171 167.59 101.472 168.926 101.472 170.176C101.472 171.673 102.3 172.959 103.958 174.035L100.433 175.705H100.247C98.8988 174.382 98.2246 172.872 98.2246 171.178C98.2246 168.815 99.7399 166.836 102.771 165.24ZM108.615 165.24L109.413 166.168C108.015 167.59 107.316 168.926 107.316 170.176C107.316 171.673 108.145 172.959 109.803 174.035L106.277 175.705H106.092C104.743 174.382 104.069 172.872 104.069 171.178C104.069 168.815 105.585 166.836 108.615 165.24ZM116.575 169.489C116.142 169.044 115.926 168.512 115.926 167.894C115.926 167.263 116.142 166.725 116.575 166.279C117.008 165.834 117.534 165.611 118.152 165.611C118.771 165.611 119.297 165.834 119.729 166.279C120.162 166.725 120.379 167.263 120.379 167.894C120.379 168.512 120.162 169.044 119.729 169.489C119.297 169.935 118.771 170.157 118.152 170.157C117.534 170.157 117.008 169.935 116.575 169.489ZM116.297 194.742V174.518L119.822 172.848H120.008V193.072L116.482 194.742H116.297ZM146.912 194C143.201 194 141.346 192.145 141.346 188.434V179.156C141.346 175.445 143.201 173.59 146.912 173.59H151.18C154.891 173.59 156.746 175.445 156.746 179.156V180.14L153.221 181.81H153.035V179.156C153.035 177.672 152.417 176.93 151.18 176.93H146.912C145.675 176.93 145.057 177.672 145.057 179.156V188.434C145.057 189.918 145.675 190.66 146.912 190.66H151.18C152.417 190.66 153.035 189.918 153.035 188.434V187.45L156.561 185.78H156.746V188.434C156.746 192.145 154.891 194 151.18 194H146.912ZM166.951 190.66H170.848C172.085 190.66 172.703 189.918 172.703 188.434V185.892C172.703 184.407 172.085 183.665 170.848 183.665H166.951C165.714 183.665 165.096 184.407 165.096 185.892V188.434C165.096 189.918 165.714 190.66 166.951 190.66ZM166.951 194C163.24 194 161.385 192.145 161.385 188.434V185.892C161.385 182.181 163.24 180.325 166.951 180.325H170.848C171.491 180.325 172.109 180.511 172.703 180.882V179.156C172.703 177.672 172.085 176.93 170.848 176.93H164.205V176.744L165.689 173.59H170.848C174.559 173.59 176.414 175.445 176.414 179.156V193.072L172.889 194.742H172.703V193.443C172.233 193.814 171.615 194 170.848 194H166.951ZM181.98 194.742V179.156C181.98 175.445 183.836 173.59 187.547 173.59H191.814C195.525 173.59 197.381 175.445 197.381 179.156V193.072L193.855 194.742H193.67V179.156C193.67 177.672 193.051 176.93 191.814 176.93H187.547C186.31 176.93 185.691 177.672 185.691 179.156V193.072L182.166 194.742H181.98ZM365.561 194C361.85 194 359.994 192.145 359.994 188.434V179.156C359.994 175.445 361.85 173.59 365.561 173.59H369.828C373.539 173.59 375.395 175.445 375.395 179.156V180.14L371.869 181.81H371.684V179.156C371.684 177.672 371.065 176.93 369.828 176.93H365.561C364.324 176.93 363.705 177.672 363.705 179.156V188.434C363.705 189.918 364.324 190.66 365.561 190.66H369.828C371.065 190.66 371.684 189.918 371.684 188.434V187.45L375.209 185.78H375.395V188.434C375.395 192.145 373.539 194 369.828 194H365.561ZM385.6 190.66H389.496C390.733 190.66 391.352 189.918 391.352 188.434V185.892C391.352 184.407 390.733 183.665 389.496 183.665H385.6C384.363 183.665 383.744 184.407 383.744 185.892V188.434C383.744 189.918 384.363 190.66 385.6 190.66ZM385.6 194C381.889 194 380.033 192.145 380.033 188.434V185.892C380.033 182.181 381.889 180.325 385.6 180.325H389.496C390.139 180.325 390.758 180.511 391.352 180.882V179.156C391.352 177.672 390.733 176.93 389.496 176.93H382.854V176.744L384.338 173.59H389.496C393.207 173.59 395.062 175.445 395.062 179.156V193.072L391.537 194.742H391.352V193.443C390.882 193.814 390.263 194 389.496 194H385.6ZM400.629 194.742V179.156C400.629 175.445 402.484 173.59 406.195 173.59H410.463C414.174 173.59 416.029 175.445 416.029 179.156V193.072L412.504 194.742H412.318V179.156C412.318 177.672 411.7 176.93 410.463 176.93H406.195C404.958 176.93 404.34 177.672 404.34 179.156V193.072L400.814 194.742H400.629ZM541.44 169.489C541.007 169.044 540.791 168.512 540.791 167.894C540.791 167.263 541.007 166.725 541.44 166.279C541.873 165.834 542.399 165.611 543.018 165.611C543.636 165.611 544.162 165.834 544.595 166.279C545.028 166.725 545.244 167.263 545.244 167.894C545.244 168.512 545.028 169.044 544.595 169.489C544.162 169.935 543.636 170.157 543.018 170.157C542.399 170.157 541.873 169.935 541.44 169.489ZM541.162 194.742V174.518L544.688 172.848H544.873V193.072L541.348 194.742H541.162ZM571.777 194C568.066 194 566.211 192.145 566.211 188.434V179.156C566.211 175.445 568.066 173.59 571.777 173.59H576.045C579.756 173.59 581.611 175.445 581.611 179.156V180.14L578.086 181.81H577.9V179.156C577.9 177.672 577.282 176.93 576.045 176.93H571.777C570.54 176.93 569.922 177.672 569.922 179.156V188.434C569.922 189.918 570.54 190.66 571.777 190.66H576.045C577.282 190.66 577.9 189.918 577.9 188.434V187.45L581.426 185.78H581.611V188.434C581.611 192.145 579.756 194 576.045 194H571.777ZM591.816 190.66H595.713C596.95 190.66 597.568 189.918 597.568 188.434V185.892C597.568 184.407 596.95 183.665 595.713 183.665H591.816C590.579 183.665 589.961 184.407 589.961 185.892V188.434C589.961 189.918 590.579 190.66 591.816 190.66ZM591.816 194C588.105 194 586.25 192.145 586.25 188.434V185.892C586.25 182.181 588.105 180.325 591.816 180.325H595.713C596.356 180.325 596.975 180.511 597.568 180.882V179.156C597.568 177.672 596.95 176.93 595.713 176.93H589.07V176.744L590.555 173.59H595.713C599.424 173.59 601.279 175.445 601.279 179.156V193.072L597.754 194.742H597.568V193.443C597.098 193.814 596.48 194 595.713 194H591.816ZM606.846 194.742V179.156C606.846 175.445 608.701 173.59 612.412 173.59H616.68C620.391 173.59 622.246 175.445 622.246 179.156V193.072L618.721 194.742H618.535V179.156C618.535 177.672 617.917 176.93 616.68 176.93H612.412C611.175 176.93 610.557 177.672 610.557 179.156V193.072L607.031 194.742H606.846Z" fill="#457B9D"/>
<path d="M220.24 194.742V176.967H215.472V176.781L216.975 173.59H220.24V166.91L223.766 165.24H223.951V173.59H228.72V173.775L227.217 176.967H223.951V193.072L220.426 194.742H220.24ZM232.895 194.742V166.91L236.42 165.24H236.605V174.165C237.15 173.782 237.768 173.59 238.461 173.59H242.729C246.439 173.59 248.295 175.445 248.295 179.156V193.072L244.77 194.742H244.584V179.156C244.584 177.672 243.965 176.93 242.729 176.93H238.461C237.224 176.93 236.605 177.672 236.605 179.156V193.072L233.08 194.742H232.895ZM255.067 169.489C254.634 169.044 254.418 168.512 254.418 167.894C254.418 167.263 254.634 166.725 255.067 166.279C255.5 165.834 256.026 165.611 256.645 165.611C257.263 165.611 257.789 165.834 258.222 166.279C258.655 166.725 258.871 167.263 258.871 167.894C258.871 168.512 258.655 169.044 258.222 169.489C257.789 169.935 257.263 170.157 256.645 170.157C256.026 170.157 255.5 169.935 255.067 169.489ZM254.789 194.742V174.518L258.314 172.848H258.5V193.072L254.975 194.742H254.789ZM264.994 194.742V179.156C264.994 175.445 266.85 173.59 270.561 173.59H274.828C278.539 173.59 280.395 175.445 280.395 179.156V193.072L276.869 194.742H276.684V179.156C276.684 177.672 276.065 176.93 274.828 176.93H270.561C269.324 176.93 268.705 177.672 268.705 179.156V193.072L265.18 194.742H264.994ZM286.889 194.742V166.91L290.414 165.24H290.6V180.27C290.76 180.232 290.934 180.201 291.119 180.177L298.355 172.848H298.541L301.807 174.388L295.609 180.084H296.723C300.434 180.084 302.289 181.939 302.289 185.65V193.072L298.764 194.742H298.578V185.65C298.578 184.166 297.96 183.424 296.723 183.424H292.455C291.218 183.424 290.6 184.166 290.6 185.65V193.072L287.074 194.742H286.889ZM311.381 188.842H311.566C312.915 190.165 313.589 191.674 313.589 193.369C313.589 195.732 312.074 197.711 309.043 199.307L308.245 198.379C309.643 196.956 310.342 195.62 310.342 194.371C310.342 192.874 309.513 191.588 307.855 190.512L311.381 188.842ZM335.224 169.489C334.791 169.044 334.574 168.512 334.574 167.894C334.574 167.263 334.791 166.725 335.224 166.279C335.657 165.834 336.182 165.611 336.801 165.611C337.419 165.611 337.945 165.834 338.378 166.279C338.811 166.725 339.027 167.263 339.027 167.894C339.027 168.512 338.811 169.044 338.378 169.489C337.945 169.935 337.419 170.157 336.801 170.157C336.182 170.157 335.657 169.935 335.224 169.489ZM334.945 194.742V174.518L338.471 172.848H338.656V193.072L335.131 194.742H334.945ZM442.006 194C438.295 194 436.439 192.145 436.439 188.434V174.518L439.965 172.848H440.15V188.434C440.15 189.918 440.769 190.66 442.006 190.66H446.273C447.51 190.66 448.129 189.918 448.129 188.434V174.518L451.654 172.848H451.84V188.434C451.84 189.918 452.458 190.66 453.695 190.66H457.963C459.2 190.66 459.818 189.918 459.818 188.434V174.518L463.344 172.848H463.529V188.434C463.529 192.145 461.674 194 457.963 194H453.695C451.988 194 450.751 193.542 449.984 192.627C449.168 193.542 447.931 194 446.273 194H442.006ZM473.734 190.66H477.631C478.868 190.66 479.486 189.918 479.486 188.434V185.892C479.486 184.407 478.868 183.665 477.631 183.665H473.734C472.497 183.665 471.879 184.407 471.879 185.892V188.434C471.879 189.918 472.497 190.66 473.734 190.66ZM473.734 194C470.023 194 468.168 192.145 468.168 188.434V185.892C468.168 182.181 470.023 180.325 473.734 180.325H477.631C478.274 180.325 478.893 180.511 479.486 180.882V179.156C479.486 177.672 478.868 176.93 477.631 176.93H470.988V176.744L472.473 173.59H477.631C481.342 173.59 483.197 175.445 483.197 179.156V193.072L479.672 194.742H479.486V193.443C479.016 193.814 478.398 194 477.631 194H473.734ZM489.97 169.489C489.537 169.044 489.32 168.512 489.32 167.894C489.32 167.263 489.537 166.725 489.97 166.279C490.403 165.834 490.928 165.611 491.547 165.611C492.165 165.611 492.691 165.834 493.124 166.279C493.557 166.725 493.773 167.263 493.773 167.894C493.773 168.512 493.557 169.044 493.124 169.489C492.691 169.935 492.165 170.157 491.547 170.157C490.928 170.157 490.403 169.935 489.97 169.489ZM489.691 194.742V174.518L493.217 172.848H493.402V193.072L489.877 194.742H489.691ZM502.346 194.742V176.967H497.577V176.781L499.08 173.59H502.346V166.91L505.871 165.24H506.057V173.59H510.825V173.775L509.322 176.967H506.057V193.072L502.531 194.742H502.346ZM517.598 188.842H517.783C519.132 190.165 519.806 191.674 519.806 193.369C519.806 195.732 518.29 197.711 515.26 199.307L514.462 198.379C515.86 196.956 516.559 195.62 516.559 194.371C516.559 192.874 515.73 191.588 514.072 190.512L517.598 188.842ZM643.584 194.742V178.822H640.801V178.637L642.304 175.445H643.584V171.549C643.584 167.838 645.439 165.982 649.15 165.982H653.789V166.168L652.305 169.322H649.15C647.913 169.322 647.295 170.064 647.295 171.549V175.445H653.437V175.631L651.934 178.822H647.295V193.072L643.77 194.742H643.584ZM662.139 190.66H666.035C667.272 190.66 667.891 189.918 667.891 188.434V185.892C667.891 184.407 667.272 183.665 666.035 183.665H662.139C660.902 183.665 660.283 184.407 660.283 185.892V188.434C660.283 189.918 660.902 190.66 662.139 190.66ZM662.139 194C658.428 194 656.572 192.145 656.572 188.434V185.892C656.572 182.181 658.428 180.325 662.139 180.325H666.035C666.678 180.325 667.297 180.511 667.891 180.882V179.156C667.891 177.672 667.272 176.93 666.035 176.93H659.393V176.744L660.877 173.59H666.035C669.746 173.59 671.602 175.445 671.602 179.156V193.072L668.076 194.742H667.891V193.443C667.421 193.814 666.802 194 666.035 194H662.139ZM682.178 194C678.467 194 676.611 192.145 676.611 188.434V187.766L680.137 186.096H680.322V188.434C680.322 189.918 680.941 190.66 682.178 190.66H686.445C687.682 190.66 688.301 189.918 688.301 188.434V186.968C688.301 185.483 687.682 184.741 686.445 184.741H682.957C679.246 184.741 677.391 182.88 677.391 179.156C677.391 175.445 679.246 173.59 682.957 173.59H685.128C688.839 173.59 690.694 175.087 690.694 178.08L687.169 179.75H686.983V179.156C686.983 177.672 686.365 176.93 685.128 176.93H682.957C681.72 176.93 681.102 177.672 681.102 179.156C681.102 180.653 681.72 181.401 682.957 181.401H686.445C690.156 181.401 692.012 183.257 692.012 186.968V188.434C692.012 192.145 690.156 194 686.445 194H682.178ZM699.471 194.742V176.967H694.702V176.781L696.205 173.59H699.471V166.91L702.996 165.24H703.182V173.59H707.95V173.775L706.447 176.967H703.182V193.072L699.656 194.742H699.471ZM720.567 165.24H720.753C722.101 166.564 722.775 168.073 722.775 169.768C722.775 172.13 721.26 174.109 718.229 175.705L717.432 174.777C718.829 173.355 719.528 172.019 719.528 170.77C719.528 169.273 718.7 167.986 717.042 166.91L720.567 165.24ZM714.723 165.24H714.908C716.257 166.564 716.931 168.073 716.931 169.768C716.931 172.13 715.415 174.109 712.385 175.705L711.587 174.777C712.985 173.355 713.684 172.019 713.684 170.77C713.684 169.273 712.855 167.986 711.197 166.91L714.723 165.24Z" fill="#A8DADC"/>
</svg>
